<svg xmlns="http://www.w3.org/2000/svg" width="1088.301" height="697.004" viewBox="0 0 1088.301 697.004">
    <defs>
        <style>
            .cls-1{fill:#f2ae00}.cls-2{fill:#e39eff}.cls-3{fill:#5028af}.cls-4{fill:#fdcd53}.cls-8{fill:#ffafa8}.cls-10{opacity:.17}.cls-11{fill:#fff}.cls-12{fill:#6530cb}.cls-13{fill:#3d065c}.cls-14{fill:#2d2d2d}.cls-15{fill:#f9f9f9}.cls-16{fill:#3d0f5b}.cls-18{opacity:.3}
        </style>
    </defs>
    <g id="Group_1828" data-name="Group 1828" transform="translate(-89.707 -103.466)">
        <g id="Group_1815" data-name="Group 1815" transform="translate(273.555 103.466)">
            <g id="Group_1611" data-name="Group 1611" transform="translate(221.166)">
                <g id="Group_1610" data-name="Group 1610">
                    <g id="Group_1609" data-name="Group 1609">
                        <path id="Rectangle_923" d="M1.68 0h17.238a24.764 24.764 0 0 1 24.764 24.764v16.6A1.68 1.68 0 0 1 42 43.044H1.68A1.68 1.68 0 0 1 0 41.364V1.68A1.68 1.68 0 0 1 1.68 0z" class="cls-1" data-name="Rectangle 923"/>
                    </g>
                </g>
            </g>
            <g id="Group_1638" data-name="Group 1638" transform="translate(6.413 474.2)">
                <g id="Group_1618" data-name="Group 1618" transform="translate(0 60.553)">
                    <g id="Group_1614" data-name="Group 1614">
                        <g id="Group_1613" data-name="Group 1613">
                            <g id="Group_1612" data-name="Group 1612">
                                <path id="Path_4230" d="M303.795 480.361l136.485-.661s-9.891-20.44-25.056-18.462-15.823 13.846-41.538-.659-22.417-21.758-43.517-11.21-18.462-4.614-39.561 5.935-29.671 25.055-29.671 25.055z" class="cls-2" data-name="Path 4230" transform="translate(-260.937 -444.365)"/>
                            </g>
                        </g>
                    </g>
                    <g id="Group_1617" data-name="Group 1617" transform="translate(42.858 .66)">
                        <g id="Group_1616" data-name="Group 1616">
                            <g id="Group_1615" data-name="Group 1615">
                                <path id="Path_4231" d="M426.094 479.494l-135.826.659s9.891-20.44 25.056-18.462 15.823 13.846 41.538-.659 22.417-21.758 43.517-11.209 18.462-4.616 39.561 5.934 30.329 23.737 30.329 23.737z" class="cls-3" data-name="Path 4231" transform="translate(-290.268 -444.816)"/>
                            </g>
                        </g>
                    </g>
                </g>
                <g id="Group_1637" data-name="Group 1637" transform="translate(101.363)">
                    <g id="Group_1621" data-name="Group 1621" transform="translate(22.881)">
                        <g id="Group_1620" data-name="Group 1620">
                            <g id="Group_1619" data-name="Group 1619">
                                <path id="Path_4232" d="M370.957 432.253c-2.456 8.589-9.864 14-16.545 12.093s-10.105-10.423-7.649-19.013 13.57-24.16 20.25-22.249 6.4 20.579 3.944 29.169z" class="cls-4" data-name="Path 4232" transform="translate(-345.968 -402.923)"/>
                            </g>
                        </g>
                    </g>
                    <g id="Group_1624" data-name="Group 1624" transform="translate(30.832 21.244)">
                        <g id="Group_1623" data-name="Group 1623">
                            <g id="Group_1622" data-name="Group 1622">
                                <path id="Path_4233" d="M351.595 464.155c-.395-1.98-.7-34.368 5.124-46.693l.6.282c-5.773 12.212-5.465 44.319-5.073 46.283z" class="cls-3" data-name="Path 4233" transform="translate(-351.409 -417.462)"/>
                            </g>
                        </g>
                    </g>
                    <g id="Group_1627" data-name="Group 1627" transform="translate(0 26.293)">
                        <g id="Group_1626" data-name="Group 1626">
                            <g id="Group_1625" data-name="Group 1625">
                                <path id="Path_4234" d="M335.881 441.617c3.577 5.2 9.723 7.261 13.728 4.613s4.351-9.005.774-14.2-14.483-13.238-18.488-10.591.41 14.984 3.986 20.178z" class="cls-4" data-name="Path 4234" transform="translate(-330.308 -420.917)"/>
                            </g>
                        </g>
                    </g>
                    <g id="Group_1630" data-name="Group 1630" transform="translate(11.126 39.13)">
                        <g id="Group_1629" data-name="Group 1629">
                            <g id="Group_1628" data-name="Group 1628">
                                <path id="Path_4235" d="M351.749 459.786c-.184-1.384-7.236-22.723-13.826-29.627l.478-.456c6.841 7.169 13.81 28.547 14 29.995z" class="cls-3" data-name="Path 4235" transform="translate(-337.923 -429.703)"/>
                            </g>
                        </g>
                    </g>
                    <g id="Group_1633" data-name="Group 1633" transform="translate(46.962 28.271)">
                        <g id="Group_1632" data-name="Group 1632">
                            <g id="Group_1631" data-name="Group 1631">
                                <path id="Path_4236" d="M378.353 442.971c-3.352 5.194-9.11 7.261-12.863 4.613s-4.078-9.007-.726-14.2 13.571-13.238 17.324-10.591-.388 14.982-3.735 20.178z" class="cls-4" data-name="Path 4236" transform="translate(-362.448 -422.271)"/>
                            </g>
                        </g>
                    </g>
                    <g id="Group_1636" data-name="Group 1636" transform="translate(44.073 41.118)">
                        <g id="Group_1635" data-name="Group 1635">
                            <g id="Group_1634" data-name="Group 1634">
                                <path id="Path_4237" d="M361.126 461.132l-.655-.08c.181-1.448 6.711-22.823 13.12-29.989l.491.438c-6.174 6.904-12.782 28.249-12.956 29.631z" class="cls-3" data-name="Path 4237" transform="translate(-360.471 -431.063)"/>
                            </g>
                        </g>
                    </g>
                </g>
            </g>
            <g id="Group_1639" data-name="Group 1639" opacity="0.21" transform="translate(44.916 53.171)">
                <path id="Path_4238" fill="#ffa8a1" d="M945.787 627.975l-638.937 2.006s-37.467-79.616-8.7-153.88 65.567-70.249 138.493-87.644-6.689-110.393 12.045-184.657 101.694-116.413 196.029-68.91 58.876 182.648 212.757 211.417 88.313 281.668 88.313 281.668z" data-name="Path 4238" transform="translate(-287.288 -114.777)"/>
            </g>
            <g id="Group_1646" data-name="Group 1646" transform="translate(143.437 150.615)">
                <g id="Group_1641" data-name="Group 1641" opacity="0.37" transform="translate(151.918)">
                    <g id="Group_1640" data-name="Group 1640">
                        <path id="Path_4239" d="M574.828 365.876a6.707 6.707 0 0 1-1.087-.088c-4.262-.685-7.236-5.227-6.643-10.142a479.41 479.41 0 0 0 2.668-57.563c-.63-39.744-6.8-69.086-17.853-84.852-5.921-8.451-13.148-12.925-22.092-13.681-8.7-.722-16.194 2.421-22.929 9.641-13.058 14-22.853 42.974-28.325 83.8a505.493 505.493 0 0 0-4.3 59.4c0 4.965-3.489 8.989-7.794 8.989s-7.794-4.024-7.794-8.989c0-4.739.427-116.523 37.6-156.369 9.943-10.661 21.6-15.513 34.68-14.4 13.3 1.121 24.429 7.958 33.088 20.32 31.528 45.013 19.036 151.67 18.49 156.188-.545 4.495-3.884 7.746-7.709 7.746z" class="cls-3" data-name="Path 4239" transform="translate(-458.684 -181.466)"/>
                    </g>
                </g>
                <g id="Group_1642" data-name="Group 1642" transform="translate(64.722 108.096)">
                    <path id="Path_4240" d="M771.163 567.276H399.009v-311.83l311.027 1.782z" class="cls-8" data-name="Path 4240" transform="translate(-399.009 -255.446)"/>
                </g>
                <g id="Group_1643" data-name="Group 1643" transform="translate(0 108.702)">
                    <path id="Path_4241" fill="#ff847a" d="M663.943 566.887H354.714l57.531-311.027h215.741z" data-name="Path 4241" transform="translate(-354.714 -255.86)"/>
                </g>
                <g id="Group_1645" data-name="Group 1645" transform="translate(113.264 1.797)">
                    <g id="Group_1644" data-name="Group 1644">
                        <path id="Path_4242" d="M542.293 367.107a6.031 6.031 0 0 1-1.029-.089c-4.04-.684-6.857-5.227-6.3-10.142a505.2 505.2 0 0 0 2.529-57.563c-.6-39.744-6.447-69.086-16.918-84.852-5.612-8.45-12.459-12.926-20.936-13.679-8.242-.722-15.345 2.42-21.728 9.639-12.375 14-21.658 42.975-26.842 83.8a532.974 532.974 0 0 0-4.072 59.4c0 4.965-3.307 8.989-7.386 8.989s-7.386-4.024-7.386-8.989c0-4.739.4-116.522 35.628-156.369 9.423-10.659 20.474-15.513 32.863-14.4 12.6 1.122 23.151 7.959 31.357 20.321 29.876 45.013 18.04 151.671 17.521 156.187-.511 4.495-3.675 7.747-7.301 7.747z" class="cls-3" data-name="Path 4242" transform="translate(-432.23 -182.697)"/>
                    </g>
                </g>
            </g>
            <g id="Group_1673" data-name="Group 1673" transform="translate(316.994 469.928)">
                <g id="Group_1653" data-name="Group 1653" transform="translate(0 60.554)">
                    <g id="Group_1649" data-name="Group 1649">
                        <g id="Group_1648" data-name="Group 1648">
                            <g id="Group_1647" data-name="Group 1647">
                                <path id="Path_4243" d="M516.351 477.438l136.484-.661s-9.889-20.439-25.055-18.462-15.824 13.848-41.538-.659-22.419-21.758-43.517-11.209-18.462-4.616-39.561 5.934-29.671 25.056-29.671 25.056z" class="cls-2" data-name="Path 4243" transform="translate(-473.493 -441.441)"/>
                            </g>
                        </g>
                    </g>
                    <g id="Group_1652" data-name="Group 1652" transform="translate(42.858 .66)">
                        <g id="Group_1651" data-name="Group 1651">
                            <g id="Group_1650" data-name="Group 1650">
                                <path id="Path_4244" d="M638.649 476.57l-135.825.661s9.889-20.44 25.055-18.462 15.824 13.846 41.538-.66 22.419-21.757 43.518-11.209 18.46-4.614 39.56 5.935 30.33 23.735 30.33 23.735z" class="cls-3" data-name="Path 4244" transform="translate(-502.824 -441.893)"/>
                            </g>
                        </g>
                    </g>
                </g>
                <g id="Group_1672" data-name="Group 1672" transform="translate(101.362)">
                    <g id="Group_1656" data-name="Group 1656" transform="translate(22.882)">
                        <g id="Group_1655" data-name="Group 1655">
                            <g id="Group_1654" data-name="Group 1654">
                                <path id="Path_4245" d="M583.512 429.329c-2.456 8.59-9.863 14-16.544 12.094S556.863 431 559.319 422.41s13.57-24.16 20.251-22.251 6.399 20.58 3.942 29.17z" class="cls-4" data-name="Path 4245" transform="translate(-558.524 -399.999)"/>
                            </g>
                        </g>
                    </g>
                    <g id="Group_1659" data-name="Group 1659" transform="translate(30.832 21.244)">
                        <g id="Group_1658" data-name="Group 1658">
                            <g id="Group_1657" data-name="Group 1657">
                                <path id="Path_4246" d="M564.151 461.233c-.4-1.98-.7-34.368 5.124-46.695l.6.282c-5.775 12.213-5.466 44.32-5.075 46.284z" class="cls-3" data-name="Path 4246" transform="translate(-563.965 -414.538)"/>
                            </g>
                        </g>
                    </g>
                    <g id="Group_1662" data-name="Group 1662" transform="translate(0 26.294)">
                        <g id="Group_1661" data-name="Group 1661">
                            <g id="Group_1660" data-name="Group 1660">
                                <path id="Path_4247" d="M548.437 438.694c3.577 5.194 9.723 7.259 13.726 4.611s4.351-9.005.774-14.2-14.483-13.238-18.487-10.591.41 14.986 3.987 20.18z" class="cls-4" data-name="Path 4247" transform="translate(-542.864 -417.994)"/>
                            </g>
                        </g>
                    </g>
                    <g id="Group_1665" data-name="Group 1665" transform="translate(11.127 39.132)">
                        <g id="Group_1664" data-name="Group 1664">
                            <g id="Group_1663" data-name="Group 1663">
                                <path id="Path_4248" d="M564.3 456.861c-.184-1.382-7.236-22.721-13.826-29.625l.476-.456c6.841 7.167 13.81 28.547 14 29.993z" class="cls-3" data-name="Path 4248" transform="translate(-550.479 -426.78)"/>
                            </g>
                        </g>
                    </g>
                    <g id="Group_1668" data-name="Group 1668" transform="translate(46.962 28.273)">
                        <g id="Group_1667" data-name="Group 1667">
                            <g id="Group_1666" data-name="Group 1666">
                                <path id="Path_4249" d="M590.907 440.047c-3.35 5.2-9.11 7.261-12.863 4.613s-4.077-9.005-.726-14.2 13.573-13.237 17.325-10.589-.383 14.981-3.736 20.176z" class="cls-4" data-name="Path 4249" transform="translate(-575.004 -419.348)"/>
                            </g>
                        </g>
                    </g>
                    <g id="Group_1671" data-name="Group 1671" transform="translate(44.074 41.117)">
                        <g id="Group_1670" data-name="Group 1670">
                            <g id="Group_1669" data-name="Group 1669">
                                <path id="Path_4250" d="M573.68 458.21l-.653-.082c.18-1.447 6.71-22.822 13.12-29.989l.491.44c-6.175 6.904-12.785 28.249-12.958 29.631z" class="cls-3" data-name="Path 4250" transform="translate(-573.027 -428.139)"/>
                            </g>
                        </g>
                    </g>
                </g>
            </g>
            <g id="Group_1734" data-name="Group 1734" transform="translate(496.627 181.796)">
                <g id="Group_1720" data-name="Group 1720" transform="translate(0 55.52)">
                    <g id="Group_1711" data-name="Group 1711">
                        <g id="Group_1692" data-name="Group 1692" transform="translate(22.893 288.451)">
                            <g id="Group_1682" data-name="Group 1682" transform="translate(85.976 .29)">
                                <g id="Group_1675" data-name="Group 1675" transform="translate(0 17.801)">
                                    <g id="Group_1674" data-name="Group 1674">
                                        <path id="Path_4251" d="M714.437 474.332h-41.57a1.927 1.927 0 0 1-1.927-1.927v-15.876a5.935 5.935 0 0 1 5.934-5.934h15.165a30.547 30.547 0 0 1 8.367 1.089 20.885 20.885 0 0 1 11.334 7.621 22.867 22.867 0 0 1 3.739 7.773 27.207 27.207 0 0 1 .883 5.222 1.916 1.916 0 0 1-1.925 2.032z" class="cls-3" data-name="Path 4251" transform="translate(-670.939 -450.595)"/>
                                    </g>
                                </g>
                                <g id="Group_1677" class="cls-10" data-name="Group 1677" transform="translate(0 34.285)">
                                    <g id="Group_1676" data-name="Group 1676">
                                        <path id="Path_4252" d="M714.437 469.129h-41.57a1.927 1.927 0 0 1-1.927-1.927v-5.326h44.539a27.207 27.207 0 0 1 .883 5.222 1.916 1.916 0 0 1-1.925 2.031z" class="cls-11" data-name="Path 4252" transform="translate(-670.939 -461.876)"/>
                                    </g>
                                </g>
                                <g id="Group_1679" data-name="Group 1679" transform="translate(22.419 18.89)">
                                    <g id="Group_1678" data-name="Group 1678">
                                        <path id="Path_4253" d="M704.664 458.961l-9.81 5.8-8.571-7.253 7.047-6.165a20.885 20.885 0 0 1 11.334 7.618z" class="cls-4" data-name="Path 4253" transform="translate(-686.282 -451.34)"/>
                                    </g>
                                </g>
                                <g id="Group_1681" data-name="Group 1681" transform="translate(3.035)">
                                    <g id="Group_1680" data-name="Group 1680">
                                        <path id="Path_4254" d="M690.141 446.19l.521 10.681a8.176 8.176 0 0 1-8.166 8.574 8.178 8.178 0 0 1-8.117-7.186l-1.3-10.681a8.175 8.175 0 0 1 8.115-9.166h.782a8.175 8.175 0 0 1 8.165 7.778z" class="cls-2" data-name="Path 4254" transform="translate(-673.016 -438.412)"/>
                                    </g>
                                </g>
                            </g>
                            <g id="Group_1691" data-name="Group 1691">
                                <g id="Group_1684" data-name="Group 1684" transform="translate(0 17.762)">
                                    <g id="Group_1683" data-name="Group 1683">
                                        <path id="Path_4255" d="M614.028 474.105H655.6a1.927 1.927 0 0 0 1.927-1.926V456.3a5.934 5.934 0 0 0-5.934-5.934h-15.167a30.546 30.546 0 0 0-8.367 1.087 20.879 20.879 0 0 0-11.334 7.623 22.84 22.84 0 0 0-3.739 7.773 27.152 27.152 0 0 0-.883 5.221 1.916 1.916 0 0 0 1.925 2.035z" class="cls-12" data-name="Path 4255" transform="translate(-612.099 -450.37)"/>
                                    </g>
                                </g>
                                <g id="Group_1686" class="cls-10" data-name="Group 1686" transform="translate(0 34.246)">
                                    <g id="Group_1685" data-name="Group 1685">
                                        <path id="Path_4256" d="M614.028 468.9H655.6a1.927 1.927 0 0 0 1.927-1.926v-5.326h-44.541a27.151 27.151 0 0 0-.883 5.221 1.916 1.916 0 0 0 1.925 2.031z" class="cls-11" data-name="Path 4256" transform="translate(-612.099 -461.651)"/>
                                    </g>
                                </g>
                                <g id="Group_1688" data-name="Group 1688" transform="translate(4.627 18.849)">
                                    <g id="Group_1687" data-name="Group 1687">
                                        <path id="Path_4257" d="M615.265 458.737l9.81 5.795 8.571-7.253-7.047-6.165a20.879 20.879 0 0 0-11.334 7.623z" class="cls-4" data-name="Path 4257" transform="translate(-615.265 -451.114)"/>
                                    </g>
                                </g>
                                <g id="Group_1690" data-name="Group 1690" transform="translate(23.933)">
                                    <g id="Group_1689" data-name="Group 1689">
                                        <path id="Path_4258" d="M630.776 444.762l-2.132 10.478a8.176 8.176 0 0 0 6.774 9.712 8.176 8.176 0 0 0 9.11-5.875l2.9-10.36a8.178 8.178 0 0 0-6.635-10.29l-.773-.118a8.175 8.175 0 0 0-9.244 6.453z" class="cls-2" data-name="Path 4258" transform="translate(-628.478 -438.214)"/>
                                    </g>
                                </g>
                            </g>
                        </g>
                        <g id="Group_1694" data-name="Group 1694" transform="translate(86.122 76.102)">
                            <g id="Group_1693" data-name="Group 1693">
                                <path id="Path_4259" d="M686.031 293.215L705.152 514.1h-30.989l-15.825-150.335-2.967-70.879z" class="cls-3" data-name="Path 4259" transform="translate(-655.371 -292.885)"/>
                            </g>
                        </g>
                        <g id="Group_1696" data-name="Group 1696" transform="translate(42.275 76.431)">
                            <g id="Group_1695" data-name="Group 1695">
                                <path id="Path_4260" d="M644.485 293.111l-19.121 220.88h30.989l15.824-150.331v-70.55z" class="cls-12" data-name="Path 4260" transform="translate(-625.364 -293.111)"/>
                            </g>
                        </g>
                        <g id="Group_1698" data-name="Group 1698" transform="translate(57.44 .607)">
                            <g id="Group_1697" data-name="Group 1697">
                                <path id="Path_4261" d="M699.04 249.13l-3.957 68.57c-32.967 9.232-55.384 0-55.384 0l-3.957-68.571 20.611-6.87 3.125-1.042H675.3l3.784 1.26z" class="cls-4" data-name="Path 4261" transform="translate(-635.742 -241.218)"/>
                            </g>
                        </g>
                        <g id="Group_1700" data-name="Group 1700" transform="translate(73.924 26.321)">
                            <g id="Group_1699" data-name="Group 1699">
                                <path id="Rectangle_924" d="M0 0H33.627V33.627H0z" class="cls-13" data-name="Rectangle 924"/>
                            </g>
                        </g>
                        <g id="Group_1702" data-name="Group 1702" transform="translate(83.814 8.519)">
                            <g id="Group_1701" data-name="Group 1701">
                                <path id="Path_4262" d="M698.166 300.04h-44.374v-18.462l5.275-.053 29.65-.278 2-34.615 17.578 37.47a11.185 11.185 0 0 1-10.129 15.938z" class="cls-1" data-name="Path 4262" transform="translate(-653.792 -246.633)"/>
                            </g>
                        </g>
                        <g id="Group_1704" data-name="Group 1704" transform="translate(71.884 46.788)">
                            <g id="Group_1703" data-name="Group 1703">
                                <path id="Path_4263" d="M657.557 274.116s-9.891-3.957-9.23 1.977c0 0-2.638-1.318-2.638 2.637s-.824 7.253 3.543 7.253h8.324z" class="cls-2" data-name="Path 4263" transform="translate(-645.628 -272.824)"/>
                            </g>
                        </g>
                        <g id="Group_1706" data-name="Group 1706" transform="translate(3.045 8.618)">
                            <g id="Group_1705" data-name="Group 1705">
                                <path id="Path_4264" d="M655.172 279.615l-10.227 17.169a12.086 12.086 0 0 1-20.155.937l-22-30.218-4.272-5.868 12.725-10.509 4.7 5.735 17.974 21.923 19.355-32.084z" class="cls-1" data-name="Path 4264" transform="translate(-598.515 -246.701)"/>
                            </g>
                        </g>
                        <g id="Group_1708" data-name="Group 1708">
                            <g id="Group_1707" data-name="Group 1707">
                                <path id="Path_4265" d="M611.013 254.6s-5.934-9.891-11.209-13.187 1.319 7.912 1.319 7.912-10.221 3.105-.5 14.08z" class="cls-2" data-name="Path 4265" transform="translate(-596.431 -240.803)"/>
                            </g>
                        </g>
                        <g id="Group_1710" data-name="Group 1710" transform="translate(83.155 112.695)">
                            <g id="Group_1709" data-name="Group 1709">
                                <path id="Path_4266" d="M659.1 355.234a.661.661 0 0 1-.656-.663l.177-31.383-5.029-4.087a.66.66 0 0 1 .833-1.023l5.52 4.484-.181 32.016a.661.661 0 0 1-.664.656z" class="cls-14" data-name="Path 4266" transform="translate(-653.341 -317.93)"/>
                            </g>
                        </g>
                    </g>
                    <g id="Group_1713" data-name="Group 1713" transform="translate(48.749 79.627)">
                        <g id="Group_1712" data-name="Group 1712">
                            <path id="Path_4267" d="M630.042 508.879h-.019a.249.249 0 0 1-.228-.266l.344-4.6a.251.251 0 0 1 .264-.228.248.248 0 0 1 .229.264l-.343 4.6a.248.248 0 0 1-.247.23zm.916-12.264h-.019a.247.247 0 0 1-.228-.265l.343-4.6a.25.25 0 0 1 .265-.228.247.247 0 0 1 .228.264l-.343 4.6a.247.247 0 0 1-.246.229zm.915-12.264h-.019a.247.247 0 0 1-.228-.264l.345-4.6a.247.247 0 1 1 .492.037l-.343 4.6a.248.248 0 0 1-.247.228zm.916-12.264h-.019a.247.247 0 0 1-.228-.264l.343-4.6a.252.252 0 0 1 .266-.228.247.247 0 0 1 .228.264l-.345 4.6a.246.246 0 0 1-.245.229zm.916-12.265h-.019a.247.247 0 0 1-.228-.266l.343-4.6a.247.247 0 1 1 .493.038l-.343 4.6a.247.247 0 0 1-.246.229zm.915-12.264h-.02a.249.249 0 0 1-.229-.266l.345-4.6a.253.253 0 0 1 .264-.228.248.248 0 0 1 .228.266l-.343 4.6a.248.248 0 0 1-.245.229zm.916-12.264h-.019a.247.247 0 0 1-.228-.266l.343-4.6a.253.253 0 0 1 .266-.229.248.248 0 0 1 .228.266l-.343 4.6a.248.248 0 0 1-.247.235zm.916-12.264h-.019a.248.248 0 0 1-.228-.266l.343-4.6a.247.247 0 1 1 .492.038l-.343 4.6a.246.246 0 0 1-.245.23zm.915-12.264h-.017a.249.249 0 0 1-.229-.266l.345-4.6a.253.253 0 0 1 .264-.228.247.247 0 0 1 .228.266l-.343 4.6a.248.248 0 0 1-.248.23zm.916-12.264h-.019a.248.248 0 0 1-.228-.266l.344-4.6a.25.25 0 0 1 .266-.228.247.247 0 0 1 .228.266l-.343 4.6a.248.248 0 0 1-.248.226zm.916-12.264h-.019a.247.247 0 0 1-.228-.265l.343-4.6a.248.248 0 0 1 .494.036l-.345 4.6a.247.247 0 0 1-.244.232zm.916-12.264h-.015a.247.247 0 0 1-.228-.264l.343-4.6a.252.252 0 0 1 .265-.228.247.247 0 0 1 .228.264l-.343 4.6a.247.247 0 0 1-.249.232zm.915-12.264h-.019a.247.247 0 0 1-.228-.264l.345-4.6a.253.253 0 0 1 .264-.228.247.247 0 0 1 .228.264l-.343 4.6a.248.248 0 0 1-.247.232zm.916-12.264h-.019a.247.247 0 0 1-.228-.264l.343-4.6a.253.253 0 0 1 .264-.228.247.247 0 0 1 .23.264l-.345 4.6a.246.246 0 0 1-.245.233zm.916-12.265h-.019a.247.247 0 0 1-.228-.264l.344-4.6a.255.255 0 0 1 .264-.229.249.249 0 0 1 .228.266l-.343 4.6a.246.246 0 0 1-.246.231zm.915-12.264h-.018a.247.247 0 0 1-.229-.264l.343-4.6a.255.255 0 0 1 .266-.228.247.247 0 0 1 .228.266l-.343 4.6a.247.247 0 0 1-.247.231zm.916-12.264h-.019a.247.247 0 0 1-.228-.266l.343-4.6a.262.262 0 0 1 .266-.228.248.248 0 0 1 .228.266l-.345 4.6a.245.245 0 0 1-.245.233zm.916-12.264h-.019a.248.248 0 0 1-.228-.266l.343-4.6a.255.255 0 0 1 .265-.228.247.247 0 0 1 .228.266l-.343 4.6a.247.247 0 0 1-.246.234z" class="cls-15" data-name="Path 4267" transform="translate(-629.795 -295.298)"/>
                        </g>
                    </g>
                    <g id="Group_1715" data-name="Group 1715" transform="translate(111.301 78.794)">
                        <g id="Group_1714" data-name="Group 1714">
                            <path id="Path_4268" d="M689.97 508.215a.248.248 0 0 1-.245-.228l-.37-4.6a.246.246 0 0 1 .226-.266.239.239 0 0 1 .266.226l.37 4.6a.247.247 0 0 1-.227.266zm-.985-12.259a.247.247 0 0 1-.247-.226l-.37-4.6a.248.248 0 0 1 .228-.266.238.238 0 0 1 .266.226l.37 4.6a.248.248 0 0 1-.227.267zM688 483.7a.247.247 0 0 1-.247-.228l-.37-4.6a.248.248 0 0 1 .226-.267.239.239 0 0 1 .266.228l.371 4.6a.248.248 0 0 1-.227.267zm-.986-12.258a.249.249 0 0 1-.247-.228l-.368-4.6a.247.247 0 0 1 .227-.266.24.24 0 0 1 .266.226l.37 4.6a.246.246 0 0 1-.227.266zm-.985-12.259a.247.247 0 0 1-.247-.226l-.37-4.6a.247.247 0 0 1 .227-.266.242.242 0 0 1 .267.227l.37 4.6a.248.248 0 0 1-.226.267zm-.985-12.258a.247.247 0 0 1-.247-.228l-.37-4.6a.247.247 0 0 1 .227-.267.239.239 0 0 1 .266.227l.371 4.6a.248.248 0 0 1-.228.266zm-.986-12.259a.247.247 0 0 1-.247-.227l-.37-4.6a.248.248 0 0 1 .228-.266.24.24 0 0 1 .266.227l.37 4.6a.249.249 0 0 1-.226.267zm-.985-12.258a.247.247 0 0 1-.247-.228l-.37-4.6a.249.249 0 0 1 .227-.267.239.239 0 0 1 .267.227l.37 4.6a.247.247 0 0 1-.226.266zm-.985-12.259a.247.247 0 0 1-.247-.226l-.37-4.6a.247.247 0 0 1 .227-.266.238.238 0 0 1 .267.226l.368 4.6a.247.247 0 0 1-.226.266zm-.988-12.259a.247.247 0 0 1-.245-.228l-.371-4.6a.249.249 0 0 1 .227-.267.242.242 0 0 1 .267.226l.37 4.6a.246.246 0 0 1-.226.266zm-.985-12.258a.248.248 0 0 1-.247-.228l-.37-4.6a.247.247 0 0 1 .227-.266.24.24 0 0 1 .267.227l.37 4.6a.248.248 0 0 1-.228.266zm-.985-12.259a.247.247 0 0 1-.247-.227l-.37-4.6a.246.246 0 0 1 .226-.266.24.24 0 0 1 .266.227l.37 4.6a.247.247 0 0 1-.226.267zm-.986-12.258a.247.247 0 0 1-.245-.228l-.371-4.6a.249.249 0 0 1 .227-.267.244.244 0 0 1 .267.226l.37 4.6a.246.246 0 0 1-.227.266zm-.985-12.259a.247.247 0 0 1-.247-.227l-.369-4.6a.247.247 0 0 1 .226-.266.243.243 0 0 1 .267.227l.37 4.6a.25.25 0 0 1-.228.267zm-.985-12.258a.247.247 0 0 1-.247-.228l-.37-4.6a.247.247 0 1 1 .492-.041l.37 4.6a.248.248 0 0 1-.226.267zm-.986-12.258a.248.248 0 0 1-.245-.228l-.37-4.6a.247.247 0 0 1 .227-.266.238.238 0 0 1 .266.226l.37 4.6a.246.246 0 0 1-.227.266zm-.985-12.259a.247.247 0 0 1-.247-.227l-.37-4.6a.246.246 0 0 1 .227-.266.238.238 0 0 1 .266.227l.371 4.6a.249.249 0 0 1-.227.267zm-.986-12.258a.247.247 0 0 1-.246-.228l-.37-4.6a.247.247 0 0 1 .226-.266.242.242 0 0 1 .266.226l.37 4.6a.246.246 0 0 1-.227.266z" class="cls-15" data-name="Path 4268" transform="translate(-672.603 -294.728)"/>
                        </g>
                    </g>
                    <g id="Group_1717" data-name="Group 1717" transform="translate(83.608 23.825)">
                        <g id="Group_1716" data-name="Group 1716">
                            <path id="Path_4269" d="M653.9 287.585a.247.247 0 1 1 0-.494c.4 0 40.118-.1 44.608-5.232 4.445-5.078-7.221-24.181-7.339-24.374a.247.247 0 1 1 .421-.259c.491.8 11.973 19.609 7.291 24.958-4.636 5.3-43.335 5.4-44.981 5.4z" class="cls-15" data-name="Path 4269" transform="translate(-653.651 -257.108)"/>
                        </g>
                    </g>
                    <g id="Group_1719" data-name="Group 1719" transform="translate(77.962 1.348)">
                        <g id="Group_1718" data-name="Group 1718">
                            <path id="Path_4270" d="M661.44 252.142c-.285 0-.574-.01-.874-.032-9.322-.665-10.763-10.007-10.776-10.1a.247.247 0 1 1 .49-.07c.013.091 1.4 9.042 10.322 9.679s10.849-9.048 10.868-9.145a.245.245 0 0 1 .289-.2.248.248 0 0 1 .2.289c-.022.1-1.925 9.579-10.519 9.579z" class="cls-15" data-name="Path 4270" transform="translate(-649.787 -241.725)"/>
                        </g>
                    </g>
                </g>
                <g id="Group_1733" data-name="Group 1733" transform="translate(62.599)">
                    <g id="Group_1722" data-name="Group 1722" transform="translate(18.612 32.889)">
                        <g id="Group_1721" data-name="Group 1721">
                            <path id="Path_4271" d="M659.594 256.3a7.583 7.583 0 0 1-7.583-7.582V232.9a7.581 7.581 0 0 1 7.583-7.583 7.583 7.583 0 0 1 7.582 7.583v15.824a7.582 7.582 0 0 1-7.582 7.576z" class="cls-2" data-name="Path 4271" transform="translate(-652.011 -225.315)"/>
                        </g>
                    </g>
                    <g id="Group_1724" data-name="Group 1724" transform="translate(9.382 7.506)">
                        <g id="Group_1723" data-name="Group 1723">
                            <path id="Path_4272" d="M672.068 221.129v17.144a13.187 13.187 0 0 1-26.374 0v-17.144a13.187 13.187 0 0 1 26.374 0z" class="cls-2" data-name="Path 4272" transform="translate(-645.694 -207.943)"/>
                        </g>
                    </g>
                    <g id="Group_1726" data-name="Group 1726">
                        <g id="Group_1725" data-name="Group 1725">
                            <path id="Path_4273" d="M669.755 236.026s-1.319-7.9-1.319-7.912c0 1.078-9.5 2.637-10.539 2.776-7.356.983-17.324-1.289-18.475-10.1-1.324-10.129 6.419-19.175 16.82-17.856 6.491.824 13.492 5.1 15.821 11.388a3.94 3.94 0 0 0 .8 1.523c1.106 1.083 3.979.56 5.506 1.867 2.034 1.74 2.6 4.546 2.6 7.1 0 9.891-.659 11.209-.659 11.209z" class="cls-16" data-name="Path 4273" transform="translate(-639.273 -202.806)"/>
                        </g>
                    </g>
                    <g id="Group_1728" data-name="Group 1728" transform="translate(30.481 29.264)">
                        <g id="Group_1727" data-name="Group 1727">
                            <path id="Path_4274" d="M670.684 228.109a5.275 5.275 0 1 1-5.275-5.275 5.276 5.276 0 0 1 5.275 5.275z" class="cls-2" data-name="Path 4274" transform="translate(-660.134 -222.834)"/>
                        </g>
                    </g>
                    <g id="Group_1730" data-name="Group 1730" transform="translate(10.7 44.429)">
                        <g id="Group_1729" data-name="Group 1729">
                            <path id="Path_4275" d="M655.739 239.948a8.3 8.3 0 0 1-.935-.053c-5.178-.6-8-5.491-8.121-5.7a.659.659 0 0 1 1.147-.65c.025.045 2.623 4.519 7.125 5.038 4.566.525 10.3-3.871 10.36-3.914a.659.659 0 0 1 .809 1.04c-.238.185-5.508 4.239-10.385 4.239z" class="cls-14" data-name="Path 4275" transform="translate(-646.596 -233.213)"/>
                        </g>
                    </g>
                    <g id="Group_1732" data-name="Group 1732" transform="translate(8.723 23.979)">
                        <g id="Group_1731" data-name="Group 1731">
                            <path id="Path_4276" d="M645.9 233.732a.658.658 0 0 1-.658-.66l.023-13.2a.658.658 0 0 1 .659-.658.658.658 0 0 1 .658.66l-.023 13.2a.659.659 0 0 1-.659.658z" class="cls-14" data-name="Path 4276" transform="translate(-645.243 -219.217)"/>
                        </g>
                    </g>
                </g>
            </g>
            <g id="Group_1737" data-name="Group 1737" transform="translate(0 347.336)">
                <g id="Group_1736" data-name="Group 1736">
                    <g id="Group_1735" data-name="Group 1735">
                        <path id="Path_4277" d="M283.429 316.1a26.491 26.491 0 1 0 26.881 26.488 26.685 26.685 0 0 0-26.881-26.488zm0 36.895a10.408 10.408 0 1 1 10.561-10.406 10.485 10.485 0 0 1-10.561 10.405z" class="cls-4" data-name="Path 4277" transform="translate(-256.548 -316.099)"/>
                    </g>
                </g>
            </g>
            <g id="Group_1740" data-name="Group 1740" transform="translate(442.569 117.354)">
                <g id="Group_1739" data-name="Group 1739">
                    <g id="Group_1738" data-name="Group 1738">
                        <path id="Path_4278" fill="#f53d2d" d="M577.593 160.7l-17.785 35.764a3.569 3.569 0 0 0 3.25 5.135h36.294a3.568 3.568 0 0 0 3.223-5.186l-18.51-35.764a3.642 3.642 0 0 0-6.472.051z" data-name="Path 4278" transform="translate(-559.434 -158.704)"/>
                    </g>
                </g>
            </g>
            <g id="Group_1743" data-name="Group 1743" transform="translate(71.116 167.325)">
                <g id="Group_1742" data-name="Group 1742">
                    <g id="Group_1741" data-name="Group 1741">
                        <path id="Path_4279" d="M323.376 194.9l-17.784 35.765a3.567 3.567 0 0 0 3.248 5.133h36.3a3.567 3.567 0 0 0 3.223-5.184l-18.512-35.765a3.642 3.642 0 0 0-6.475.051z" class="cls-2" data-name="Path 4279" transform="translate(-305.218 -192.903)"/>
                    </g>
                </g>
            </g>
            <g id="Group_1753" data-name="Group 1753" transform="translate(109.432 241.949)">
                <g id="Group_1746" data-name="Group 1746">
                    <g id="Group_1745" data-name="Group 1745">
                        <g id="Group_1744" data-name="Group 1744">
                            <circle id="Ellipse_163" cx="21.234" cy="21.234" r="21.234" class="cls-3" data-name="Ellipse 163" transform="rotate(-78.103 25.612 20.778)"/>
                        </g>
                    </g>
                </g>
                <g id="Group_1749" data-name="Group 1749" transform="translate(16.033 16.865)">
                    <g id="Group_1748" data-name="Group 1748">
                        <g id="Group_1747" data-name="Group 1747">
                            <path id="Rectangle_925" d="M1.288 0h1.618a1.289 1.289 0 0 1 1.288 1.289V20a1.288 1.288 0 0 1-1.288 1.29H1.288A1.288 1.288 0 0 1 0 20V1.288A1.288 1.288 0 0 1 1.288 0z" class="cls-11" data-name="Rectangle 925" transform="rotate(50.012 8.156 17.486)"/>
                        </g>
                    </g>
                </g>
                <g id="Group_1752" data-name="Group 1752" transform="translate(16.259 16.589)">
                    <g id="Group_1751" data-name="Group 1751">
                        <g id="Group_1750" data-name="Group 1750">
                            <path id="Rectangle_926" d="M1.288 0h1.618a1.288 1.288 0 0 1 1.288 1.288V20a1.289 1.289 0 0 1-1.288 1.29H1.288A1.288 1.288 0 0 1 0 20V1.288A1.288 1.288 0 0 1 1.288 0z" class="cls-11" data-name="Rectangle 926" transform="rotate(132.366 6.112 11.269)"/>
                        </g>
                    </g>
                </g>
            </g>
            <g id="Group_1814" data-name="Group 1814" transform="translate(27.751 129.244)">
                <g id="Group_1801" data-name="Group 1801">
                    <g id="Group_1772" data-name="Group 1772" transform="translate(1.934 398.717)">
                        <g id="Group_1762" data-name="Group 1762" transform="translate(0 .288)">
                            <g id="Group_1755" data-name="Group 1755" transform="translate(0 17.803)">
                                <g id="Group_1754" data-name="Group 1754">
                                    <path id="Path_4280" d="M278.793 475.834h41.57a1.928 1.928 0 0 0 1.927-1.927v-15.876a5.934 5.934 0 0 0-5.934-5.934h-15.165a30.552 30.552 0 0 0-8.367 1.087 20.88 20.88 0 0 0-11.334 7.623 22.841 22.841 0 0 0-3.739 7.773 27.177 27.177 0 0 0-.883 5.221 1.917 1.917 0 0 0 1.925 2.033z" class="cls-3" data-name="Path 4280" transform="translate(-276.864 -452.097)"/>
                                </g>
                            </g>
                            <g id="Group_1757" class="cls-10" data-name="Group 1757" transform="translate(0 34.286)">
                                <g id="Group_1756" data-name="Group 1756">
                                    <path id="Path_4281" d="M278.793 470.631h41.57a1.928 1.928 0 0 0 1.927-1.927v-5.326h-44.539a27.179 27.179 0 0 0-.883 5.221 1.917 1.917 0 0 0 1.925 2.032z" class="cls-11" data-name="Path 4281" transform="translate(-276.864 -463.378)"/>
                                </g>
                            </g>
                            <g id="Group_1759" data-name="Group 1759" transform="translate(4.627 18.89)">
                                <g id="Group_1758" data-name="Group 1758">
                                    <path id="Path_4282" d="M280.03 460.464l9.81 5.795 8.573-7.253-7.049-6.165a20.88 20.88 0 0 0-11.334 7.623z" class="cls-4" data-name="Path 4282" transform="translate(-280.03 -452.841)"/>
                                </g>
                            </g>
                            <g id="Group_1761" data-name="Group 1761" transform="translate(24.735)">
                                <g id="Group_1760" data-name="Group 1760">
                                    <path id="Path_4283" d="M294.324 447.691l-.522 10.681a8.176 8.176 0 0 0 8.166 8.574 8.176 8.176 0 0 0 8.117-7.186l1.3-10.681a8.176 8.176 0 0 0-8.115-9.166h-.782a8.175 8.175 0 0 0-8.164 7.778z" class="cls-2" data-name="Path 4283" transform="translate(-293.792 -439.913)"/>
                                </g>
                            </g>
                        </g>
                        <g id="Group_1771" data-name="Group 1771" transform="translate(85.976)">
                            <g id="Group_1764" data-name="Group 1764" transform="translate(0 17.761)">
                                <g id="Group_1763" data-name="Group 1763">
                                    <path id="Path_4284" d="M379.2 475.608h-41.57a1.927 1.927 0 0 1-1.927-1.927V457.8a5.936 5.936 0 0 1 5.935-5.934H356.8a30.545 30.545 0 0 1 8.367 1.089 20.886 20.886 0 0 1 11.334 7.622 22.867 22.867 0 0 1 3.739 7.773 27.205 27.205 0 0 1 .883 5.222 1.915 1.915 0 0 1-1.923 2.036z" class="cls-12" data-name="Path 4284" transform="translate(-335.704 -451.871)"/>
                                </g>
                            </g>
                            <g id="Group_1766" class="cls-10" data-name="Group 1766" transform="translate(0 34.244)">
                                <g id="Group_1765" data-name="Group 1765">
                                    <path id="Path_4285" d="M379.2 470.405h-41.57a1.927 1.927 0 0 1-1.927-1.927v-5.326h44.539a27.205 27.205 0 0 1 .883 5.222 1.915 1.915 0 0 1-1.925 2.031z" class="cls-11" data-name="Path 4285" transform="translate(-335.704 -463.152)"/>
                                </g>
                            </g>
                            <g id="Group_1768" data-name="Group 1768" transform="translate(22.419 18.849)">
                                <g id="Group_1767" data-name="Group 1767">
                                    <path id="Path_4286" d="M369.429 460.238l-9.81 5.8-8.571-7.253 7.047-6.165a20.885 20.885 0 0 1 11.334 7.618z" class="cls-4" data-name="Path 4286" transform="translate(-351.047 -452.616)"/>
                                </g>
                            </g>
                            <g id="Group_1770" data-name="Group 1770" transform="translate(2.232)">
                                <g id="Group_1769" data-name="Group 1769">
                                    <path id="Path_4287" d="M354.2 446.262l2.132 10.48a8.173 8.173 0 0 1-6.774 9.711 8.175 8.175 0 0 1-9.11-5.874l-2.9-10.361a8.176 8.176 0 0 1 6.635-10.288l.773-.118a8.175 8.175 0 0 1 9.244 6.45z" class="cls-2" data-name="Path 4287" transform="translate(-337.232 -439.716)"/>
                                </g>
                            </g>
                        </g>
                    </g>
                    <g id="Group_1774" data-name="Group 1774" transform="translate(20.327 186.367)">
                        <g id="Group_1773" data-name="Group 1773">
                            <path id="Path_4288" d="M308.573 294.717L289.452 515.6h30.989l15.824-150.33 2.967-70.88z" class="cls-3" data-name="Path 4288" transform="translate(-289.452 -294.387)"/>
                        </g>
                    </g>
                    <g id="Group_1776" data-name="Group 1776" transform="translate(67.141 186.697)">
                        <g id="Group_1775" data-name="Group 1775">
                            <path id="Path_4289" d="M349.183 294.613l19.117 220.88h-30.986l-15.824-150.33v-70.55z" class="cls-12" data-name="Path 4289" transform="translate(-321.49 -294.613)"/>
                        </g>
                    </g>
                    <g id="Group_1778" data-name="Group 1778" transform="translate(35.492 110.872)">
                        <g id="Group_1777" data-name="Group 1777">
                            <path id="Path_4290" d="M299.83 250.632l3.957 68.571c32.967 9.23 55.384 0 55.384 0l3.957-68.571-20.611-6.87-3.125-1.042h-15.825l-3.784 1.26z" class="cls-4" data-name="Path 4290" transform="translate(-299.83 -242.72)"/>
                        </g>
                    </g>
                    <g id="Group_1780" data-name="Group 1780" transform="translate(48.679 136.586)">
                        <g id="Group_1779" data-name="Group 1779">
                            <path id="Rectangle_927" d="M0 0H33.627V33.627H0z" class="cls-13" data-name="Rectangle 927" transform="rotate(180 16.814 16.814)"/>
                        </g>
                    </g>
                    <g id="Group_1782" data-name="Group 1782" transform="translate(16.841 118.785)">
                        <g id="Group_1781" data-name="Group 1781">
                            <path id="Path_4291" d="M298.266 301.541h44.374V283.08l-5.275-.054-29.65-.276-2-34.615-17.578 37.47a11.184 11.184 0 0 0 10.129 15.936z" class="cls-1" data-name="Path 4291" transform="translate(-287.066 -248.135)"/>
                        </g>
                    </g>
                    <g id="Group_1784" data-name="Group 1784" transform="translate(72.415 157.053)">
                        <g id="Group_1783" data-name="Group 1783">
                            <path id="Path_4292" d="M325.1 275.617s9.891-3.955 9.23 1.978c0 0 2.637-1.319 2.637 2.637s.826 7.253-3.543 7.253H325.1z" class="cls-2" data-name="Path 4292" transform="translate(-325.1 -274.325)"/>
                        </g>
                    </g>
                    <g id="Group_1786" data-name="Group 1786" transform="translate(96.528 118.883)">
                        <g id="Group_1785" data-name="Group 1785">
                            <path id="Path_4293" d="M341.6 281.116l10.227 17.17a12.086 12.086 0 0 0 20.155.935l22-30.217 4.272-5.868-12.725-10.51-4.7 5.737-17.974 21.923L343.5 248.2z" class="cls-1" data-name="Path 4293" transform="translate(-341.602 -248.202)"/>
                        </g>
                    </g>
                    <g id="Group_1788" data-name="Group 1788" transform="translate(141.647 110.265)">
                        <g id="Group_1787" data-name="Group 1787">
                            <path id="Path_4294" d="M372.481 256.1s5.934-9.889 11.209-13.186-1.319 7.912-1.319 7.912 10.221 3.1.5 14.08z" class="cls-2" data-name="Path 4294" transform="translate(-372.481 -242.304)"/>
                        </g>
                    </g>
                    <g id="Group_1790" data-name="Group 1790" transform="translate(66.48 222.96)">
                        <g id="Group_1789" data-name="Group 1789">
                            <path id="Path_4295" d="M321.878 356.735a.659.659 0 0 0 .656-.663l-.177-31.383 5.029-4.085a.66.66 0 0 0-.833-1.024l-5.519 4.486.18 32.016a.66.66 0 0 0 .664.653z" class="cls-14" data-name="Path 4295" transform="translate(-321.038 -319.431)"/>
                        </g>
                    </g>
                    <g id="Group_1792" data-name="Group 1792">
                        <g id="Group_1791" data-name="Group 1791">
                            <circle id="Ellipse_164" cx="46.015" cy="46.015" r="46.015" class="cls-16" data-name="Ellipse 164" transform="rotate(-51.596 74.6 36.06)"/>
                        </g>
                    </g>
                    <g id="Group_1794" data-name="Group 1794" transform="translate(59.228 87.795)">
                        <g id="Group_1793" data-name="Group 1793">
                            <path id="Path_4296" d="M323.659 257.916a7.584 7.584 0 0 0 7.582-7.584v-15.824a7.581 7.581 0 0 0-7.582-7.582 7.583 7.583 0 0 0-7.584 7.582v15.824a7.584 7.584 0 0 0 7.584 7.584z" class="cls-2" data-name="Path 4296" transform="translate(-316.075 -226.926)"/>
                        </g>
                    </g>
                    <g id="Group_1796" data-name="Group 1796" transform="translate(57.58 59.113)">
                        <g id="Group_1795" data-name="Group 1795">
                            <path id="Path_4297" d="M314.947 220.484v17.142a13.187 13.187 0 0 0 26.374 0v-17.142a13.187 13.187 0 0 0-26.374 0z" class="cls-2" data-name="Path 4297" transform="translate(-314.947 -207.297)"/>
                        </g>
                    </g>
                    <g id="Group_1798" data-name="Group 1798" transform="translate(56.604 57.135)">
                        <g id="Group_1797" data-name="Group 1797">
                            <path id="Path_4298" d="M314.279 220.106v14.539a10.507 10.507 0 0 1 9.56-5.687c11.33 0 12.746-4.249 12.746-4.249-.687 6.175-4.029 9.03-4.242 9.2A17.807 17.807 0 0 0 342.605 224v-3.9a14.163 14.163 0 0 0-28.326 0z" class="cls-16" data-name="Path 4298" transform="translate(-314.279 -205.943)"/>
                        </g>
                    </g>
                    <g id="Group_1800" data-name="Group 1800" transform="translate(52.635 81.202)">
                        <g id="Group_1799" data-name="Group 1799">
                            <path id="Path_4299" d="M311.563 227.689a5.275 5.275 0 1 0 5.275-5.275 5.274 5.274 0 0 0-5.275 5.275z" class="cls-2" data-name="Path 4299" transform="translate(-311.563 -222.414)"/>
                        </g>
                    </g>
                </g>
                <g id="Group_1803" data-name="Group 1803" transform="translate(54.943 84.691)">
                    <g id="Group_1802" data-name="Group 1802">
                        <path id="Path_4300" d="M317.758 227.575a.658.658 0 0 0 .548-1.024 4.312 4.312 0 0 0-4.664-1.593.659.659 0 0 0 .32 1.279 3.017 3.017 0 0 1 3.247 1.045.657.657 0 0 0 .549.293z" class="cls-14" data-name="Path 4300" transform="translate(-313.142 -224.802)"/>
                    </g>
                </g>
                <g id="Group_1805" data-name="Group 1805" transform="translate(60.576 95.993)">
                    <g id="Group_1804" data-name="Group 1804">
                        <path id="Path_4301" d="M326.563 238.693a20.68 20.68 0 0 0 2.319-.136.659.659 0 0 0 .58-.731.651.651 0 0 0-.728-.58c-8.675.982-10.38-4.036-10.449-4.251a.66.66 0 0 0-1.26.392c.075.236 1.73 5.306 9.538 5.306z" class="cls-14" data-name="Path 4301" transform="translate(-316.997 -232.537)"/>
                    </g>
                </g>
                <g id="Group_1807" data-name="Group 1807" transform="translate(91.075 189.892)">
                    <g id="Group_1806" data-name="Group 1806">
                        <path id="Path_4302" d="M353.782 510.151l-.345-4.6a.249.249 0 0 1 .229-.266.253.253 0 0 1 .265.228l.343 4.6a.247.247 0 0 1-.228.264h-.019a.246.246 0 0 1-.245-.226zm-.916-12.264l-.343-4.6a.247.247 0 0 1 .228-.266.251.251 0 0 1 .264.228l.343 4.6a.247.247 0 0 1-.228.266h-.019a.248.248 0 0 1-.245-.227zm-.916-12.264l-.343-4.6a.247.247 0 0 1 .228-.266.25.25 0 0 1 .266.228l.343 4.6a.247.247 0 0 1-.228.266h-.016a.248.248 0 0 1-.25-.227zm-.915-12.264l-.345-4.6a.249.249 0 0 1 .229-.266.253.253 0 0 1 .264.228l.343 4.6a.247.247 0 0 1-.228.266h-.019a.247.247 0 0 1-.244-.226zm-.916-12.264l-.343-4.6a.247.247 0 1 1 .492-.038l.343 4.6a.247.247 0 0 1-.228.264h-.019a.247.247 0 0 1-.245-.221zm-.916-12.264l-.343-4.6a.247.247 0 0 1 .228-.266.253.253 0 0 1 .264.228l.345 4.6a.247.247 0 0 1-.228.264h-.019a.248.248 0 0 1-.25-.224zm-.915-12.264l-.345-4.6a.247.247 0 0 1 .228-.266.253.253 0 0 1 .266.228l.343 4.6a.249.249 0 0 1-.228.266h-.019a.246.246 0 0 1-.245-.225zm-.916-12.265l-.343-4.6a.247.247 0 0 1 .493-.036l.343 4.6a.247.247 0 0 1-.228.264h-.019a.247.247 0 0 1-.246-.23zm-.916-12.264l-.343-4.6a.247.247 0 0 1 .228-.264.254.254 0 0 1 .266.228l.343 4.6a.248.248 0 0 1-.229.264h-.021a.248.248 0 0 1-.244-.225zm-.916-12.264l-.343-4.6a.248.248 0 0 1 .494-.037l.343 4.6a.247.247 0 0 1-.228.264h-.019a.248.248 0 0 1-.248-.224zm-.915-12.264l-.345-4.6a.248.248 0 0 1 .494-.038l.343 4.6a.247.247 0 0 1-.228.266h-.019a.247.247 0 0 1-.245-.224zm-.916-12.264l-.343-4.6a.248.248 0 0 1 .228-.266.253.253 0 0 1 .265.228l.345 4.6a.25.25 0 0 1-.229.266h-.018a.248.248 0 0 1-.248-.224zm-.916-12.264l-.343-4.6a.247.247 0 0 1 .228-.266.254.254 0 0 1 .266.228l.343 4.6a.247.247 0 0 1-.228.266h-.019a.248.248 0 0 1-.247-.223zm-.915-12.265l-.345-4.6a.249.249 0 0 1 .229-.266.254.254 0 0 1 .264.228l.343 4.6a.247.247 0 0 1-.228.266h-.019a.247.247 0 0 1-.244-.223zm-.916-12.264l-.343-4.6a.247.247 0 0 1 .228-.264.254.254 0 0 1 .264.228l.343 4.6a.249.249 0 0 1-.228.266h-.019a.247.247 0 0 1-.245-.225zm-.916-12.264l-.343-4.6a.247.247 0 0 1 .228-.264.255.255 0 0 1 .266.228l.343 4.6a.248.248 0 0 1-.228.266h-.019a.248.248 0 0 1-.247-.225zm-.915-12.264l-.345-4.6a.247.247 0 0 1 .228-.264.261.261 0 0 1 .266.228l.343 4.6a.247.247 0 0 1-.228.265h-.019a.246.246 0 0 1-.245-.223zm-.916-12.264l-.343-4.6a.247.247 0 0 1 .228-.264.254.254 0 0 1 .265.228l.343 4.6a.247.247 0 0 1-.228.264h-.019a.247.247 0 0 1-.246-.222z" class="cls-15" data-name="Path 4302" transform="translate(-337.871 -296.8)"/>
                    </g>
                </g>
                <g id="Group_1809" data-name="Group 1809" transform="translate(27.314 189.06)">
                    <g id="Group_1808" data-name="Group 1808">
                        <path id="Path_4303" d="M294.461 509.716a.247.247 0 0 1-.226-.267l.37-4.6a.239.239 0 0 1 .266-.226.246.246 0 0 1 .227.266l-.37 4.6a.247.247 0 0 1-.246.226zm.985-12.259a.247.247 0 0 1-.227-.266l.37-4.6a.241.241 0 0 1 .267-.228.249.249 0 0 1 .226.267l-.37 4.6a.247.247 0 0 1-.247.228zm.985-12.258a.248.248 0 0 1-.227-.266l.371-4.6a.238.238 0 0 1 .266-.227.248.248 0 0 1 .227.267l-.37 4.6a.247.247 0 0 1-.247.228zm.986-12.258a.249.249 0 0 1-.226-.267l.37-4.6a.24.24 0 0 1 .266-.226.248.248 0 0 1 .228.266l-.37 4.6a.247.247 0 0 1-.247.226zm.985-12.259a.247.247 0 0 1-.227-.266l.37-4.6a.243.243 0 0 1 .267-.226.248.248 0 0 1 .226.267l-.37 4.6a.247.247 0 0 1-.247.228zm.986-12.258a.25.25 0 0 1-.228-.267l.371-4.6a.238.238 0 0 1 .266-.226.246.246 0 0 1 .226.266l-.37 4.6a.247.247 0 0 1-.247.226zm.985-12.259a.247.247 0 0 1-.226-.266l.37-4.6a.242.242 0 0 1 .267-.227.249.249 0 0 1 .227.267l-.37 4.6a.247.247 0 0 1-.247.228zm.985-12.258a.247.247 0 0 1-.226-.266l.37-4.6a.238.238 0 0 1 .267-.227.247.247 0 0 1 .227.266l-.37 4.6a.247.247 0 0 1-.247.226zm.986-12.258a.248.248 0 0 1-.226-.267l.37-4.6a.237.237 0 0 1 .266-.227.248.248 0 0 1 .227.267l-.37 4.6a.247.247 0 0 1-.247.228zm.985-12.259a.246.246 0 0 1-.226-.266l.37-4.6a.242.242 0 0 1 .267-.226.248.248 0 0 1 .226.266l-.371 4.6a.247.247 0 0 1-.246.228zm.986-12.258a.25.25 0 0 1-.228-.267l.37-4.6a.24.24 0 0 1 .267-.227.247.247 0 0 1 .227.266l-.37 4.6a.247.247 0 0 1-.247.227zm.985-12.259a.246.246 0 0 1-.227-.266l.37-4.6a.24.24 0 0 1 .266-.226.248.248 0 0 1 .227.267l-.37 4.6a.247.247 0 0 1-.247.228zm.985-12.258a.248.248 0 0 1-.227-.267l.37-4.6a.242.242 0 0 1 .267-.227.247.247 0 0 1 .227.266l-.371 4.6a.247.247 0 0 1-.245.227zm.986-12.259a.246.246 0 0 1-.227-.266l.37-4.6a.242.242 0 0 1 .266-.226.246.246 0 0 1 .227.266l-.37 4.6a.247.247 0 0 1-.247.228zm.985-12.258a.246.246 0 0 1-.226-.266l.37-4.6a.244.244 0 0 1 .266-.226.247.247 0 0 1 .227.266l-.37 4.6a.248.248 0 0 1-.245.228zm.985-12.258a.248.248 0 0 1-.227-.266l.37-4.6a.237.237 0 0 1 .266-.226.248.248 0 0 1 .228.266l-.37 4.6a.248.248 0 0 1-.247.228zm.985-12.259a.247.247 0 0 1-.227-.266l.371-4.6a.239.239 0 0 1 .266-.227.248.248 0 0 1 .226.267l-.37 4.6a.248.248 0 0 1-.247.228zm.986-12.258a.247.247 0 0 1-.226-.266l.37-4.6a.241.241 0 0 1 .266-.226.246.246 0 0 1 .227.266l-.37 4.6a.247.247 0 0 1-.245.228z" class="cls-15" data-name="Path 4303" transform="translate(-294.233 -296.23)"/>
                    </g>
                </g>
                <g id="Group_1811" data-name="Group 1811" transform="translate(26.274 134.09)">
                    <g id="Group_1810" data-name="Group 1810">
                        <path id="Path_4304" d="M339.622 289.087a.248.248 0 0 0 0-.5c-.4 0-40.118-.1-44.608-5.231-4.445-5.079 7.221-24.182 7.339-24.375a.247.247 0 0 0-.421-.259c-.491.8-11.973 19.609-7.291 24.96 4.636 5.3 43.335 5.4 44.981 5.4z" class="cls-15" data-name="Path 4304" transform="translate(-293.522 -258.61)"/>
                    </g>
                </g>
                <g id="Group_1813" data-name="Group 1813" transform="translate(56.095 111.613)">
                    <g id="Group_1812" data-name="Group 1812">
                        <path id="Path_4305" d="M324.452 253.642c.283 0 .573-.009.872-.031 9.322-.666 10.763-10.008 10.776-10.1a.247.247 0 1 0-.489-.07c-.013.089-1.4 9.04-10.322 9.677s-10.849-9.046-10.868-9.144a.247.247 0 1 0-.485.092c.017.098 1.919 9.576 10.516 9.576z" class="cls-15" data-name="Path 4305" transform="translate(-313.931 -243.227)"/>
                    </g>
                </g>
            </g>
        </g>
        <g id="Group_1818" class="cls-18" data-name="Group 1818" transform="translate(1057.35 658.438)">
            <g id="Group_1817" data-name="Group 1817">
                <g id="Group_1816" data-name="Group 1816">
                    <path id="Path_4306" fill="#ffc7b9" d="M1009.657 437.778V579.81l-111.945-56.016a15.96 15.96 0 0 1-.149-28.362z" data-name="Path 4306" transform="translate(-889 -437.778)"/>
                </g>
            </g>
        </g>
        <g id="Group_1821" class="cls-18" data-name="Group 1821" transform="translate(128.78 103.466)">
            <g id="Group_1820" data-name="Group 1820">
                <g id="Group_1819" data-name="Group 1819">
                    <path id="Path_4307" d="M89.993 220.866L0 265.909V154.981l90.1 46.347a11 11 0 0 1-.107 19.538z" class="cls-8" data-name="Path 4307" transform="translate(0 -154.981)"/>
                </g>
            </g>
        </g>
        <g id="Group_1824" class="cls-18" data-name="Group 1824" transform="translate(964.886 214.441)">
            <g id="Group_1823" data-name="Group 1823">
                <g id="Group_1822" data-name="Group 1822">
                    <path id="Path_4308" d="M800.213 236.789l39.742-19.889a3.97 3.97 0 0 1 5.721 3.6l.1 40.382a3.969 3.969 0 0 1-5.759 3.6l-39.842-20.492a4.052 4.052 0 0 1 .038-7.201z" class="cls-1" data-name="Path 4308" transform="translate(-798.001 -216.481)"/>
                </g>
            </g>
        </g>
        <g id="Group_1827" class="cls-18" data-name="Group 1827" transform="translate(89.707 550.923)">
            <g id="Group_1826" data-name="Group 1826">
                <g id="Group_1825" data-name="Group 1825">
                    <path id="Path_4309" d="M118.353 458.789l39.742-19.889a3.97 3.97 0 0 1 5.721 3.6l.1 40.382a3.97 3.97 0 0 1-5.76 3.6l-39.841-20.492a4.052 4.052 0 0 1 .038-7.201z" class="cls-1" data-name="Path 4309" transform="translate(-116.141 -438.481)"/>
                </g>
            </g>
        </g>
    </g>
</svg>
