<svg xmlns="http://www.w3.org/2000/svg" width="107" height="90" viewBox="0 0 107 90">
    <g id="Group_2064" data-name="Group 2064" transform="translate(-398 -1231)">
        <rect id="Rectangle_908" width="70" height="70" fill="#edf1ff" data-name="Rectangle 908" rx="35" transform="translate(435 1231)"/>
        <g id="ic-medicine-patch" transform="translate(398 1241)">
            <path id="Rectangle_319" fill="none" d="M0 0H80V80H0z" data-name="Rectangle 319"/>
            <g id="ic-medicine-patch-2" data-name="ic-medicine-patch" transform="translate(5.351 5.309)">
                <path id="Path_712" fill="#f53d2d" d="M61.491 36.416l6.6-6.578a10.1 10.1 0 0 0 0-14.3L57.362 4.807a10.177 10.177 0 0 0-14.35 0l-6.6 6.612-6.6-6.747a10.177 10.177 0 0 0-14.35 0L4.732 15.535a10.1 10.1 0 0 0 0 14.3l6.6 6.578-6.6 6.747a10.1 10.1 0 0 0 0 14.3l10.729 10.699a10.2 10.2 0 0 0 14.35-.034l6.6-6.713 6.6 6.747a10.2 10.2 0 0 0 14.35-.034l10.73-10.693a10.1 10.1 0 0 0 0-14.3zM47.783 9.6a3.392 3.392 0 0 1 4.806 0l10.9 10.694a3.366 3.366 0 0 1 0 4.79l-6.769 6.578-15.536-15.487zm4.163 26.987L36.411 51.9 20.876 36.416l15.535-15.484zM9.5 25.047a3.372 3.372 0 0 1 0-4.756L20.233 9.6a3.392 3.392 0 0 1 4.806 0l6.6 6.747L16.1 31.659zM25.039 63.4a3.392 3.392 0 0 1-4.806 0L9.5 52.54a3.366 3.366 0 0 1 0-4.79l6.769-6.578 15.37 15.484zm38.449-10.86L52.589 63.4a3.392 3.392 0 0 1-4.806 0l-6.6-6.747 15.536-15.481 6.6 6.747a3.433 3.433 0 0 1 .169 4.622z" data-name="Path 712" transform="translate(-1.763 -1.713)"/>
            </g>
        </g>
    </g>
</svg>
