<svg xmlns="http://www.w3.org/2000/svg" width="100" height="89" viewBox="0 0 100 89">
    <g id="Group_2065" data-name="Group 2065" transform="translate(-805 -1232)">
        <rect id="Rectangle_909" width="70" height="70" fill="#dfffe0" data-name="Rectangle 909" rx="20" transform="translate(835 1232)"/>
        <g id="ic-shopping-bag" transform="translate(805 1241)">
            <path id="Rectangle_215" fill="none" d="M0 0H80V80H0z" data-name="Rectangle 215"/>
            <g id="Layer" transform="translate(4.807 6.622)">
                <g id="Vrstva_281" data-name="Vrstva 281">
                    <path id="Path_451" fill="#f53d2d" d="M36.633 68.729h-25.1a10 10 0 0 1-10-8.433 12.6 12.6 0 0 1 .333-4.733C3.033 49.9 4.166 44.2 5.2 38.529 6.266 33.4 7.266 28.262 8.333 23.162a10 10 0 0 1 8.833-7.762H20.9a.567.567 0 0 0 .567-.333C22.633 12.862 23.7 10.629 25 8.4a13.067 13.067 0 0 1 10-6.3 13.633 13.633 0 0 1 14 7.4l2.9 5.5a.5.5 0 0 0 .533.3h3.733a10 10 0 0 1 8.7 7.767C66 28.5 67.1 33.962 68.2 39.429S70.466 50.6 71.533 56.1a9.986 9.986 0 0 1-9.7 12.4zm0-6.667h24.933a3.333 3.333 0 0 0 3.334-4.233c-.6-2.829-1.167-5.667-1.734-8.529l-5-24.533a3.333 3.333 0 0 0-3.333-2.7H18.166a3.333 3.333 0 0 0-3.333 2.7c-.333 1.7-.7 3.333-1.033 5.1Q11 43.7 8.132 57.562a4.333 4.333 0 0 0 0 2.167 3.333 3.333 0 0 0 3.333 2.333zm7.7-46.667a1.533 1.533 0 0 0 0-.3l-1.5-2.767A7.067 7.067 0 0 0 33.3 9.6a7.533 7.533 0 0 0-2.867 3c-.467.933-.967 1.833-1.467 2.8z" data-name="Path 451" transform="translate(-1.443 -1.973)"/>
                </g>
            </g>
        </g>
    </g>
</svg>
