<svg xmlns="http://www.w3.org/2000/svg" width="104.996" height="88.999" viewBox="0 0 104.996 88.999">
    <g id="Group_2066" data-name="Group 2066" transform="translate(-1200 -1232.001)">
        <path id="Subtraction_18" fill="#d2fff4" d="M70 0H0a69.534 69.534 0 0 0 5.5 27.25 69.745 69.745 0 0 0 15 22.25 69.578 69.578 0 0 0 22.256 15A69.457 69.457 0 0 0 70 70V0z" data-name="Subtraction 18" transform="rotate(180 652.498 651.001)"/>
        <g id="ic-users-confirm" transform="translate(1200 1241)">
            <path id="Rectangle_269" fill="none" d="M0 0H80V80H0z" data-name="Rectangle 269"/>
            <g id="Vrstva_436" data-name="Vrstva 436" transform="translate(6.667 2.499)">
                <path id="Path_545" fill="#f53d2d" fill-rule="evenodd" d="M35.333 7.418a10 10 0 1 0 10 10 10 10 0 0 0-10-10zM2 60.751a33.333 33.333 0 0 1 21.8-31.3 16.667 16.667 0 1 1 11.533 4.633A26.667 26.667 0 0 0 8.667 60.751v3.333a3.333 3.333 0 1 1-6.667 0zm33.333-5a13.333 13.333 0 1 1 13.334 13.334 13.333 13.333 0 0 1-13.334-13.334zm13.333-20a20 20 0 1 0 20 20 20 20 0 0 0-19.999-20zm9.567 17.367a3.394 3.394 0 0 0-4.733-4.867l-7.533 7.667-2.067-2.233a3.349 3.349 0 1 0-4.9 4.566l3.933 4.3a4.033 4.033 0 0 0 5.8 0z" data-name="Path 545" transform="translate(-2 -.749)"/>
            </g>
        </g>
    </g>
</svg>
