<svg xmlns="http://www.w3.org/2000/svg" width="535.048" height="359.924" viewBox="0 0 535.048 359.924">
    <defs>
        <linearGradient id="linear-gradient" x1="3.188" x2="2.122" y1=".287" y2=".722" gradientUnits="objectBoundingBox">
            <stop offset="0" stop-color="#f57939"/>
            <stop offset="1" stop-color="#fffb4d"/>
        </linearGradient>
        <style>
            .cls-1{fill:#ffd6d6}.cls-2{fill:#ffa5a5}.cls-3{fill:#004d54}.cls-4{fill:#fff}.cls-5{fill:#121841}.cls-6{fill:#f57408}.cls-7{fill:#e4edff}.cls-8{fill:#698bfd}.cls-10{fill:#1f1a15}.cls-13{fill:#fabf44}.cls-15{fill:#0e1b29}.cls-16{fill:#fc7575}.cls-20{fill:#6b6e99}.cls-21{fill:#fd5e5a}.cls-23{fill:#ed1e79}.cls-24{fill:#1b3753}.cls-26{fill:#99d7ff}
        </style>
    </defs>
    <g id="Group_1840" data-name="Group 1840" transform="translate(-130.98 -1448.081)">
        <path id="Path_4310" d="M392.621 1534.055s-250.749 4.482-212.349 119.955 317.391 165.605 355.5 154.939 134.264-259.649-143.151-274.894z" class="cls-1" data-name="Path 4310" transform="translate(-1.235 -2.344)"/>
        <g id="Group_1830" data-name="Group 1830" transform="translate(370.721 1502.248)">
            <rect id="Rectangle_928" width="224.545" height="153.272" class="cls-2" data-name="Rectangle 928" rx="3.478"/>
            <path id="Rectangle_929" d="M3.477 0h217.59a3.478 3.478 0 0 1 3.478 3.478v7.728a3.478 3.478 0 0 1-3.478 3.478H3.478A3.478 3.478 0 0 1 0 11.207v-7.73A3.477 3.477 0 0 1 3.477 0z" class="cls-3" data-name="Rectangle 929"/>
            <path id="Rectangle_930" d="M0 0H55.628V86.716H0z" class="cls-1" data-name="Rectangle 930" transform="translate(20.664 29.462)"/>
            <path id="Rectangle_931" d="M0 0H118.256V4.875H0z" class="cls-1" data-name="Rectangle 931" transform="translate(91.865 29.462)"/>
            <path id="Rectangle_932" d="M0 0H118.256V5.639H0z" class="cls-1" data-name="Rectangle 932" transform="translate(91.865 39.776)"/>
            <path id="Rectangle_933" d="M0 0H149.281V8.034H0z" class="cls-4" data-name="Rectangle 933" transform="translate(8.4 4.112)"/>
            <path id="Path_4311" d="M583.608 1514.948a1.236 1.236 0 1 1-1.236-1.236 1.236 1.236 0 0 1 1.236 1.236z" class="cls-4" data-name="Path 4311" transform="translate(-382.997 -1504.038)"/>
            <path id="Path_4312" d="M586.688 1514.948a1.236 1.236 0 1 1-1.236-1.236 1.236 1.236 0 0 1 1.236 1.236z" class="cls-4" data-name="Path 4312" transform="translate(-383.081 -1504.038)"/>
            <path id="Path_4313" d="M589.767 1514.948a1.236 1.236 0 1 1-1.236-1.236 1.236 1.236 0 0 1 1.236 1.236z" class="cls-4" data-name="Path 4313" transform="translate(-383.165 -1504.038)"/>
            <path id="Path_4314" d="M537.4 1514.606l-1.187-2.05a2.16 2.16 0 0 0 .792-1.686 2.017 2.017 0 1 0-2.014 2.123 1.9 1.9 0 0 0 .779-.165l.84 2.2a.448.448 0 0 0 .033.069.432.432 0 0 0 .61.157.483.483 0 0 0 .147-.648zm-3.939-3.735a1.532 1.532 0 1 1 1.53 1.613 1.576 1.576 0 0 1-1.534-1.614z" class="cls-5" data-name="Path 4314" transform="translate(-381.683 -1503.902)"/>
            <path id="Rectangle_934" d="M0 0H12.616V7.612H0z" class="cls-6" data-name="Rectangle 934" transform="translate(163.814 4.112)"/>
            <path id="Rectangle_935" d="M0 0H103.896V93.036H0z" class="cls-7" data-name="Rectangle 935" transform="translate(101.47 53.59)"/>
            <path id="Rectangle_936" d="M0 0H41.145V39.329H0z" class="cls-4" data-name="Rectangle 936" transform="translate(112.273 68.392)"/>
            <path id="Rectangle_937" d="M0 0H41.145V32.683H0z" class="cls-4" data-name="Rectangle 937" transform="translate(162.462 113.943)"/>
            <path id="Rectangle_938" d="M0 0H50.282V4.229H0z" class="cls-6" data-name="Rectangle 938" transform="translate(129.39 58.242)"/>
            <path id="Rectangle_939" d="M0 0H42.965V2.115H0z" class="cls-8" data-name="Rectangle 939" transform="translate(160.642 68.392)"/>
            <path id="Rectangle_940" d="M0 0H42.965V2.115H0z" class="cls-8" data-name="Rectangle 940" transform="translate(160.642 72.057)"/>
            <path id="Rectangle_941" d="M0 0H42.965V2.115H0z" class="cls-8" data-name="Rectangle 941" transform="translate(160.642 75.722)"/>
            <path id="Rectangle_942" d="M0 0H42.965V2.115H0z" class="cls-8" data-name="Rectangle 942" transform="translate(160.642 79.387)"/>
            <path id="Rectangle_943" d="M0 0H42.965V2.114H0z" class="cls-8" data-name="Rectangle 943" transform="translate(160.642 83.053)"/>
            <path id="Rectangle_944" d="M0 0H42.965V2.115H0z" class="cls-8" data-name="Rectangle 944" transform="translate(160.642 86.717)"/>
            <path id="Rectangle_945" d="M0 0H42.965V2.115H0z" class="cls-8" data-name="Rectangle 945" transform="translate(160.642 90.382)"/>
            <path id="Rectangle_946" d="M0 0H42.965V2.114H0z" class="cls-8" data-name="Rectangle 946" transform="translate(160.642 94.048)"/>
            <path id="Rectangle_947" d="M0 0H42.965V2.115H0z" class="cls-8" data-name="Rectangle 947" transform="translate(160.642 97.713)"/>
            <path id="Rectangle_948" d="M0 0H42.965V2.115H0z" class="cls-8" data-name="Rectangle 948" transform="translate(160.642 101.378)"/>
            <path id="Rectangle_949" d="M0 0H42.965V2.115H0z" class="cls-8" data-name="Rectangle 949" transform="translate(160.642 105.042)"/>
        </g>
        <g id="Group_1831" data-name="Group 1831" transform="translate(441.483 1604.28)">
            <path id="Rectangle_950" d="M3.478 0h217.589a3.477 3.477 0 0 1 3.477 3.477v146.318a3.477 3.477 0 0 1-3.477 3.477H3.477A3.477 3.477 0 0 1 0 149.795V3.478A3.478 3.478 0 0 1 3.478 0z" class="cls-2" data-name="Rectangle 950"/>
            <rect id="Rectangle_951" width="224.545" height="14.684" class="cls-3" data-name="Rectangle 951" rx="3.477"/>
            <path id="Rectangle_952" d="M0 0H55.628V86.716H0z" class="cls-1" data-name="Rectangle 952" transform="translate(20.664 29.462)"/>
            <path id="Rectangle_953" d="M0 0H118.256V4.875H0z" class="cls-1" data-name="Rectangle 953" transform="translate(91.864 29.462)"/>
            <path id="Rectangle_954" d="M0 0H118.256V5.639H0z" class="cls-1" data-name="Rectangle 954" transform="translate(91.864 39.776)"/>
            <path id="Rectangle_955" d="M0 0H149.282V8.035H0z" class="cls-4" data-name="Rectangle 955" transform="translate(8.4 4.112)"/>
            <path id="Path_4315" d="M656.354 1619.84a1.237 1.237 0 1 1-1.237-1.236 1.237 1.237 0 0 1 1.237 1.236z" class="cls-4" data-name="Path 4315" transform="translate(-455.742 -1608.93)"/>
            <path id="Path_4316" d="M659.433 1619.84a1.236 1.236 0 1 1-1.236-1.236 1.236 1.236 0 0 1 1.236 1.236z" class="cls-4" data-name="Path 4316" transform="translate(-455.826 -1608.93)"/>
            <path id="Path_4317" d="M662.512 1619.84a1.236 1.236 0 1 1-1.236-1.236 1.236 1.236 0 0 1 1.236 1.236z" class="cls-4" data-name="Path 4317" transform="translate(-455.91 -1608.93)"/>
            <path id="Path_4318" d="M610.142 1619.5l-1.188-2.049a2.161 2.161 0 0 0 .793-1.686 2.017 2.017 0 1 0-2.015 2.124 1.92 1.92 0 0 0 .779-.165l.84 2.2a.641.641 0 0 0 .032.069.431.431 0 0 0 .611.155.483.483 0 0 0 .148-.648zm-3.94-3.735a1.532 1.532 0 1 1 1.53 1.613 1.575 1.575 0 0 1-1.532-1.616z" class="cls-5" data-name="Path 4318" transform="translate(-454.429 -1608.795)"/>
            <path id="Rectangle_956" d="M0 0H12.616V7.612H0z" class="cls-6" data-name="Rectangle 956" transform="translate(163.813 4.112)"/>
            <path id="Rectangle_957" d="M0 0H103.896V93.036H0z" class="cls-7" data-name="Rectangle 957" transform="translate(101.47 53.59)"/>
            <path id="Rectangle_958" d="M0 0H41.145V39.329H0z" class="cls-4" data-name="Rectangle 958" transform="translate(112.272 68.392)"/>
            <path id="Rectangle_959" d="M0 0H41.145V32.683H0z" class="cls-4" data-name="Rectangle 959" transform="translate(162.461 113.943)"/>
            <path id="Rectangle_960" d="M0 0H50.282V4.229H0z" class="cls-6" data-name="Rectangle 960" transform="translate(129.39 58.242)"/>
            <path id="Rectangle_961" d="M0 0H42.965V2.115H0z" class="cls-8" data-name="Rectangle 961" transform="translate(160.642 68.392)"/>
            <path id="Rectangle_962" d="M0 0H42.965V2.115H0z" class="cls-8" data-name="Rectangle 962" transform="translate(160.642 72.057)"/>
            <path id="Rectangle_963" d="M0 0H42.965V2.115H0z" class="cls-8" data-name="Rectangle 963" transform="translate(160.642 75.722)"/>
            <path id="Rectangle_964" d="M0 0H42.965V2.115H0z" class="cls-8" data-name="Rectangle 964" transform="translate(160.642 79.387)"/>
            <path id="Rectangle_965" d="M0 0H42.965V2.115H0z" class="cls-8" data-name="Rectangle 965" transform="translate(160.642 83.052)"/>
            <path id="Rectangle_966" d="M0 0H42.965V2.114H0z" class="cls-8" data-name="Rectangle 966" transform="translate(160.642 86.717)"/>
            <path id="Rectangle_967" d="M0 0H42.965V2.115H0z" class="cls-8" data-name="Rectangle 967" transform="translate(160.642 90.382)"/>
            <path id="Rectangle_968" d="M0 0H42.965V2.115H0z" class="cls-8" data-name="Rectangle 968" transform="translate(160.642 94.047)"/>
            <path id="Rectangle_969" d="M0 0H42.965V2.114H0z" class="cls-8" data-name="Rectangle 969" transform="translate(160.642 97.713)"/>
            <path id="Rectangle_970" d="M0 0H42.965V2.115H0z" class="cls-8" data-name="Rectangle 970" transform="translate(160.642 101.378)"/>
            <path id="Rectangle_971" d="M0 0H42.965V2.115H0z" class="cls-8" data-name="Rectangle 971" transform="translate(160.642 105.042)"/>
        </g>
        <g id="Group_1835" data-name="Group 1835" transform="translate(227.379 1567.644)">
            <ellipse id="Ellipse_165" cx="98.211" cy="10.628" fill="#2846a6" data-name="Ellipse 165" rx="98.211" ry="10.628" transform="translate(0 207.283)"/>
            <path id="Path_4319" d="M347.1 1793.97h3.9l15.515-66.82-5.648-.3z" class="cls-10" data-name="Path 4319" transform="translate(-233.273 -1575.246)"/>
            <path id="Path_4320" d="M411.552 1795.209h-3.9l-15.515-66.821 5.648-.3z" class="cls-10" data-name="Path 4320" transform="translate(-234.501 -1575.28)"/>
            <path id="Path_4321" d="M304.348 1787.8h-3.9l-15.515-66.821 5.648-.3z" class="cls-10" data-name="Path 4321" transform="translate(-231.578 -1575.078)"/>
            <path id="Path_4322" d="M251.679 1792.46h3.9l15.515-66.822-5.648-.3z" class="cls-10" data-name="Path 4322" transform="translate(-230.671 -1575.205)"/>
            <path id="Path_4323" fill="#450000" d="M254.647 1673.764v49.148c0 3.881 3.7 7.027 8.266 7.027h126.919c4.565 0 8.265-3.146 8.265-7.027v-49.148c0-3.881-3.7-7.028-8.265-7.028H262.913c-4.565 0-8.266 3.147-8.266 7.028z" data-name="Path 4323" transform="translate(-230.752 -1573.607)"/>
            <path id="Path_4324" fill="url(#linear-gradient)" d="M262.913 1666.736c4.564 0 8.265 3.147 8.265 7.028v30.718c0 3.88 3.7 7.027 8.264 7.027H329.7c4.388 0 7.977-2.908 8.249-6.58.022-42.71.015-27.98.017-31.165 0-3.881 3.7-7.028 8.265-7.028h43.6c4.565 0 8.265 3.147 8.265 7.028v49.148c0 3.881-3.7 7.027-8.265 7.027H262.913c-4.565 0-8.266-3.146-8.266-7.027v-49.148c0-3.881 3.701-7.028 8.266-7.028z" data-name="Path 4324" transform="translate(-230.752 -1573.607)"/>
            <g id="Group_1832" data-name="Group 1832" transform="translate(98.948 93.129)">
                <path id="Path_4327" d="M340.053 1704.929l.017-30.677v-.489c0-3.881 3.7-7.028 8.265-7.028h43.6c4.565 0 8.265 3.147 8.265 7.028v49.148c0 3.881-3.7 7.027-8.265 7.027h-59.7l-.437-18.43c4.394.001 7.983-2.908 8.255-6.579z" class="cls-13" data-name="Path 4327" transform="translate(-331.804 -1666.736)"/>
            </g>
            <path id="Path_4328" fill="#f15a24" d="M367.755 1729.939h24.936c4.565 0 8.265-3.146 8.265-7.027v-49.148c0-3.881-3.7-7.028-8.265-7.028h-24.936c-4.564 0-8.265 3.147-8.265 7.028v49.148c0 3.881 3.701 7.027 8.265 7.027z" data-name="Path 4328" transform="translate(-233.611 -1573.607)"/>
            <g id="Group_1834" data-name="Group 1834" transform="translate(40.419)">
                <g id="Group_1833" data-name="Group 1833">
                    <path id="Path_4329" d="M328.047 1571.9s-13.365-2.28-18.039 6.952-4.234 30.1 2.128 35.51 5.3 19.252 10.877 23.34 19.776 5.935 19.776-3.692c0 0-6.921 1.172-8.674-4.821 0 0 9.933 4.655 14.787-2.449s-5.574-7.763-5.574-7.763 4.1 2.011-2.016.955-2.122-2.58-2.122-7.748 3.778-1.515 2.7-11.009-9.29-29.603-13.843-29.275z" class="cls-15" data-name="Path 4329" transform="translate(-272.595 -1571.014)"/>
                    <path id="Path_4330" d="M295.367 1781.368l-1.3 9.048s-2.413 6.837-2.413 7.842c0 .664 1.135 6.058 4.155 6.969 1.549.466 7.889-6.453 8.731-9.582.985-3.657-1.425-15.081-1.425-15.081z" class="cls-16" data-name="Path 4330" transform="translate(-272.18 -1576.711)"/>
                    <path id="Path_4331" d="M316.827 1779.737s-1.721 13.272-1.721 15.281-.273 4.9.861 6.032 11.316-2.211 11.316-5.83-2.212-15.483-2.212-15.483z" class="cls-16" data-name="Path 4331" transform="translate(-272.819 -1576.689)"/>
                    <path id="Path_4332" fill="#ffda88" d="M338.322 1656.561c0-9.061-.375-38.535-.375-38.535s-5.357-3.631-16.084-3.631c-3.449 0-6.62-.589-10.054.035a63.8 63.8 0 0 0-13.829 4.416s2.222 27.807-1.252 46.792a5.481 5.481 0 0 0 5.416 6.432h33.89a3.7 3.7 0 0 0 3.649-4.309 83.143 83.143 0 0 1-1.361-11.2z" data-name="Path 4332" transform="translate(-272.316 -1572.173)"/>
                    <path id="Path_4333" fill="#464a7f" d="M299.789 1673.09c-5.5 4.257-6.669 5.723-8.233 7.641-12.206 14.981-8.692 35.324-3.144 34.559s17.014-2.75 25.891-.9 28.85 1.3 30.7-5.917c1.232-4.8-5.334-21.523-8.888-34.795z" data-name="Path 4333" transform="translate(-271.953 -1573.78)"/>
                    <path id="Path_4334" fill="#35385f" d="M318.7 1692.353l-4.153 6.519c-2.043 4.674-.851 15.868-.851 15.868l-18.249-.924-.868-17.195z" data-name="Path 4334" transform="translate(-272.26 -1574.306)"/>
                    <path id="Path_4335" d="M316.019 1698.623s10.357-1.11 14.24 2.773-3.514 56.776-2.588 59.735 5.363 2.589 2.773 5.178-3.236 4.346-2.034 5.548 1.664 2.959.554 4.069-1.48 4.068-1.48 4.068h-12.4s-.919-7.583-.919-8.877-1.48-4.993-1.48-4.993 4.616-2.406 2.4-4.623 0-5.548 0-10.357-6.833-51.597.934-52.521z" class="cls-20" data-name="Path 4335" transform="translate(-272.743 -1574.473)"/>
                    <path id="Path_4336" d="M283.846 1698.4c3.584-3.583 9.375-4.031 15.108 0s3.7 14.017 3.7 23.078-.593 31.44.351 34.214 3.9 5.548 2.794 8.507-1.666 2.341.245 4.253.864 3.33.864 5.364-.924 8.323-.924 8.323h-11.838s-.555-11.282-3.514-15.72-.74-14.055-.74-15.533-3.7-3.33-3.7-9.8-4.292-40.744-2.346-42.686z" class="cls-20" data-name="Path 4336" transform="translate(-271.953 -1574.392)"/>
                    <path id="Path_4337" d="M298.436 1618.978a82.752 82.752 0 0 0-5.065 12c-2.959 8.323 2.017 41.3 2.017 46.851s6.958 12.52 6.958 12.52l5.918-6.658-3.884-24.041z" class="cls-21" data-name="Path 4337" transform="translate(-272.201 -1572.305)"/>
                    <path id="Path_4338" d="M338.852 1618.135s8.53 2.1 11.133 13.939 4.718 39.576 3.9 42.9-22.265 13.623-22.265 13.623l-1.813-3.636s16.269-14.055 16.269-16.089-6.963-27.493-6.963-27.493z" class="cls-21" data-name="Path 4338" transform="translate(-273.221 -1572.282)"/>
                    <path id="Path_4339" fill="#241145" d="M271.634 1661.491l4.809 34.125 59.919-2.131-1.186-34.211z" data-name="Path 4339" transform="translate(-271.634 -1573.404)"/>
                    <path id="Path_4340" d="M304.213 1796.972c-5.585 3.536-9.739 3.165-12.552 1.816.074.937 1.232 6.007 4.152 6.887 1.416.425 6.838-5.323 8.4-8.703z" class="cls-23" data-name="Path 4340" transform="translate(-272.18 -1577.159)"/>
                    <path id="Path_4341" d="M327.283 1795.558a31.691 31.691 0 0 0-.279-3.413c-3.223 2.9-7.526 4.805-11.688.551-.127 1.252-.209 2.225-.209 2.661 0 2.012-.273 4.9.861 6.032s11.315-2.211 11.315-5.831z" class="cls-23" data-name="Path 4341" transform="translate(-272.819 -1577.027)"/>
                    <path id="Path_4342" d="M328.378 1600.152s-.464 1.021-1.17 2.623c-2.446 5.548-.89 14.058-.766 15.537.247 2.972-1.342 9.052-1.342 9.052s-11.62-8.129-12.278-13.469l6.3-19.3z" class="cls-16" data-name="Path 4342" transform="translate(-272.757 -1571.64)"/>
                    <path id="Path_4343" d="M319.266 1594.6l9.255 5.555s-.466 1.024-1.17 2.623c-3.258-.9-8.232-2.54-9.311-4.424z" class="cls-21" data-name="Path 4343" transform="translate(-272.9 -1571.64)"/>
                    <path id="Path_4344" d="M321.6 1578.236l13.978 7.714a2.878 2.878 0 0 0 2.9-3.164c0-3.23-3.56-6.4-7.187-8.242a33.852 33.852 0 0 0-8.175-2.643z" class="cls-15" data-name="Path 4344" transform="translate(-272.997 -1571.021)"/>
                    <path id="Path_4345" d="M326.555 1574.821s5.406.923 6.858 3.495 1.845 8.7 3.3 10.154a6.6 6.6 0 0 0 2.714 1.768s.384.67-1.066 1.395-.352 1.518.549 1.518.144 1.715-.549 1.912a1 1 0 0 1 .726 1.12c-.165.857-.593 1.022-.593 1.022a5.556 5.556 0 0 0 .416 2.175c.462 1.055-.658 4.187-7.735 2.8 0 0-10.518-2.473-11.145-5.439s-5.3-13.75-1.317-17.739 7.842-4.181 7.842-4.181z" class="cls-16" data-name="Path 4345" transform="translate(-272.875 -1571.1)"/>
                    <path id="Path_4346" d="M321.788 1571.712s1.318-1.715 7.912.164 8.5 9.337 8.5 9.337-4.246-2.87-6.916-2.87-8.712-1.014-9.692-1.994.196-4.637.196-4.637z" class="cls-24" data-name="Path 4346" transform="translate(-272.986 -1570.996)"/>
                    <path id="Path_4347" d="M322.833 1571.115c.921 0 6.249 6.638 4.666 11.583s-5.339 2.736-7.714 4.054.459 7.418.031 9.891-7.088 16.613-7.088 16.613-5.6-29.9-2.205-35.435 12.31-6.706 12.31-6.706z" class="cls-24" data-name="Path 4347" transform="translate(-272.665 -1570.999)"/>
                    <path id="Path_4348" d="M329.9 1592.289c0 .738 1.239 1.336 2.768 1.336s2.767-.6 2.767-1.336-1.239-1.338-2.767-1.338-2.768.599-2.768 1.338z" class="cls-21" data-name="Path 4348" transform="translate(-273.223 -1571.54)"/>
                    <path id="Path_4349" d="M336.606 1586.344s-.909 1.826-4.61 1.741z" class="cls-24" data-name="Path 4349" transform="translate(-273.28 -1571.415)"/>
                    <path id="Path_4350" d="M335.461 1585.4a6.008 6.008 0 0 0-2.44-.821c-1.066 0-2.05.431-2.05.821a4.362 4.362 0 0 1 2.09-.41c.922.143 1.353.853 1.723.853s.677-.443.677-.443z" class="cls-24" data-name="Path 4350" transform="translate(-273.252 -1571.367)"/>
                    <path id="Path_4351" d="M318.91 1591.886s5.126 11.881-5.17 25.155-24.267 7.9-26.148 2.527 4.7-7.211 4.7-7.211-1.255 6.08 2.088 5.792 4.5-1.076 3.154-7.62 3.514-3.92 6.188-8.206 0-7.556 0-12.619 6.2-11.693 6.2-11.693z" class="cls-24" data-name="Path 4351" transform="translate(-272.06 -1571.188)"/>
                    <path id="Path_4352" d="M320.721 1587.707s-1.909-4.155-2.8-3.265-1.334 7.022 1.806 7.615.994-4.35.994-4.35z" class="cls-16" data-name="Path 4352" transform="translate(-272.879 -1571.359)"/>
                    <path id="Path_4353" d="M320.628 1588.271s-.983-2.264-1.516-1.73.041 4.1.758 4.1.93-1.229.758-2.37z" class="cls-21" data-name="Path 4353" transform="translate(-272.923 -1571.418)"/>
                    <path id="Path_4354" d="M335.706 1588.253c0 .424-.2.767-.437.767s-.436-.343-.436-.767.195-.769.436-.769.437.345.437.769z" class="cls-24" data-name="Path 4354" transform="translate(-273.358 -1571.446)"/>
                </g>
            </g>
            <path id="Path_4355" fill="#5ca9ff" d="M236.68 1616.684h43.284c1.966 0 3.559 2.365 3.559 5.281v12.288c0 2.916-1.593 5.282-3.559 5.282H278l5.519 16.728-17.267-16.728H236.68c-1.966 0-3.56-2.366-3.56-5.282v-12.288c0-2.916 1.594-5.281 3.56-5.281z" data-name="Path 4355" transform="translate(-230.165 -1572.242)"/>
        </g>
        <g id="Group_1838" data-name="Group 1838" transform="translate(130.98 1448.081)">
            <g id="Group_1836" data-name="Group 1836" transform="translate(299.704 31.574)">
                <path id="Path_4356" d="M444.963 1486.486a1.648 1.648 0 0 1-.9-.265c-1.36-.876-2.766-1.751-4.177-2.6a1.659 1.659 0 1 1 1.71-2.842c1.441.868 2.875 1.76 4.263 2.656a1.658 1.658 0 0 1-.9 3.052z" class="cls-26" data-name="Path 4356" transform="translate(-439.086 -1480.54)"/>
            </g>
            <g id="Group_1837" data-name="Group 1837">
                <path id="Path_4357" d="M216.054 1726.749a1.65 1.65 0 0 1-.787-.2c-3.563-1.923-6.47-3.521-8.639-4.748a1.658 1.658 0 1 1 1.632-2.887c2.152 1.216 5.039 2.8 8.583 4.715a1.659 1.659 0 0 1-.79 3.12zm-20.4-12.587a1.652 1.652 0 0 1-.987-.327c-2.663-1.976-5.283-4.02-7.785-6.076a1.659 1.659 0 0 1 2.106-2.564c2.459 2.021 5.035 4.033 7.655 5.976a1.659 1.659 0 0 1-.989 2.991zm-18.3-15.419a1.658 1.658 0 0 1-1.15-.462c-2.385-2.292-4.717-4.664-6.931-7.052a1.658 1.658 0 0 1 2.432-2.255c2.172 2.34 4.459 4.667 6.8 6.914a1.659 1.659 0 0 1-1.149 2.855zm-16.012-17.77a1.652 1.652 0 0 1-1.313-.644c-2.027-2.621-3.977-5.324-5.8-8.029a1.659 1.659 0 1 1 2.753-1.851c1.779 2.645 3.686 5.287 5.667 7.852a1.658 1.658 0 0 1-1.31 2.672zm-13.033-20.056a1.659 1.659 0 0 1-1.463-.876c-1.558-2.91-3.025-5.906-4.361-8.905a1.659 1.659 0 1 1 3.03-1.35c1.3 2.927 2.734 5.851 4.255 8.689a1.659 1.659 0 0 1-1.461 2.443zm-9.363-22.013a1.659 1.659 0 0 1-1.579-1.15c-1.01-3.134-1.913-6.347-2.688-9.552a1.659 1.659 0 1 1 3.225-.779c.755 3.123 1.637 6.259 2.621 9.314a1.658 1.658 0 0 1-1.579 2.167zm-5.239-23.336a1.658 1.658 0 0 1-1.643-1.444q-.147-1.126-.277-2.259c-.29-2.517-.515-5.078-.666-7.61a1.659 1.659 0 0 1 3.311-.2c.148 2.473.368 4.973.651 7.432q.125 1.107.27 2.2a1.658 1.658 0 0 1-1.428 1.861 1.494 1.494 0 0 1-.213.021zm-1.073-23.9h-.065a1.659 1.659 0 0 1-1.593-1.722c.128-3.273.374-6.6.73-9.881a1.659 1.659 0 1 1 3.3.357c-.347 3.209-.588 6.458-.713 9.653a1.659 1.659 0 0 1-1.654 1.593zm2.924-23.74a1.736 1.736 0 0 1-.338-.034 1.659 1.659 0 0 1-1.288-1.961c.662-3.2 1.445-6.44 2.327-9.626a1.658 1.658 0 1 1 3.2.883c-.862 3.116-1.627 6.285-2.275 9.416a1.659 1.659 0 0 1-1.621 1.321zm6.707-22.967a1.658 1.658 0 0 1-1.551-2.248c1.164-3.066 2.448-6.14 3.814-9.139a1.659 1.659 0 1 1 3.018 1.376c-1.335 2.933-2.59 5.941-3.731 8.941a1.659 1.659 0 0 1-1.545 1.069zm10.216-21.636a1.66 1.66 0 0 1-1.44-2.481c1.625-2.85 3.367-5.689 5.175-8.442a1.659 1.659 0 0 1 2.773 1.823c-1.771 2.693-3.476 5.473-5.067 8.263a1.656 1.656 0 0 1-1.436.836zm13.423-19.812a1.658 1.658 0 0 1-1.3-2.691c2.049-2.576 4.2-5.116 6.409-7.55a1.659 1.659 0 1 1 2.459 2.227c-2.158 2.383-4.267 4.87-6.272 7.389a1.654 1.654 0 0 1-1.291.625zm16.314-17.507a1.657 1.657 0 0 1-1.114-2.886c2.447-2.222 5.015-4.361 7.63-6.359a1.659 1.659 0 1 1 2.015 2.635c-2.542 1.943-5.037 4.021-7.416 6.181a1.656 1.656 0 0 1-1.111.429zm237.711-9.837a1.64 1.64 0 0 1-.737-.174c-2.855-1.42-5.818-2.8-8.8-4.1a1.658 1.658 0 1 1 1.321-3.043c3.041 1.322 6.054 2.725 8.959 4.171a1.658 1.658 0 0 1-.739 3.143zm-218.45-4.318a1.659 1.659 0 0 1-.842-3.088c2.814-1.656 5.758-3.232 8.75-4.686a1.659 1.659 0 1 1 1.449 2.985c-2.913 1.413-5.778 2.947-8.517 4.559a1.647 1.647 0 0 1-.836.23zm196.4-5a1.65 1.65 0 0 1-.554-.1c-3.017-1.07-6.123-2.093-9.235-3.045a1.659 1.659 0 1 1 .97-3.172c3.157.965 6.311 2 9.373 3.089a1.659 1.659 0 0 1-.553 3.223zm-174.727-5.094a1.659 1.659 0 0 1-.56-3.221c3.044-1.092 6.218-2.111 9.433-3.026a1.658 1.658 0 1 1 .909 3.19c-3.143.9-6.246 1.892-9.221 2.96a1.715 1.715 0 0 1-.555.099zm151.773-1.7a1.714 1.714 0 0 1-.393-.047c-3.1-.752-6.294-1.464-9.5-2.121a1.658 1.658 0 1 1 .662-3.25c3.251.663 6.488 1.385 9.623 2.145a1.66 1.66 0 0 1-.389 3.272zm-128.685-4.57a1.659 1.659 0 0 1-.314-3.287c3.155-.615 6.434-1.168 9.747-1.641a1.659 1.659 0 1 1 .469 3.285c-3.257.463-6.48 1.007-9.58 1.613a1.64 1.64 0 0 1-.316.028zm105.19-.047a1.587 1.587 0 0 1-.254-.02c-3.173-.485-6.423-.933-9.658-1.326a1.659 1.659 0 1 1 .4-3.293c3.268.4 6.552.848 9.759 1.341a1.658 1.658 0 0 1-.249 3.3zm-23.792-2.752h-.135c-3.193-.257-6.469-.478-9.739-.655a1.659 1.659 0 0 1 .181-3.314c3.3.181 6.6.4 9.824.661a1.659 1.659 0 0 1-.13 3.312zm-57.663-.379a1.659 1.659 0 0 1-.13-3.312c3.174-.253 6.485-.457 9.842-.606a1.66 1.66 0 0 1 .145 3.316c-3.317.144-6.588.346-9.721.6h-.131zm33.736-.8h-.037c-3.176-.071-6.282-.107-9.234-.107h-.528a1.658 1.658 0 1 1 0-3.317h.528c2.977 0 6.109.035 9.307.1a1.66 1.66 0 0 1-.036 3.319z" class="cls-26" data-name="Path 4357" transform="translate(-130.98 -1448.081)"/>
            </g>
        </g>
        <g id="Group_1839" data-name="Group 1839" transform="translate(423.906 1451.424)">
            <path id="Path_4358" fill="#0a4cfe" d="M492.957 1500.617l-48.873-29.606-11.967 12.206z" data-name="Path 4358" transform="translate(-432.118 -1452.049)"/>
            <path id="Path_4359" d="M444.412 1507.857l.7-22.91 48.18 16.053z" class="cls-26" data-name="Path 4359" transform="translate(-432.453 -1452.429)"/>
            <path id="Path_4360" d="M444.359 1451.518l48.932 48.568-48.873-29.606z" class="cls-26" data-name="Path 4360" transform="translate(-432.451 -1451.518)"/>
            <path id="Path_4361" fill="#0033bf" d="M432.118 1483.56l12.657 1.35-.1 3.327z" data-name="Path 4361" transform="translate(-432.118 -1452.391)"/>
        </g>
    </g>
</svg>
