<svg xmlns="http://www.w3.org/2000/svg" width="427" height="380.552" viewBox="0 0 427 380.552">
    <defs>
        <style>
            .cls-1{fill:#b3ccff}.cls-2{fill:#7e9de0}.cls-3{fill:#b0c2fe}.cls-4{fill:#95a9fe}.cls-5{fill:#fff}.cls-7{fill:#fc7575}.cls-9{fill:#fd5e5a}.cls-10{fill:#2d1e66}.cls-12{fill:#ecd4a3}.cls-15{fill:#385280}.cls-16{fill:#5491ff}.cls-19{fill:#dae6ff}.cls-20{fill:#b3cbff}.cls-21{fill:#f99}.cls-22{fill:#99d7ff}
        </style>
    </defs>
    <g id="Group_1858" data-name="Group 1858" transform="translate(-742.817 -823.94)">
        <path id="Path_4362" d="M918.121 980.417c-9.522 1.141-18.735 2.58-27.448 4.34-58.144 11.726-58.164 30.506-58.2 31.473 0 .786-.089 43.92-.088 43.806l-.042 22.829c.041-18.032 37.64-30.556 85.777-36.076z" class="cls-1" data-name="Path 4362" transform="translate(-8.608 -15.045)"/>
        <path id="Path_4363" d="M1114.814 999.271c-11.964-6.8-28.485-11.377-41.875-14.208-35.013-7.424-79.841-9.9-121.431-7.04v66.441c60.262-4.062 129.8 2.1 163.185 21.063 9.923 5.637 14.619 11.6 14.607 17.467v-.863l.12-64.338c.009-8.713-7.026-14.214-14.606-18.522z" class="cls-1" data-name="Path 4363" transform="translate(-20.066 -14.704)"/>
        <path id="Path_4364" d="M1018.671 984.5c-10.559-.689-21.4-1.053-32.3-1.053-9.51 0-19 .267-28.284.8v54.535c9.829-.542 19.831-.815 29.817-.815 10.612 0 20.893.291 30.767.858z" class="cls-2" data-name="Path 4364" transform="translate(-20.698 -15.336)"/>
        <path id="Path_4365" d="M1078.226 991.294c-10.508-2.13-22.042-3.844-34.194-5.1v54.188c12.242 1.163 23.683 2.795 34.194 4.843z" class="cls-2" data-name="Path 4365" transform="translate(-28.962 -15.601)"/>
        <path id="Path_4366" d="M1127.334 1006.666a95.309 95.309 0 0 0-15.04-6.665v53.608a118.054 118.054 0 0 1 20.794 8.973 61.047 61.047 0 0 1 5.759 3.685l.086-46.255c.005-4.732-3.463-8.724-11.599-13.346z" class="cls-2" data-name="Path 4366" transform="translate(-35.525 -16.928)"/>
        <g id="Group_1843" data-name="Group 1843" transform="translate(1088.653 887.543)">
            <path id="Rectangle_972" d="M1.354 0H79.81a1.354 1.354 0 0 1 1.354 1.354v52.694A1.354 1.354 0 0 1 79.81 55.4H1.353A1.353 1.353 0 0 1 0 54.049V1.354A1.354 1.354 0 0 1 1.354 0z" class="cls-3" data-name="Rectangle 972"/>
            <g id="Group_1842" data-name="Group 1842" transform="translate(12.603 10.691)">
                <rect id="Rectangle_973" width="54.75" height="34.463" class="cls-4" data-name="Rectangle 973" rx="4.014"/>
                <g id="Group_1841" data-name="Group 1841" transform="translate(2.846 3.079)">
                    <path id="Path_4367" d="M1189.138 909.544H1146.5l20.961 19.8z" class="cls-5" data-name="Path 4367" transform="translate(-1142.916 -909.544)"/>
                    <path id="Path_4368" d="M1167.043 934.756l-24.509-23.149v26.439h49.059v-25.713z" class="cls-5" data-name="Path 4368" transform="translate(-1142.534 -909.742)"/>
                </g>
            </g>
        </g>
        <path id="Path_4369" fill="#235893" d="M1082.592 1235.486c0 3.99-38.274 7.225-85.487 7.225s-85.486-3.235-85.486-7.225 38.273-7.224 85.486-7.224 85.487 3.238 85.487 7.224z" data-name="Path 4369" transform="translate(-16.23 -38.876)"/>
        <g id="Group_1852" data-name="Group 1852" transform="translate(946.765 850.082)">
            <path id="Path_4370" d="M1046.86 1219.9l2.67 11.026 8.118-2.369s-.543-4.37-1.549-11.235z" class="cls-7" data-name="Path 4370" transform="translate(-975.999 -887.906)"/>
            <path id="Path_4371" d="M991.591 1217.01l.02 11.345 8.446-.408s.495-4.376 1.119-11.285z" class="cls-7" data-name="Path 4371" transform="translate(-970.685 -887.843)"/>
            <path id="Path_4372" fill="#170f33" d="M1031.026 922.619s6.076 2.458 9.026 5.531 4.291 9.178 3.7 14.006-1.853 5.705-1.853 5.705 2.788 6.759 1.942 12.552-7.167 11.323-11.3 12.113c0 0 5.728-6.847 4.971-10.446 0 0-4.127 5.881-8.259 8.164s-24.1 22.326-37.024 8c0 0 10.56-4.755 7.1-14.235s6.068-18.082 6.068-18.082-7.417 4.125-11.294-1.4 2.782-9.831 3.119-9.48-2.613 5.354.842 6.671 4.256-3.994 9.693-9.656 20.657-12.162 23.269-9.443z" data-name="Path 4372" transform="translate(-970.747 -859.509)"/>
            <path id="Path_4373" d="M1032.13 975.861l3.232-21.167-10.9-.775-3.224 17.464c2.346 2.233 6.579 6.711 10.892 4.478z" class="cls-7" data-name="Path 4373" transform="translate(-973.536 -862.58)"/>
            <path id="Path_4374" d="M1034.158 963.941l1.412-9.247-10.9-.775-1.268 6.869c.129.165.266.33.41.491 2.015 2.237 6.516 5.838 10.346 2.662z" class="cls-9" data-name="Path 4374" transform="translate(-973.744 -862.58)"/>
            <path id="Path_4375" d="M1036.923 928.085s4.459 1.587 4.459 7.649c0 0-.486 13.882-6.033 20.821-4.066 5.086-9.489 1.261-11.755-1.006-3.3-3.3-2.364-7.795-2.364-13.857s9.6-17.916 15.693-13.607z" class="cls-7" data-name="Path 4375" transform="translate(-973.523 -860.007)"/>
            <path id="Path_4376" d="M1030.261 944.293a1.162 1.162 0 1 1-1.158-1.266 1.216 1.216 0 0 1 1.158 1.266z" class="cls-10" data-name="Path 4376" transform="translate(-974.18 -861.533)"/>
            <path id="Path_4377" d="M1040.6 945.575a1.162 1.162 0 1 1-1.158-1.265 1.216 1.216 0 0 1 1.158 1.265z" class="cls-10" data-name="Path 4377" transform="translate(-975.174 -861.656)"/>
            <path id="Path_4378" d="M1025.644 943.909s2.2-1.439 3.825-1.032 1.845 1.393 1.845 1.393a4.326 4.326 0 0 0-3.093-.733c-1.763.29-2.577.372-2.577.372z" class="cls-10" data-name="Path 4378" transform="translate(-973.959 -861.511)"/>
            <path id="Path_4379" d="M1042.9 946.248s-1.76-1.95-3.437-1.969-2.138.879-2.138.879a4.325 4.325 0 0 1 3.178.076c1.627.728 2.397 1.014 2.397 1.014z" class="cls-10" data-name="Path 4379" transform="translate(-975.082 -861.653)"/>
            <path id="Path_4380" d="M1035.623 947.377a21.225 21.225 0 0 0 .953 3.514 6.885 6.885 0 0 1-2.032.826 3.065 3.065 0 0 0 2.51-.709 27.289 27.289 0 0 0-1.431-3.631z" class="cls-10" data-name="Path 4380" transform="translate(-974.815 -861.951)"/>
            <path id="Path_4381" d="M1030.111 948.989c0 .979-1.272 1.772-2.842 1.772s-2.841-.794-2.841-1.772 1.272-1.772 2.841-1.772 2.842.794 2.842 1.772z" class="cls-9" data-name="Path 4381" transform="translate(-973.842 -861.936)"/>
            <path id="Path_4382" d="M1041.055 948.131a1.96 1.96 0 0 0-2.156 1.667 1.855 1.855 0 0 0 1.772 1.64c.357-1.081.662-2.177.923-3.254a2.766 2.766 0 0 0-.539-.053z" class="cls-9" data-name="Path 4382" transform="translate(-975.234 -862.023)"/>
            <path id="Path_4383" d="M1039.738 926.312s.776 8.372-6.6 8.916a23.9 23.9 0 0 0-12.068 4.212l-3.285 9.846a66.619 66.619 0 0 1-1.374-13.172c.216-5.573 8.173-13.324 13.45-14.032s9.877 4.23 9.877 4.23z" class="cls-10" data-name="Path 4383" transform="translate(-973.069 -859.512)"/>
            <path id="Path_4384" d="M1022.354 942.6s-.52-1.837-2.137-1.438-.824 5.166 0 5.991 3.734.179 2.137-4.553z" class="cls-7" data-name="Path 4384" transform="translate(-973.347 -861.348)"/>
            <path id="Path_4385" d="M1022 943.6s-.958-2.256-1.717-1.5.153 4.064.815 4.064.902-2.564.902-2.564z" class="cls-9" data-name="Path 4385" transform="translate(-973.417 -861.429)"/>
            <path id="Path_4386" d="M1030.078 955.05c-.193-.143-.133-.193-.274 0-.4.547.293 2.341 1.477 2.72 1.536.491 3.732-.588 3.732-1.476 0-.288-2.006.824-4.935-1.244z" class="cls-10" data-name="Path 4386" transform="translate(-974.348 -862.677)"/>
            <path id="Path_4387" d="M1026.515 940.73a18.278 18.278 0 0 1 3.8-.976c1.086 0 2.571 1.247 2.29 1.98s-1.584-1.221-2.478-1.221-3.612.217-3.612.217z" class="cls-10" data-name="Path 4387" transform="translate(-974.043 -861.218)"/>
            <path id="Path_4388" d="M1041.773 943.247s-.646-1.58-1.684-1.9-2.823.446-2.767 1.228 1.87-.707 2.727-.447a5.217 5.217 0 0 1 1.724 1.119z" class="cls-10" data-name="Path 4388" transform="translate(-975.082 -861.365)"/>
            <path id="Path_4389" d="M1003.763 961.71c-5.179-6.792-17.16-24.646-18.218-45.634-1.542-30.584 3.109-40.288 3.109-40.288a26.371 26.371 0 0 0 4.7-4.693c1.252-1.989 3.854-3.932 2.624-4.706s-2.958 1.619-3.5 2.471a.649.649 0 0 1-.757.279 1.35 1.35 0 0 1-.948-1.718 17.01 17.01 0 0 1 1.946-3.844c2.5-3.976 4.431-7.728 3.2-7.447s-5.276 7.443-6.17 8.863 2.316-6.523 3.5-9.875-.875-2.468-1.415-.56-3.718 9.818-4.238 9.49 2.768-9.49 1.49-10.295-.969 1.285-1.448 2.746-.832 6.614-2.17 6.918c0 0-.5-7.024-1.09-6.35-.294.336-1.158 7.817-1.209 10.983-.122 7.449-10.316 47.185-7.913 57.637 2.342 10.19 5.419 39.453 13.6 45.337 9.625.348 10.444-2.23 14.907-9.314z" class="cls-7" data-name="Path 4389" transform="translate(-969.08 -852.863)"/>
            <path id="Path_4390" d="M985.663 924.781a23.945 23.945 0 0 0-10.766 3.6 19.551 19.551 0 0 0 .366 4.222c.637 2.772 1.329 6.957 2.163 11.7l10.915-5.488a68.409 68.409 0 0 1-2.678-14.034z" class="cls-9" data-name="Path 4390" transform="translate(-969.08 -859.778)"/>
            <path id="Path_4391" d="M1048.6 991.283c7 4.893 25.333 16.127 46.347 16.317 30.622.277 40.126-4.771 40.126-4.771a26.319 26.319 0 0 1 4.495-4.894c1.934-1.333 3.768-4.014 4.594-2.816s-1.5 3.022-2.325 3.594a.65.65 0 0 0-.249.768 1.349 1.349 0 0 0 1.755.876 16.977 16.977 0 0 0 3.76-2.1c3.87-2.666 7.539-4.746 7.309-3.5s-7.219 5.579-8.6 6.53 6.42-2.583 9.722-3.906 2.5.773.617 1.391-9.655 4.121-9.307 4.628 9.369-3.159 10.225-1.915-1.244 1.021-2.684 1.561-6.574 1.105-6.823 2.454c0 0 7.039.207 6.391.826-.325.308-7.764 1.481-10.924 1.663-7.438.429-46.718 12.256-57.262 10.289-10.278-1.92-39.643-3.785-45.86-11.717-.743-9.601 1.799-10.528 8.693-15.278z" class="cls-7" data-name="Path 4391" transform="translate(-975.319 -866.173)"/>
            <path id="Path_4392" d="M1084.317 1007.108a83.863 83.863 0 0 1-14.8-4.76c-.96 2.709-.5 8.974.874 14.407 4.254.637 8.371 1.153 11.858 1.622a35.4 35.4 0 0 0 2.068-11.269z" class="cls-9" data-name="Path 4392" transform="translate(-978.128 -867.237)"/>
            <path id="Path_4393" fill="#dfb866" d="M990.753 1037.525s-11.684 26.376-11.684 34.619 6.131 128.6 6.131 128.6l19.154.813s-.824-112.512 2.06-115.4 5.77-2.473 5.77-2.473l24.658 119.653 17.874-1.359s-9.561-114.172-14.507-126.536-15.66-37.916-15.66-37.916z" data-name="Path 4393" transform="translate(-969.481 -870.619)"/>
            <g id="Group_1844" data-name="Group 1844" transform="translate(19.782 174.603)">
                <path id="Path_4394" d="M1009.369 1053.028a36.612 36.612 0 0 1-19.021-5.649l.939-1.338c.145.1 14.812 10.14 30.607 2.467l.715 1.471a30.008 30.008 0 0 1-13.24 3.049z" class="cls-12" data-name="Path 4394" transform="translate(-990.347 -1046.041)"/>
            </g>
            <path id="Path_4395" d="M1010.731 1047.222a1.948 1.948 0 1 1-1.949-1.949 1.948 1.948 0 0 1 1.949 1.949z" class="cls-12" data-name="Path 4395" transform="translate(-972.151 -871.364)"/>
            <g id="Group_1845" data-name="Group 1845" transform="translate(30.525 169.002)">
                <path id="Rectangle_974" d="M0 0H10.875V1.634H0z" class="cls-12" data-name="Rectangle 974" transform="rotate(-84.26 5.982 5.41)"/>
            </g>
            <path id="Path_4396" fill="#8937dc" d="M968.461 940.676s6.126 38.866 11.38 38.866c0 0-9.582 37.813 9.892 47.807s40.639.9 47.291-5.757 13.291-6.813 21.328-3.413 13.6-13.823 13.6-22.521-31.322-19.369-47.087-25.911-21.223-5.969-27.1-14.933-5.872-25.346-12.055-22.873-17.249 8.735-17.249 8.735z" data-name="Path 4396" transform="translate(-968.461 -860.443)"/>
            <path id="Path_4397" d="M1028.452 972.785c-11.586-4.808-17.606-5.774-22.316-9.507-.742 7.271-1.129 21.447 6.239 26.426 8.554 5.779 28.2-1.395 36.441-8.75-9.084-4.034-13.309-5.242-20.364-8.169z" class="cls-7" data-name="Path 4397" transform="translate(-972.047 -863.48)"/>
            <path id="Path_4398" d="M1035.37 929.568s-13.338 7.966-14.659 11.45-5.93 8.471-2.87 19.695-8.595 16.018-12.8 12.495-3.351-10.994 0-10.445c0 0 1.606 3.408 4.224.791s.334-12.2-.113-18.361 15.025-30.925 26.218-15.625z" class="cls-10" data-name="Path 4398" transform="translate(-971.704 -859.766)"/>
            <g id="Group_1849" data-name="Group 1849" transform="translate(15.697 332.718)">
                <path id="Path_4399" fill="#70a3ff" d="M999.658 1226.545l-.86 8.9c-.347 3.6.966 6.621-3.561 6.933s-9.14-1.416-9.377-3.794 4.683-7.466 4.908-9.8 1.591-3.163 2.261-2.349 6.629.11 6.629.11z" data-name="Path 4399" transform="translate(-985.831 -1221.472)"/>
                <path id="Path_4400" d="M998.26 1242.325a4.074 4.074 0 0 1-3.175.755c-2.593-.112-8.232-.786-9.226-3.168a2.4 2.4 0 0 0 .557 1.822c2.884 3.624 11.172 3.513 11.844.591z" class="cls-15" data-name="Path 4400" transform="translate(-985.828 -1222.796)"/>
                <path id="Path_4401" d="M991.63 1230.625a2.823 2.823 0 0 0 5.245 1.65c.024-.04.048-.08.071-.123a54.132 54.132 0 0 0 3.119-6.283c.544-1.052 1.262-2.5-.969-3.781s-5.639-1.5-5.742-.435a65.138 65.138 0 0 0-1.724 8.972z" class="cls-15" data-name="Path 4401" transform="translate(-986.385 -1220.976)"/>
                <path id="Path_4402" d="M999.282 1222.09c2.231 1.285 1.514 2.729.969 3.781a54.132 54.132 0 0 1-3.119 6.283c-.023.042-.047.083-.071.123a2.918 2.918 0 0 1-.461.606c.041-.06.08-.121.117-.187l.071-.123a54.132 54.132 0 0 0 3.118-6.283c.545-1.052 1.263-2.495-.969-3.78-1.831-1.055-4.455-1.385-5.393-.885.165-1.025 3.528-.808 5.738.465z" class="cls-5" data-name="Path 4402" transform="translate(-986.57 -1220.976)"/>
                <path id="Path_4403" d="M996.859 1233.479s.45-6.568 1.412-6.745a15.429 15.429 0 0 1 2.446-.146s-1.115 6.567-2.335 7.572-1.523-.681-1.523-.681z" class="cls-16" data-name="Path 4403" transform="translate(-986.889 -1221.515)"/>
                <g id="Group_1846" data-name="Group 1846" transform="translate(5.1 6.46)">
                    <path id="Path_4404" d="M991.472 1228.366a.268.268 0 0 0 .088.225c2.477 2.228 6.348.606 6.51.534a.266.266 0 0 0 .142-.351.269.269 0 0 0-.353-.142c-.036.016-3.719 1.557-5.94-.441a.269.269 0 0 0-.38.021.263.263 0 0 0-.067.154z" class="cls-5" data-name="Path 4404" transform="translate(-991.471 -1228.123)"/>
                </g>
                <g id="Group_1847" data-name="Group 1847" transform="translate(4.689 9.071)">
                    <path id="Path_4405" d="M991.018 1231.255a.268.268 0 0 0 .082.22c1.527 1.456 6.1.492 6.3.45a.268.268 0 1 0-.112-.525c-1.246.268-4.718.733-5.815-.313a.267.267 0 0 0-.38.008.271.271 0 0 0-.075.16z" class="cls-5" data-name="Path 4405" transform="translate(-991.017 -1231.012)"/>
                </g>
                <g id="Group_1848" data-name="Group 1848" transform="translate(4.329 10.946)">
                    <path id="Path_4406" d="M990.619 1233.328a.273.273 0 0 0 .06.2c1.189 1.443 6.045.786 6.6.707a.268.268 0 1 0-.078-.53c-1.411.2-5.257.506-6.1-.519a.269.269 0 0 0-.474.145z" class="cls-5" data-name="Path 4406" transform="translate(-990.618 -1233.086)"/>
                </g>
                <path id="Path_4407" d="M996.831 1236.984s.814 3.506.095 4.1-9.2-.347-9.061-1.817 2.336-4.178 3.115-4.328 5.851 2.045 5.851 2.045z" class="cls-16" data-name="Path 4407" transform="translate(-986.024 -1222.317)"/>
            </g>
            <g id="Group_1851" data-name="Group 1851" transform="translate(72.095 333.274)">
                <path id="Path_4408" d="M1060.436 1221.591s-4.682.769-4.8 3.88 3.751 7.3 3.751 7.3l3.624-2.464a8.743 8.743 0 0 1-1.924-4.641 32.085 32.085 0 0 0-.651-4.075z" class="cls-16" data-name="Path 4408" transform="translate(-1048.937 -1221.591)"/>
                <path id="Path_4409" fill="#547abf" d="M1048.443 1239.5l8 .182c3.3.074 8.545.589 10.194.625s7.7-3.712 7.338-4.99-5.786-1.083-8.579-2.572-7.594-5.065-8.589-5.429c-1.557-.568-5.621.836-6.586 1.765s-2.583 9.57-1.778 10.419z" data-name="Path 4409" transform="translate(-1048.226 -1222.129)"/>
                <path id="Path_4410" d="M1049.825 1238.316c13.193-1.775 9.352 2.14 22.289-1.16-3.153 1.2-7.809 2.352-11.117 1.623a29.851 29.851 0 0 0-5.548-.5c-1.871-.037-3.749-.003-5.624.037z" class="cls-15" data-name="Path 4410" transform="translate(-1048.38 -1223.088)"/>
                <g id="Group_1850" data-name="Group 1850" transform="translate(9.559 5.598)">
                    <path id="Path_4411" d="M1059.687 1234.412a.5.5 0 0 0 .71.076 26.252 26.252 0 0 1 4.039-2.685c-.3-.213-.607-.437-.916-.665a28.533 28.533 0 0 0-3.759 2.555.519.519 0 0 0-.074.719z" class="cls-5" data-name="Path 4411" transform="translate(-1058.876 -1228.106)"/>
                    <path id="Path_4412" d="M1059.05 1231.981a.5.5 0 0 0 .693-.181 29.631 29.631 0 0 1 2.638-3.09 1.674 1.674 0 0 0-.521-.926 40.619 40.619 0 0 0-2.987 3.5.512.512 0 0 0 .177.697z" class="cls-5" data-name="Path 4412" transform="translate(-1058.802 -1227.784)"/>
                </g>
            </g>
            <path id="Path_4413" d="M983.686 1212.744l22.151.57v5.044l-22.151-.341z" class="cls-12" data-name="Path 4413" transform="translate(-969.925 -887.466)"/>
            <path id="Path_4414" fill="#ff815c" d="M1015.706 1087.712l24.658 119.653 8.673-.659-26.808-127.28z" data-name="Path 4414" transform="translate(-973.004 -874.648)" style="mix-blend-mode:multiply;isolation:isolate" opacity="0.18"/>
            <path id="Path_4415" d="M1040.212 1216.3l22.363-1.451v4.178l-21.341 1.915z" class="cls-12" data-name="Path 4415" transform="translate(-975.36 -887.669)"/>
        </g>
        <path id="Path_4416" d="M958.014 1059.692c-65.337-2.321-125.591-16.1-125.548-39.231l-.122 66.256c-.042 22.3 59.817 36.921 125.67 39.393z" class="cls-19" data-name="Path 4416" transform="translate(-8.608 -18.896)"/>
        <g id="Group_1853" data-name="Group 1853" transform="translate(821.095 1084.946)">
            <path id="Path_4417" d="M829.558 1112.711v8.212c-.042 23.128 60.212 36.911 125.547 39.231v-8.212c-65.335-2.32-125.589-16.103-125.547-39.231z" class="cls-19" data-name="Path 4417" transform="translate(-829.435 -1112.711)"/>
            <path id="Path_4418" d="M829.436 1186.682l-.014 7.609c0 .2 0 .407.014.609l.014-7.956-.014-.262z" class="cls-19" data-name="Path 4418" transform="translate(-829.422 -1119.823)"/>
            <path id="Path_4419" d="M834.367 1146.031l-.011 5.568c-.042 22.3 59.819 36.92 125.671 39.393v-6.1c-65.327-2.449-124.764-16.863-125.66-38.861z" class="cls-19" data-name="Path 4419" transform="translate(-829.896 -1115.915)"/>
        </g>
        <path id="Path_4420" d="M839.01 1042.225l-.087 46.6c-.016 8.412 16.747 17.856 46.379 24.625v-53.99c-18.144-3.793-35.369-9.284-46.292-17.235z" class="cls-20" data-name="Path 4420" transform="translate(-9.241 -20.988)"/>
        <path id="Path_4421" d="M895.719 1062.388v6.21c24.232 4.631 49.228 6.392 62.442 7.035v-6.209c-13.214-.644-38.21-2.405-62.442-7.036z" class="cls-20" data-name="Path 4421" transform="translate(-14.702 -22.927)"/>
        <path id="Path_4422" d="M895.719 1082.339c24.232 4.631 49.228 6.392 62.442 7.035v-6.209c-13.214-.643-38.21-2.4-62.442-7.035z" class="cls-20" data-name="Path 4422" transform="translate(-14.702 -24.248)"/>
        <path id="Path_4423" d="M895.719 1096.079c24.232 4.63 49.228 6.392 62.442 7.035v-6.21c-13.214-.643-38.21-2.4-62.442-7.035z" class="cls-20" data-name="Path 4423" transform="translate(-14.702 -25.569)"/>
        <path id="Path_4424" d="M895.719 1109.819c24.232 4.631 49.228 6.393 62.442 7.036v-6.209c-13.214-.643-38.21-2.4-62.442-7.036z" class="cls-20" data-name="Path 4424" transform="translate(-14.702 -26.89)"/>
        <path id="Path_4425" d="M895.719 1121.745a407.766 407.766 0 0 0 62.442 7.47v-4.828c-13.214-.643-38.21-2.4-62.442-7.035z" class="cls-20" data-name="Path 4425" transform="translate(-14.702 -28.212)"/>
        <path id="Path_4426" d="M1143.775 1020.981c-.007 6.383-5.963 11.314-5.579 10.945-7.672 7.4-20.845 13.271-37.416 17.7v65.94c5.686-1.563 11.05-3.3 16.019-5.22 10.262-3.95 26.562-11.892 26.849-22.851.002-.073-.022 12.168.127-66.514z" class="cls-19" data-name="Path 4426" transform="translate(-34.418 -18.946)"/>
        <path id="Path_4427" d="M1107.359 1056.16c13.251-3.887 23.658-8.615 31.064-14.112 0 0-.083 45-.089 47.348-.174 5.348-9 12.02-23.039 17.424-2.508.969-5.16 1.9-7.937 2.8z" class="cls-4" data-name="Path 4427" transform="translate(-35.051 -20.971)"/>
        <path id="Path_4428" d="M902.849 829.964c29.559-.159 53.57 8.7 53.63 19.782.03 5.542-5.933 10.592-15.6 14.276l5.077 19.233-18.306-15.523a130.243 130.243 0 0 1-24.585 2.374c-29.559.16-53.57-8.7-53.631-19.782s23.855-20.2 53.415-20.36z" class="cls-3" data-name="Path 4428" transform="translate(-10.251 -.579)"/>
        <path id="Path_4429" d="M1135.447 823.94h-79.239a6.936 6.936 0 0 0-6.936 6.935v23.878a6.936 6.936 0 0 0 6.936 6.935h25.946l-13.064 37.46 22.964-37.46h43.393a6.936 6.936 0 0 0 6.935-6.935v-23.878a6.936 6.936 0 0 0-6.935-6.935z" class="cls-21" data-name="Path 4429" transform="translate(-29.466)"/>
        <path id="Path_4430" d="M760.558 907.661H839.8a6.936 6.936 0 0 1 6.936 6.935v23.878a6.936 6.936 0 0 1-6.936 6.935h-25.95l13.065 37.459-22.964-37.459h-43.393a6.935 6.935 0 0 1-6.935-6.935V914.6a6.935 6.935 0 0 1 6.935-6.939z" class="cls-21" data-name="Path 4430" transform="translate(-1.039 -8.05)"/>
        <path id="Path_4431" d="M1191.376 1179.794l-58.443-2.224a5.119 5.119 0 0 1-4.921-5.31l.671-17.611a5.119 5.119 0 0 1 5.31-4.92l19.136.729-8.584-28 15.885 28.273 32.005 1.218a5.119 5.119 0 0 1 4.92 5.31l-.67 17.611a5.119 5.119 0 0 1-5.309 4.924z" class="cls-21" data-name="Path 4431" transform="translate(-37.036 -28.703)"/>
        <path id="Path_4432" d="M1046.671 1001.905c-2.791 9.765-9.659 19-18.616 22.9-10.646 5.281-23.861 1.517-27.455.981-.251-.12-14.238-3.737-17.154-13.718 4.488 11.07 21.444 14.868 34.628 13.971 13.89-1.354 24.033-11.839 28.597-24.134z" class="cls-19" data-name="Path 4432" transform="translate(-23.137 -17.111)"/>
        <g id="Group_1856" data-name="Group 1856" transform="translate(742.817 889.117)">
            <g id="Group_1854" data-name="Group 1854" transform="translate(278.482 29.338)">
                <path id="Path_4433" d="M1056.385 934.035a1.535 1.535 0 0 1-.834-.246c-1.264-.814-2.57-1.628-3.881-2.418a1.541 1.541 0 1 1 1.589-2.641c1.339.805 2.673 1.635 3.962 2.467a1.542 1.542 0 0 1-.835 2.837z" class="cls-22" data-name="Path 4433" transform="translate(-1050.923 -928.509)"/>
            </g>
            <g id="Group_1855" data-name="Group 1855">
                <path id="Path_4434" d="M821.867 1154.985a1.536 1.536 0 0 1-.731-.184c-3.31-1.787-6.011-3.273-8.027-4.413a1.541 1.541 0 1 1 1.517-2.683c2 1.13 4.682 2.6 7.976 4.382a1.541 1.541 0 0 1-.734 2.9zm-18.956-11.7a1.539 1.539 0 0 1-.917-.3c-2.475-1.837-4.91-3.737-7.233-5.646a1.541 1.541 0 1 1 1.956-2.382c2.285 1.878 4.678 3.746 7.113 5.551a1.541 1.541 0 0 1-.919 2.779zm-17-14.327a1.532 1.532 0 0 1-1.067-.429c-2.217-2.13-4.383-4.334-6.44-6.553a1.541 1.541 0 0 1 2.26-2.1c2.017 2.177 4.141 4.339 6.315 6.426a1.541 1.541 0 0 1-1.068 2.653zm-14.878-16.511a1.539 1.539 0 0 1-1.221-.6c-1.883-2.437-3.695-4.946-5.385-7.46a1.542 1.542 0 1 1 2.559-1.72c1.652 2.458 3.425 4.913 5.265 7.3a1.541 1.541 0 0 1-1.218 2.483zm-12.109-18.636a1.542 1.542 0 0 1-1.36-.813c-1.448-2.7-2.812-5.488-4.052-8.276a1.542 1.542 0 0 1 2.816-1.255c1.21 2.721 2.54 5.437 3.953 8.075a1.543 1.543 0 0 1-1.358 2.269zm-8.7-20.453a1.541 1.541 0 0 1-1.467-1.069c-.939-2.913-1.779-5.9-2.5-8.875a1.541 1.541 0 0 1 3-.725c.7 2.9 1.521 5.814 2.436 8.654a1.544 1.544 0 0 1-1.467 2.015zm-4.869-21.685a1.541 1.541 0 0 1-1.527-1.339c-.091-.7-.177-1.4-.258-2.1-.269-2.339-.478-4.719-.619-7.072a1.541 1.541 0 0 1 3.077-.186c.138 2.3.342 4.621.6 6.907q.118 1.029.252 2.048a1.541 1.541 0 0 1-1.328 1.729 1.7 1.7 0 0 1-.196.017zm-1-22.207h-.055a1.543 1.543 0 0 1-1.481-1.6c.119-3.041.349-6.13.679-9.181a1.541 1.541 0 0 1 3.064.332c-.324 2.981-.546 6-.663 8.97a1.542 1.542 0 0 1-1.54 1.483zm2.718-22.06a1.54 1.54 0 0 1-1.511-1.853c.616-2.975 1.342-5.986 2.162-8.945a1.541 1.541 0 1 1 2.97.821c-.8 2.9-1.512 5.84-2.114 8.747a1.54 1.54 0 0 1-1.503 1.234zm6.231-21.341a1.541 1.541 0 0 1-1.441-2.089c1.082-2.848 2.276-5.706 3.544-8.492a1.541 1.541 0 1 1 2.8 1.278c-1.241 2.726-2.408 5.522-3.467 8.309a1.541 1.541 0 0 1-1.432.998zm9.492-20.1a1.541 1.541 0 0 1-1.338-2.3c1.51-2.648 3.129-5.288 4.808-7.845a1.542 1.542 0 0 1 2.577 1.694c-1.646 2.5-3.229 5.086-4.708 7.678a1.539 1.539 0 0 1-1.335.773zm12.472-18.407a1.541 1.541 0 0 1-1.2-2.5c1.9-2.393 3.907-4.753 5.955-7.016a1.542 1.542 0 0 1 2.287 2.069c-2.006 2.214-3.966 4.525-5.83 6.866a1.536 1.536 0 0 1-1.208.581zm15.158-16.267a1.542 1.542 0 0 1-1.035-2.684c2.274-2.063 4.66-4.05 7.09-5.907a1.541 1.541 0 1 1 1.873 2.449c-2.363 1.805-4.68 3.737-6.892 5.742a1.537 1.537 0 0 1-1.031.399zm220.878-9.142a1.526 1.526 0 0 1-.685-.161c-2.653-1.32-5.405-2.6-8.18-3.807a1.542 1.542 0 0 1 1.228-2.828c2.825 1.228 5.625 2.532 8.324 3.875a1.541 1.541 0 0 1-.688 2.921zm-202.981-4.012a1.541 1.541 0 0 1-.783-2.87c2.615-1.54 5.351-3 8.131-4.353a1.541 1.541 0 1 1 1.346 2.773c-2.707 1.314-5.369 2.739-7.913 4.236a1.536 1.536 0 0 1-.776.213zm182.493-4.643a1.529 1.529 0 0 1-.514-.089c-2.8-.994-5.691-1.945-8.581-2.828a1.541 1.541 0 1 1 .9-2.948c2.934.9 5.864 1.861 8.71 2.871a1.541 1.541 0 0 1-.514 2.994zm-162.354-4.734a1.541 1.541 0 0 1-.521-2.992c2.828-1.014 5.777-1.96 8.765-2.812a1.541 1.541 0 0 1 .845 2.965c-2.921.832-5.8 1.758-8.568 2.75a1.572 1.572 0 0 1-.515.088zm141.025-1.584a1.575 1.575 0 0 1-.363-.042c-2.878-.7-5.849-1.36-8.831-1.969a1.541 1.541 0 0 1 .616-3.021c3.02.616 6.029 1.287 8.941 1.994a1.541 1.541 0 0 1-.362 3.039zm-119.571-4.244a1.542 1.542 0 0 1-.293-3.055c2.932-.572 5.978-1.086 9.057-1.525a1.542 1.542 0 0 1 .436 3.052c-3.027.431-6.021.936-8.9 1.5a1.569 1.569 0 0 1-.295.027zm97.74-.043a1.609 1.609 0 0 1-.236-.018c-2.947-.452-5.968-.867-8.974-1.233a1.541 1.541 0 1 1 .373-3.06c3.037.37 6.088.788 9.068 1.245a1.541 1.541 0 0 1-.231 3.065zm-22.107-2.558c-.042 0-.083 0-.126-.005-2.966-.237-6.011-.442-9.049-.608a1.541 1.541 0 1 1 .168-3.078c3.065.167 6.136.373 9.128.614a1.541 1.541 0 0 1-.121 3.078zm-53.58-.352a1.541 1.541 0 0 1-.121-3.078c2.95-.236 6.026-.425 9.146-.562a1.542 1.542 0 0 1 .135 3.08c-3.083.135-6.123.322-9.035.555-.037.001-.078.003-.12.003zm31.347-.747h-.035c-2.949-.065-5.835-.1-8.578-.1h-.491a1.541 1.541 0 0 1 0-3.082h.491c2.765 0 5.674.033 8.647.1a1.541 1.541 0 0 1-.033 3.082z" class="cls-22" data-name="Path 4434" transform="translate(-742.817 -896.05)"/>
            </g>
        </g>
        <g id="Group_1857" data-name="Group 1857" transform="translate(1015 892.223)">
            <path id="Path_4435" fill="#0a4cfe" d="M1100.486 946.49l-45.412-27.51-11.119 11.342z" data-name="Path 4435" transform="translate(-1043.955 -901.361)"/>
            <path id="Path_4436" d="M1056.249 954.2l.649-21.287 44.771 14.914z" class="cls-22" data-name="Path 4436" transform="translate(-1045.137 -902.701)"/>
            <path id="Path_4437" d="M1056.2 899.486l45.467 45.13-45.412-27.51z" class="cls-22" data-name="Path 4437" transform="translate(-1045.132 -899.486)"/>
            <path id="Path_4438" fill="#0033bf" d="M1043.955 931.529l11.761 1.255-.094 3.091z" data-name="Path 4438" transform="translate(-1043.955 -902.567)"/>
        </g>
    </g>
</svg>
