<svg xmlns="http://www.w3.org/2000/svg" width="451.509" height="418.383" viewBox="0 0 451.509 418.383">
    <defs>
        <style>
            .cls-4{fill:#fc7575}.cls-6{fill:#fff}.cls-9{fill:#1aa5c2}.cls-10{fill:#c2d6ff}.cls-11{fill:#0d5361}.cls-12{fill:#f57408}.cls-13{fill:#fd5e5a}.cls-14{fill:#052f43}.cls-17{fill:#ecf2ff}.cls-18{fill:#d7e0fe}.cls-20{fill:#99d7ff}.cls-22{fill:#dbf1ff}.cls-26{fill:#698bfd}
        </style>
    </defs>
    <g id="Group_1877" data-name="Group 1877" transform="translate(-127.456 -134.512)">
        <path id="Path_4439" fill="#e3b4ff" d="M127.456 272.9s63.417-17.5 79.678-46.251 36.315-56.876 62.875-41.251 62.875-61.688 105.153-49.598 72.09 47.824 106.238 68.084 21.68 59.636 46.072 66.511 51.493 2.5 51.493 2.5-65.586 3.125-73.716 40-43.363 46.876-62.876 12.5-39.568-37.5-49.866-8.126-39.568 113.753-63.418 66.251-26.017-99.377-53.661-78.752-40.11 116.878-64.5 70.627S161.6 261.022 127.456 272.9z" data-name="Path 4439"/>
        <path id="Path_4440" fill="#713045" d="M352.477 359.774s-1.248-.635 2.789-4.673 10.229-14.335 10.229-14.335l3.6 9.6-11.184 10.613z" data-name="Path 4440" transform="translate(-32.706 -30.002)"/>
        <path id="Path_4441" fill="#495fd8" d="M463.252 478.1l-45.213-34.15-32.987 15.666 75.173 47.176 58.629-44.231c-1.771-2.638-5.994-9.026-8.175-11.254z" data-name="Path 4441" transform="translate(-37.471 -45.012)"/>
        <path id="Path_4442" d="M541.824 453.419l-7.258 3.328a50.893 50.893 0 0 1 6.036 7.192l5.187-3.913z" class="cls-4" data-name="Path 4442" transform="translate(-59.219 -46.389)"/>
        <g id="Group_1860" data-name="Group 1860" transform="translate(439.566 246.61)">
            <g id="Group_1859" data-name="Group 1859">
                <rect id="Rectangle_975" width="126.691" height="86.478" fill="#9db6fe" data-name="Rectangle 975" rx="2.234"/>
            </g>
            <path id="Path_4443" d="M571.819 283.272h-63.7v18.4h9.157l-4.466 9.813 11.164-9.813h47.849z" class="cls-6" data-name="Path 4443" transform="translate(-494.938 -268.25)"/>
            <path id="Path_4444" d="M564.026 322.2h53.795v18.4h-7.733l3.771 9.813-9.428-9.813h-40.405z" class="cls-6" data-name="Path 4444" transform="translate(-503.071 -273.913)"/>
        </g>
        <path id="Path_4445" fill="#6d7fe0" d="M421.782 517.508l-4.944-46.617s1.689-2.83 5.766-9.5-11.733-17.445-11.733-17.445l-25.819 10.422 13.229 83.132 82.046 7.839c.364-3.625 1.165-11.105 1.734-14.731z" data-name="Path 4445" transform="translate(-37.471 -45.012)"/>
        <path id="Path_4446" d="M511.831 548.283l-13.475-2.928c-.569 3.626-.916 7.251-1.28 10.876l14.755 2.538z" class="cls-4" data-name="Path 4446" transform="translate(-53.766 -59.763)"/>
        <path id="Path_4447" fill="#235893" d="M497.716 640.166c0 1.853-34.045 3.354-76.043 3.354s-76.042-1.5-76.042-3.354 34.045-3.354 76.042-3.354 76.043 1.501 76.043 3.354z" data-name="Path 4447" transform="translate(-31.736 -90.625)"/>
        <g id="Group_1861" data-name="Group 1861" transform="translate(478.888 393.641)">
            <path id="Path_4448" d="M541.973 437.751l10.612 4.215c4.369 1.736 11.541 4 13.726 4.865s8.12 8.974 6.955 10.389-8.181-1.841-12.651-1.5-13.273 4.28-13.879 2.925-7.112-3.754-7.876-5.466 1.597-14.797 3.113-15.428z" class="cls-9" data-name="Path 4448" transform="translate(-538.71 -437.751)"/>
            <path id="Path_4449" d="M564.022 449.262l-22.922-9.105c.42-1.326.848-2.25 1.224-2.406l10.612 4.215c4.369 1.736 11.541 4 13.726 4.865s8.12 8.974 6.955 10.389c-.373.454-1.349.427-2.651.192-1.041-1.962-3.92-6.948-6.944-8.15z" class="cls-10" data-name="Path 4449" transform="translate(-539.057 -437.751)"/>
            <path id="Path_4450" d="M548.79 449.709s10.645 6.862 11.642 7.878-7.065 2.867-7.065 2.867-7.892-5.918-7.915-7.345 1.865-2.709 3.338-3.4z" class="cls-10" data-name="Path 4450" transform="translate(-539.691 -439.49)"/>
            <path id="Path_4451" d="M545.452 453.057c-.145-1.765 2.31-3.1 3.355-3.7 2.228 1.4 8.995 5.513 11.624 8.182-1.2-.856-6.35-3.865-11.679-7.574-1.285.561-3.152 1.666-3.3 3.092z" class="cls-11" data-name="Path 4451" transform="translate(-539.69 -439.439)"/>
        </g>
        <path id="Path_4452" d="M409.619 352s10.059 3.762 10.059 22.7c0 12.408-5.972 43.3-5.972 43.3l13.755 13.747S392.429 449.7 373.02 452.88c0 0 6.345-16.973 6.345-25.931s-3.145-51.552 6.876-61.9c7.532-7.778 23.378-13.049 23.378-13.049z" class="cls-12" data-name="Path 4452" transform="translate(-35.721 -31.636)"/>
        <g id="Group_1863" data-name="Group 1863" transform="translate(352.276 277.132)">
            <path id="Path_4453" d="M408.33 332.917s4.412 5.817 4.73 16.3 2.23 10.385-.391 11.675c-3.613 1.777-13.94 1.547-15.994-1.917 0 0 4.925-12.294 2.418-17.541z" class="cls-4" data-name="Path 4453" transform="translate(-391.438 -305.992)"/>
            <path id="Path_4454" d="M408.742 332.917a24.174 24.174 0 0 1 3.265 7.083c-3.672 4.629-8.373 6.753-11.839 6.654a10.752 10.752 0 0 0-.662-5.22z" class="cls-13" data-name="Path 4454" transform="translate(-391.849 -305.992)"/>
            <path id="Path_4455" d="M406.534 307.416a12.06 12.06 0 0 0-11.158 7.985c-.363 1.027.423 4.409.089 5.355-1.537 4.348-3.826 5.215-3.826 5.215l2.754 1.154a47.68 47.68 0 0 0-.44 6.226c.009 2.245.15 4.473 1.381 5.748 2.946 3.052 13.429 1.154 18.138-8.1s1.255-23.993-6.938-23.583z" class="cls-4" data-name="Path 4455" transform="translate(-390.705 -302.281)"/>
            <path id="Path_4456" d="M412.477 302.127l.254-.718a5.6 5.6 0 0 1 2.6 3.647c.269 1.673-.472 2.823-1.494 4.185l-.152-.135a7.706 7.706 0 0 0 1.045-1.919 3.8 3.8 0 0 0-.811-3.845 5.976 5.976 0 0 0-1.348-1.16c-.071-.042-.161-.082-.094-.055z" class="cls-14" data-name="Path 4456" transform="translate(-393.733 -301.409)"/>
            <path id="Path_4457" d="M398.247 322.3a.854.854 0 1 0 .694-1.121.94.94 0 0 0-.694 1.121z" class="cls-14" data-name="Path 4457" transform="translate(-391.665 -304.284)"/>
            <path id="Path_4458" d="M402.6 319.845a6.878 6.878 0 0 0-3.248-1.44 6.3 6.3 0 0 0-2.119.109l-.039-.963s3.931-.406 5.406 2.294z" class="cls-14" data-name="Path 4458" transform="translate(-391.513 -303.754)"/>
            <path id="Path_4459" d="M408.038 302.182l-11.816 1.425.589 2.528-2.207-2.272-4.057 1.714s5.289 3.669 6.347 5.882c0 0 7.486-.246 8.486 1.848s-1.707 8.9.544 9.7 3.424 1.554 3.953 2.66.481 8.795.481 8.795l.346 1.075s7.323-11.129 8.01-16.354-1.691-15.015-1.691-15.015l-4.146-1.465-1.29 2.03z" class="cls-14" data-name="Path 4459" transform="translate(-390.546 -301.521)"/>
            <path id="Path_4460" d="M410.893 325.353s2.729-4.719 3.852-2.367-1.207 6.616-2.212 6.26-2.723-.829-1.64-3.893z" class="cls-4" data-name="Path 4460" transform="translate(-393.456 -304.452)"/>
            <path id="Path_4461" d="M411.38 326.221s1.859-2.423 2.411-1.267-.012 3.774-1.187 3.358-1.555-1.15-1.224-2.091z" class="cls-13" data-name="Path 4461" transform="translate(-393.56 -304.788)"/>
            <path id="Path_4462" d="M405.715 328.584c0 .768-1.454 1.391-3.247 1.391s-3.246-.623-3.246-1.391 1.454-1.391 3.246-1.391 3.247.623 3.247 1.391z" class="cls-13" data-name="Path 4462" transform="translate(-391.808 -305.16)"/>
            <g id="Group_1862" data-name="Group 1862" transform="translate(4.798 27.993)">
                <path id="Path_4463" d="M396.6 337.25a.44.44 0 0 1-.042-.878c.028 0 2.854-.3 3.686-1.961a.441.441 0 1 1 .788.395c-1.051 2.1-4.254 2.43-4.39 2.443z" class="cls-14" data-name="Path 4463" transform="translate(-396.161 -334.167)"/>
            </g>
        </g>
        <g id="Group_1864" data-name="Group 1864" transform="translate(389.937 369.587)">
            <path id="Path_4464" fill="#2846a6" d="M448.176 447.045a.287.287 0 0 1-.276-.367c3.094-10.735 2.741-19.626-1.049-26.428a22.131 22.131 0 0 0-12.024-10.084.288.288 0 1 1 .156-.554 22.721 22.721 0 0 1 12.366 10.348c3.873 6.941 4.244 15.984 1.1 26.877a.288.288 0 0 1-.273.208z" data-name="Path 4464" transform="translate(-434.617 -409.602)"/>
        </g>
        <g id="Group_1865" data-name="Group 1865" transform="translate(454.445 482.358)">
            <path id="Path_4465" d="M524.755 541.666s1.6 6.522 2.726 11.089 3.442 11.719 4 14-2.6 11.82-4.425 11.693-3.247-7.733-6.115-11.178-11.188-8.326-10.436-9.606-1.07-7.969-.121-9.586 12.979-7.278 14.371-6.412z" class="cls-9" data-name="Path 4465" transform="translate(-510.107 -541.571)"/>
            <path id="Path_4466" d="M530.012 566.021l-4.49-13.68a28.19 28.19 0 0 1-1.407-8.989l.009-1.287c1.324-.428 2.324-.614 2.67-.4 0 0 1.6 6.522 2.726 11.088s3.441 11.719 4 14-2.6 11.82-4.425 11.693c-.585-.041-1.131-.853-1.694-2.048.999-1.98 3.387-7.218 2.611-10.377z" class="cls-10" data-name="Path 4466" transform="translate(-512.145 -541.571)"/>
            <path id="Path_4467" d="M520.437 553.994s.589 12.651.339 14.053-6.433-4.09-6.433-4.09.239-9.861 1.389-10.708 3.287-.055 4.705.745z" class="cls-10" data-name="Path 4467" transform="translate(-510.723 -543.216)"/>
            <path id="Path_4468" d="M515.968 553.231c1.353-1.142 3.868.079 4.963.583.15 2.628.73 10.524.081 14.215 0-1.472-.537-7.415-.608-13.907-1.204-.722-3.189-1.6-4.436-.891z" class="cls-11" data-name="Path 4468" transform="translate(-510.96 -543.198)"/>
            <path id="Path_4469" d="M533.4 554.207c-2.044-5.973-4.95-13.573-6.282-12.542-2.39 1.852 1.368 8.456 2.139 10.43a55.7 55.7 0 0 1 3.408 13.481c.538 4.383-2.21 6.506-3.456 10.419-.241.756-.356 1.741.292 2.2.762.54 1.785-.172 2.368-.9a24.741 24.741 0 0 0 3.063-5.614 11.453 11.453 0 0 0 .659-10.781c-.191-.557-1.056-3.373-2.191-6.693z" class="cls-11" data-name="Path 4469" transform="translate(-512.467 -541.57)"/>
        </g>
        <g id="Group_1867" data-name="Group 1867" transform="translate(319.005 146.782)">
            <g id="Group_1866" data-name="Group 1866">
                <path id="Rectangle_976" fill="#7c9afe" d="M2.336 0h127.81a2.335 2.335 0 0 1 2.335 2.335v85.76a2.335 2.335 0 0 1-2.335 2.335H2.336A2.336 2.336 0 0 1 0 88.094V2.336A2.336 2.336 0 0 1 2.336 0z" data-name="Rectangle 976"/>
            </g>
            <path id="Rectangle_977" d="M0 0H47.964V66.231H0z" class="cls-17" data-name="Rectangle 977" transform="translate(18.277 10.892)"/>
            <path id="Path_4470" d="M444.093 237.183c4.232 0 7.663 1.286 7.663 2.873 0 .794-.858 1.512-2.245 2.032l.712 2.757-2.609-2.236a18.621 18.621 0 0 1-3.521.321c-4.232 0-7.663-1.287-7.663-2.874s3.431-2.873 7.663-2.873z" class="cls-17" data-name="Path 4470" transform="translate(-363.95 -161.717)"/>
            <path id="Rectangle_978" d="M0 0H52.628V2.961H0z" class="cls-17" data-name="Rectangle 978" transform="translate(72.48 10.892)"/>
            <path id="Rectangle_979" d="M0 0H52.628V2.961H0z" class="cls-17" data-name="Rectangle 979" transform="translate(72.48 17.307)"/>
            <path id="Rectangle_980" d="M0 0H52.628V2.961H0z" class="cls-17" data-name="Rectangle 980" transform="translate(72.48 23.722)"/>
            <path id="Rectangle_981" d="M0 0H52.628V2.96H0z" class="cls-17" data-name="Rectangle 981" transform="translate(72.48 30.137)"/>
            <path id="Path_4471" d="M410.553 193.136c0 8.158-5.385 14.772-12.028 14.772s-12.025-6.614-12.025-14.772 5.385-14.773 12.028-14.773 12.025 6.614 12.025 14.773z" class="cls-18" data-name="Path 4471" transform="translate(-356.686 -153.161)"/>
            <path id="Path_4472" d="M385.76 195.238a18.315 18.315 0 0 1 .161-2.421 3.556 3.556 0 0 0-2.454 3.5 3.488 3.488 0 0 0 2.9 3.589 18.094 18.094 0 0 1-.607-4.668z" class="cls-18" data-name="Path 4472" transform="translate(-356.245 -155.264)"/>
            <path id="Path_4473" d="M414.724 192.763a18.3 18.3 0 0 1-.443 7.151 3.458 3.458 0 0 0 3.089-3.6 3.526 3.526 0 0 0-2.646-3.551z" class="cls-18" data-name="Path 4473" transform="translate(-360.728 -155.256)"/>
            <path id="Path_4474" d="M400.179 213.16a10.189 10.189 0 0 1-2.313-.267v13.849h6.107v-14.313a10.248 10.248 0 0 1-3.794.731z" class="cls-18" data-name="Path 4474" transform="translate(-358.34 -158.116)"/>
            <path id="Path_4475" d="M398.673 176.608c5.877 0 10.806 5.057 12.031 11.8 1.894-4.366-4.814-15.821-4.814-15.821s-.462 2.776-2.869 2.035-1.665-5.613-1.665-5.613l-2.263 3.486-1.623-4.164-1.11 4.256-2.405-3.578s1.2 2.56 0 4.5-5.366 3.053-6.2 6.2a6.309 6.309 0 0 0 .3 4.33c2.145-4.439 6.1-7.431 10.618-7.431z" class="cls-18" data-name="Path 4475" transform="translate(-356.834 -151.702)"/>
            <path id="Rectangle_982" d="M8.283 0h18.038A8.283 8.283 0 0 1 34.6 8.283v2.777H0V8.283A8.283 8.283 0 0 1 8.283 0z" class="cls-18" data-name="Rectangle 982" transform="translate(25.555 65.295)"/>
        </g>
        <g id="Group_1868" data-name="Group 1868" transform="translate(278.072 235.675)">
            <path id="Path_4476" d="M307.232 269.626s.091 8.373 1.542 8.956 1.174-9.69 1.174-9.69z" class="cls-13" data-name="Path 4476" transform="translate(-304.222 -255.222)"/>
            <path id="Path_4477" d="M352.409 322.316c-7.6-14.835-30.522-37.614-30.522-37.614s-1.093-8.37-2.047-11.077-4.315-9.091-5.267-11.8-6.5-9.29-7.56-8.917 4.068 6.585 4.4 8.992a40.066 40.066 0 0 0 2.335 7.123c-.131-.305-1.912-4.442-2.986-4.957-.856-.41-2.585.063-2.761 1.106-1.06 0-1.938 1.246-1.938 2.418 0 0-2.349.147-2.349 1.542s2.283 7.929 3.16 7.929-.3-5.58-.3-5.58l4.678 7.981c.3.58.642 1.185 1.021 1.8a70.924 70.924 0 0 0 5.521 7.4s13.86 27.858 18.219 34.336 6.4 8.19 8.915 15.319c.893 2.535 4.618 7.639 9.38 13.15 3.845-5.214 6.563-11.464 9.112-16.871-4.706-3.824-8.777-7.921-11.011-12.28z" class="cls-4" data-name="Path 4477" transform="translate(-303.71 -252.895)"/>
        </g>
        <path id="Path_4478" fill="#ffcb57" d="M393.928 363.586c-2.1-5.966-17.094-13.617-28.4-22.82-.831 10.224-7 16.87-13.018 19.008 8.632 9.989 24.59 19.18 29.458 19.007 8.608-.305 14.932-6.745 11.96-15.195z" data-name="Path 4478" transform="translate(-32.737 -30.002)"/>
        <g id="Group_1871" data-name="Group 1871" transform="translate(175.568 184.262)">
            <g id="Group_1869" data-name="Group 1869" transform="translate(263.287 27.738)">
                <path id="Path_4479" d="M497.027 230.415a1.453 1.453 0 0 1-.789-.232c-1.194-.77-2.429-1.539-3.669-2.286a1.457 1.457 0 1 1 1.5-2.5c1.266.761 2.526 1.546 3.745 2.333a1.457 1.457 0 0 1-.79 2.682z" class="cls-20" data-name="Path 4479" transform="translate(-491.863 -225.191)"/>
            </g>
            <g id="Group_1870" data-name="Group 1870">
                <path id="Path_4480" d="M258.495 437.539a1.452 1.452 0 0 1-.692-.174c-3.129-1.689-5.683-3.093-7.589-4.172a1.457 1.457 0 1 1 1.435-2.536c1.889 1.068 4.427 2.463 7.54 4.143a1.457 1.457 0 0 1-.693 2.74zm-17.921-11.058a1.449 1.449 0 0 1-.867-.286c-2.341-1.736-4.642-3.532-6.839-5.338a1.457 1.457 0 0 1 1.85-2.252c2.16 1.776 4.422 3.542 6.725 5.249a1.457 1.457 0 0 1-.869 2.628zM224.5 412.936a1.452 1.452 0 0 1-1.009-.406c-2.1-2.013-4.144-4.1-6.088-6.2a1.457 1.457 0 0 1 2.136-1.981c1.907 2.057 3.915 4.1 5.971 6.074a1.457 1.457 0 0 1-1.01 2.508zm-14.066-15.61a1.453 1.453 0 0 1-1.154-.567c-1.781-2.3-3.494-4.676-5.093-7.053a1.457 1.457 0 0 1 2.419-1.626c1.562 2.324 3.238 4.645 4.979 6.9a1.458 1.458 0 0 1-1.151 2.348zm-11.449-17.62a1.457 1.457 0 0 1-1.285-.769c-1.369-2.556-2.658-5.189-3.831-7.824a1.457 1.457 0 0 1 2.662-1.186c1.145 2.572 2.4 5.14 3.738 7.634a1.457 1.457 0 0 1-1.284 2.145zm-8.225-19.337a1.458 1.458 0 0 1-1.387-1.011c-.887-2.754-1.682-5.576-2.361-8.391a1.457 1.457 0 1 1 2.833-.685c.663 2.744 1.437 5.5 2.3 8.181a1.458 1.458 0 0 1-.94 1.835 1.482 1.482 0 0 1-.444.071zm-4.6-20.5a1.457 1.457 0 0 1-1.442-1.267q-.129-.99-.244-1.984c-.255-2.212-.452-4.461-.585-6.686a1.457 1.457 0 0 1 2.908-.175c.132 2.172.324 4.368.573 6.53q.11.972.238 1.936a1.454 1.454 0 0 1-1.447 1.647zm-.942-21h-.058a1.458 1.458 0 0 1-1.4-1.513c.113-2.876.329-5.8.641-8.68a1.457 1.457 0 1 1 2.9.313c-.306 2.82-.516 5.672-.626 8.481a1.458 1.458 0 0 1-1.459 1.402zm2.57-20.857a1.456 1.456 0 0 1-1.43-1.752c.583-2.813 1.27-5.659 2.045-8.457a1.457 1.457 0 1 1 2.808.776c-.757 2.738-1.43 5.521-2 8.272a1.457 1.457 0 0 1-1.426 1.164zm5.89-20.176a1.456 1.456 0 0 1-1.361-1.976c1.023-2.693 2.151-5.394 3.35-8.028a1.458 1.458 0 1 1 2.652 1.209c-1.173 2.577-2.276 5.22-3.278 7.856a1.459 1.459 0 0 1-1.365.942zm8.974-19.008a1.456 1.456 0 0 1-1.264-2.178c1.428-2.5 2.958-5 4.546-7.417a1.458 1.458 0 0 1 2.436 1.6c-1.556 2.366-3.053 4.809-4.451 7.259a1.456 1.456 0 0 1-1.269.739zm11.793-17.4a1.457 1.457 0 0 1-1.139-2.364c1.8-2.263 3.693-4.494 5.63-6.634a1.457 1.457 0 0 1 2.161 1.956c-1.9 2.094-3.749 4.278-5.511 6.491a1.452 1.452 0 0 1-1.143.551zm14.331-15.38a1.457 1.457 0 0 1-.978-2.537c2.151-1.95 4.407-3.829 6.7-5.584a1.457 1.457 0 1 1 1.77 2.315c-2.233 1.706-4.425 3.533-6.515 5.429a1.453 1.453 0 0 1-.98.378zm208.824-8.641a1.443 1.443 0 0 1-.647-.153c-2.509-1.248-5.111-2.459-7.734-3.6a1.458 1.458 0 0 1 1.161-2.674c2.67 1.161 5.319 2.394 7.87 3.664a1.457 1.457 0 0 1-.65 2.762zm-191.907-3.794a1.457 1.457 0 0 1-.739-2.713c2.472-1.455 5.058-2.84 7.687-4.115a1.458 1.458 0 0 1 1.273 2.623c-2.559 1.242-5.076 2.588-7.482 4.005a1.458 1.458 0 0 1-.738.199zm172.538-4.389a1.471 1.471 0 0 1-.487-.084c-2.65-.941-5.38-1.84-8.113-2.675a1.457 1.457 0 0 1 .852-2.788c2.773.848 5.543 1.76 8.234 2.715a1.457 1.457 0 0 1-.486 2.831zm-153.5-4.477a1.457 1.457 0 0 1-.493-2.829c2.675-.959 5.462-1.854 8.287-2.658a1.457 1.457 0 1 1 .8 2.8c-2.761.787-5.487 1.662-8.1 2.6a1.488 1.488 0 0 1-.489.087zm133.331-1.5a1.5 1.5 0 0 1-.344-.041c-2.72-.661-5.529-1.286-8.349-1.862a1.457 1.457 0 0 1 .583-2.856c2.855.583 5.7 1.218 8.453 1.885a1.457 1.457 0 0 1-.343 2.874zm-113.048-4.014a1.458 1.458 0 0 1-.277-2.888c2.771-.54 5.652-1.026 8.562-1.442a1.458 1.458 0 0 1 .412 2.886c-2.862.408-5.694.885-8.417 1.418a1.567 1.567 0 0 1-.275.03zm92.408-.041a1.4 1.4 0 0 1-.223-.017c-2.788-.427-5.643-.82-8.486-1.165a1.457 1.457 0 0 1 .353-2.893c2.872.35 5.756.745 8.574 1.178a1.457 1.457 0 0 1-.219 2.9zm-20.9-2.418h-.119c-2.8-.225-5.683-.419-8.557-.575a1.457 1.457 0 0 1 .16-2.911c2.9.158 5.8.353 8.63.58a1.457 1.457 0 0 1-.115 2.91zm-50.658-.332a1.457 1.457 0 0 1-.114-2.91c2.788-.223 5.7-.4 8.646-.532a1.458 1.458 0 1 1 .127 2.912c-2.914.127-5.788.3-8.541.525-.035.006-.075.008-.114.008zm29.638-.707h-.033c-2.789-.062-5.518-.092-8.111-.092h-.458a1.457 1.457 0 1 1 0-2.915h.463c2.615 0 5.366.032 8.176.093a1.457 1.457 0 0 1-.032 2.914z" class="cls-20" data-name="Path 4480" transform="translate(-183.758 -192.731)"/>
            </g>
        </g>
        <g id="Group_1872" data-name="Group 1872" transform="translate(449.582 191.275)">
            <path id="Path_4481" fill="#0a4cfe" d="M555.355 251.755l-39.093-31.489-11.845 9.23z" data-name="Path 4481" transform="translate(-504.416 -203.749)"/>
            <path id="Path_4482" d="M513.283 254.038l3.285-19.865 40.076 19.6z" class="cls-22" data-name="Path 4482" transform="translate(-505.706 -205.772)"/>
            <path id="Path_4483" d="M520.442 200.938l36.929 48.006-39.093-31.489z" class="cls-22" data-name="Path 4483" transform="translate(-506.432 -200.938)"/>
            <path id="Path_4484" fill="#0033bf" d="M504.416 231.067l10.862 2.655-.477 2.884z" data-name="Path 4484" transform="translate(-504.416 -205.32)"/>
        </g>
        <g id="Group_1873" data-name="Group 1873" transform="translate(143.474 256.383)">
            <path id="Rectangle_983" fill="#91aafe" d="M2.354 0h128.8a2.354 2.354 0 0 1 2.346 2.354v86.421a2.353 2.353 0 0 1-2.353 2.353H2.354A2.354 2.354 0 0 1 0 88.774V2.354A2.354 2.354 0 0 1 2.354 0z" data-name="Rectangle 983"/>
            <path id="Rectangle_984" fill="#004d54" d="M2.354 0h128.8a2.353 2.353 0 0 1 2.346 2.353v4.024a2.354 2.354 0 0 1-2.354 2.354H2.354A2.354 2.354 0 0 1 0 6.377V2.354A2.354 2.354 0 0 1 2.354 0z" data-name="Rectangle 984"/>
            <path id="Rectangle_985" d="M0 0H33.074V51.558H0z" class="cls-26" data-name="Rectangle 985" transform="translate(12.286 17.516)"/>
            <path id="Rectangle_986" d="M0 0H70.31V2.899H0z" class="cls-26" data-name="Rectangle 986" transform="translate(54.618 17.516)"/>
            <path id="Rectangle_987" d="M0 0H70.31V3.353H0z" class="cls-26" data-name="Rectangle 987" transform="translate(54.618 23.649)"/>
            <path id="Rectangle_988" d="M0 0H88.756V4.777H0z" class="cls-6" data-name="Rectangle 988" transform="translate(4.994 2.445)"/>
            <path id="Path_4485" d="M285.527 284.594a.735.735 0 1 1-.735-.735.736.736 0 0 1 .735.735z" class="cls-6" data-name="Path 4485" transform="translate(-166.253 -278.107)"/>
            <path id="Path_4486" d="M287.611 284.594a.735.735 0 1 1-.735-.735.736.736 0 0 1 .735.735z" class="cls-6" data-name="Path 4486" transform="translate(-166.556 -278.107)"/>
            <path id="Path_4487" d="M289.695 284.594a.735.735 0 1 1-.735-.735.735.735 0 0 1 .735.735z" class="cls-6" data-name="Path 4487" transform="translate(-166.86 -278.107)"/>
            <path id="Path_4488" fill="#121841" d="M254.091 283.982l-.706-1.219a1.285 1.285 0 0 0 .471-1 1.2 1.2 0 1 0-1.2 1.263 1.14 1.14 0 0 0 .464-.1l.5 1.306a.367.367 0 0 0 .02.041.256.256 0 0 0 .362.091.286.286 0 0 0 .089-.382zm-2.342-2.221a.911.911 0 1 1 .909.959.936.936 0 0 1-.909-.959z" data-name="Path 4488" transform="translate(-161.512 -277.619)"/>
            <path id="Rectangle_989" d="M0 0H7.501V4.526H0z" class="cls-12" data-name="Rectangle 989" transform="translate(97.396 2.445)"/>
            <path id="Rectangle_990" fill="#e4edff" d="M0 0H61.771V55.315H0z" data-name="Rectangle 990" transform="translate(60.329 31.862)"/>
            <path id="Rectangle_991" d="M0 0H24.463V23.383H0z" class="cls-6" data-name="Rectangle 991" transform="translate(66.752 40.662)"/>
            <path id="Rectangle_992" d="M0 0H24.463V19.432H0z" class="cls-6" data-name="Rectangle 992" transform="translate(96.592 67.745)"/>
            <path id="Rectangle_993" d="M0 0H29.895V2.514H0z" class="cls-12" data-name="Rectangle 993" transform="translate(76.929 34.628)"/>
            <path id="Rectangle_994" d="M0 0H25.545V1.257H0z" class="cls-26" data-name="Rectangle 994" transform="translate(95.51 40.662)"/>
            <path id="Rectangle_995" d="M0 0H25.545V1.258H0z" class="cls-26" data-name="Rectangle 995" transform="translate(95.51 42.841)"/>
            <path id="Rectangle_996" d="M0 0H25.545V1.257H0z" class="cls-26" data-name="Rectangle 996" transform="translate(95.51 45.021)"/>
            <path id="Rectangle_997" d="M0 0H25.545V1.257H0z" class="cls-26" data-name="Rectangle 997" transform="translate(95.51 47.2)"/>
            <path id="Rectangle_998" d="M0 0H25.545V1.257H0z" class="cls-26" data-name="Rectangle 998" transform="translate(95.51 49.379)"/>
            <path id="Rectangle_999" d="M0 0H25.545V1.257H0z" class="cls-26" data-name="Rectangle 999" transform="translate(95.51 51.558)"/>
            <path id="Rectangle_1000" d="M0 0H25.545V1.257H0z" class="cls-26" data-name="Rectangle 1000" transform="translate(95.51 53.737)"/>
            <path id="Rectangle_1001" d="M0 0H25.545V1.257H0z" class="cls-26" data-name="Rectangle 1001" transform="translate(95.51 55.916)"/>
            <path id="Rectangle_1002" d="M0 0H25.545V1.257H0z" class="cls-26" data-name="Rectangle 1002" transform="translate(95.51 58.095)"/>
            <path id="Rectangle_1003" d="M0 0H25.545V1.257H0z" class="cls-26" data-name="Rectangle 1003" transform="translate(95.51 60.274)"/>
            <path id="Rectangle_1004" d="M0 0H25.545V1.258H0z" class="cls-26" data-name="Rectangle 1004" transform="translate(95.51 62.453)"/>
        </g>
        <g id="Group_1876" data-name="Group 1876" transform="translate(197.748 174.317)">
            <rect id="Rectangle_1005" width="76.736" height="52.379" fill="#b0c2fe" data-name="Rectangle 1005" rx="1.353"/>
            <g id="Group_1875" data-name="Group 1875" transform="translate(11.915 10.108)">
                <path id="Rectangle_1006" fill="#95a9fe" d="M4.013 0h43.736a4.014 4.014 0 0 1 4.014 4.014v24.555a4.014 4.014 0 0 1-4.014 4.014H4.013A4.013 4.013 0 0 1 0 28.569V4.013A4.013 4.013 0 0 1 4.013 0z" data-name="Rectangle 1006"/>
                <g id="Group_1874" data-name="Group 1874" transform="translate(2.691 2.911)">
                    <path id="Path_4489" d="M271.082 196.328h-40.308l19.817 18.717z" class="cls-6" data-name="Path 4489" transform="translate(-227.382 -196.328)"/>
                    <path id="Path_4490" d="M249.976 220.278L226.8 198.392v25h46.382v-24.315z" class="cls-6" data-name="Path 4490" transform="translate(-226.804 -196.628)"/>
                </g>
            </g>
        </g>
        <path id="Path_4491" d="M469.56 239.29a3.572 3.572 0 0 1 2.658-1.067 2.484 2.484 0 0 1 2.659 2.372c0 1.478-1.479 3.227-5.318 4.746-3.839-1.519-5.317-3.269-5.317-4.746a2.483 2.483 0 0 1 2.658-2.372 3.57 3.57 0 0 1 2.66 1.067z" class="cls-17" data-name="Path 4491" transform="translate(-48.99 -15.086)"/>
    </g>
</svg>
