<svg xmlns="http://www.w3.org/2000/svg" width="605" height="323.964" viewBox="0 0 605 323.964">
    <defs>
        <style>
            .cls-2{fill:#aed3ff}.cls-3{fill:#d2e4ff}.cls-4{fill:#f3f9ff}.cls-5{fill:#ee9849}.cls-6{fill:#a6c7f9}.cls-7{fill:#c65447}.cls-9{fill:#dd7c2c}.cls-10{fill:#a8d29f}.cls-11{fill:#f1a34f}.cls-12{fill:#82b378}.cls-13{fill:#dd8936}.cls-14{fill:#e58638}.cls-15{fill:#163560}.cls-16{fill:#1c468a}.cls-17{fill:#ffb27d}.cls-19{fill:#e37970}.cls-20{fill:#d68d5d}.cls-21{fill:#80bdcc}.cls-23{fill:#5f9aa8}.cls-24{fill:#c45446}.cls-25{fill:#e49963}.cls-26{fill:#4a75cb}.cls-27{fill:#2b478b}.cls-28{fill:#739af0}
        </style>
    </defs>
    <g id="Group_2034" data-name="Group 2034" transform="translate(-345.002 -157.53)">
        <path id="Path_4749" fill="#e5f2ff" d="M993.976 325.936C970.184 305.642 941.5 183.252 843.247 247c-50.764 32.934-136.363-28.273-207.214-7.132-65.068 19.415-71.34 83.383-65.044 104.227 12.717 42.1-26.859 48.37-63.572 66.46-57.589 28.376-15.241 128.1 39.164 128.578s384-.95 384-.95 79.034.2 111.9-43.421c35.367-46.944 12.947-116.407-48.505-168.826z" data-name="Path 4749" transform="translate(-109.295 -57.732)"/>
        <g id="Group_2026" data-name="Group 2026" transform="translate(402.441 157.53)">
            <g id="Group_2010" data-name="Group 2010" transform="translate(377.737 35.374)">
                <path id="Rectangle_1068" d="M0 0H135.449V227.575H0z" class="cls-2" data-name="Rectangle 1068" transform="rotate(180 69.847 113.787)"/>
                <path id="Rectangle_1069" d="M0 0H135.449V227.575H0z" class="cls-3" data-name="Rectangle 1069"/>
                <path id="Rectangle_1070" d="M0 0H117.322V79.268H0z" class="cls-4" data-name="Rectangle 1070" transform="translate(9.224 12.713)"/>
                <path id="Rectangle_1071" d="M0 0H62.966V42.323H0z" class="cls-4" data-name="Rectangle 1071" transform="translate(61.557 166.367)"/>
                <path id="Path_4750" d="M2713.473 623.35s20.032-2.5 32.272 8.781 35.043 1 44.224 0c15.964-1.737 28.478 3.485 32.189 9.226v17.222h-108.685z" class="cls-5" data-name="Path 4750" transform="translate(-2699.411 -570.179)"/>
                <path id="Rectangle_1072" d="M0 0H0.839V26.893H0z" class="cls-6" data-name="Rectangle 1072" transform="translate(29.588 25.454)"/>
                <path id="Rectangle_1073" d="M0 0H0.839V26.893H0z" class="cls-6" data-name="Rectangle 1073" transform="translate(62.53 36.994)"/>
                <path id="Rectangle_1074" d="M0 0H0.839V26.893H0z" class="cls-6" data-name="Rectangle 1074" transform="translate(96.521 30.909)"/>
                <path id="Path_4751" d="M2818.69 494.007h-6.434a.7.7 0 0 1-.7-.7.7.7 0 0 1 .7-.7h6.434a.7.7 0 0 1 .7.7.7.7 0 0 1-.7.7z" class="cls-6" data-name="Path 4751" transform="translate(-2778.89 -464.426)"/>
                <path id="Path_4752" d="M2818.69 507.281h-6.434a.7.7 0 0 1-.7-.7.7.7 0 0 1 .7-.7h6.434a.7.7 0 0 1 .7.7.7.7 0 0 1-.7.7z" class="cls-6" data-name="Path 4752" transform="translate(-2778.89 -475.182)"/>
                <path id="Path_4753" d="M2989.782 566.279h-6.435a.7.7 0 0 1-.7-.7.7.7 0 0 1 .7-.7h6.435a.7.7 0 0 1 .7.7.7.7 0 0 1-.7.7z" class="cls-6" data-name="Path 4753" transform="translate(-2917.531 -522.99)"/>
                <path id="Path_4754" d="M2989.782 579.28h-6.435a.7.7 0 0 1-.7-.7.7.7 0 0 1 .7-.7h6.435a.7.7 0 0 1 .7.7.7.7 0 0 1-.7.7z" class="cls-6" data-name="Path 4754" transform="translate(-2917.531 -533.525)"/>
                <path id="Path_4755" d="M3171.938 512.812h-6.438a.7.7 0 0 1-.7-.7.7.7 0 0 1 .7-.7h6.435a.7.7 0 0 1 .7.7.7.7 0 0 1-.697.7z" class="cls-6" data-name="Path 4755" transform="translate(-3065.136 -479.664)"/>
                <path id="Path_4756" d="M3171.938 525.814h-6.438a.7.7 0 0 1-.7-.7.7.7 0 0 1 .7-.7h6.435a.7.7 0 0 1 .7.7.7.7 0 0 1-.697.7z" class="cls-6" data-name="Path 4756" transform="translate(-3065.136 -490.2)"/>
                <g id="Group_2004" data-name="Group 2004" transform="translate(103.378 100.673)">
                    <path id="Path_4757" d="M3184.364 886.381a11.584 11.584 0 1 1 11.584 11.584 11.584 11.584 0 0 1-11.584-11.584z" class="cls-4" data-name="Path 4757" transform="translate(-3184.364 -874.797)"/>
                    <path id="Path_4758" d="M3225.422 890.576a10.6 10.6 0 0 1-17.768 7.813l7.167-7.813v-10.6a10.6 10.6 0 0 1 10.601 10.6z" class="cls-7" data-name="Path 4758" transform="translate(-3203.236 -878.992)"/>
                    <path id="Path_4759" d="M3206.521 923.3h-3.807a.32.32 0 0 1-.319-.319.319.319 0 0 1 .319-.319h3.807a.32.32 0 0 1 .319.319.32.32 0 0 1-.319.319z" class="cls-6" data-name="Path 4759" transform="translate(-3198.975 -913.582)"/>
                </g>
                <g id="Group_2005" data-name="Group 2005" transform="translate(74.617 100.673)">
                    <circle id="Ellipse_178" cx="11.584" cy="11.584" r="11.584" class="cls-4" data-name="Ellipse 178"/>
                    <path id="Path_4760" fill="#e57970" d="M3048.506 890.576l6.514 8.365a10.6 10.6 0 1 1 4.043-9.333z" data-name="Path 4760" transform="translate(-3036.921 -878.992)"/>
                    <path id="Path_4761" d="M3124.165 946.966h-2.65a.32.32 0 0 1-.319-.319.32.32 0 0 1 .319-.319h2.65a.32.32 0 0 1 .319.319.319.319 0 0 1-.319.319z" class="cls-6" data-name="Path 4761" transform="translate(-3104.416 -932.76)"/>
                </g>
                <g id="Group_2006" data-name="Group 2006" transform="translate(103.378 132.579)">
                    <path id="Path_4762" d="M3184.364 1054.594a11.584 11.584 0 1 1 11.584 11.584 11.584 11.584 0 0 1-11.584-11.584z" class="cls-4" data-name="Path 4762" transform="translate(-3184.364 -1043.01)"/>
                    <path id="Path_4763" d="M3225.422 1058.788a10.6 10.6 0 0 1-17.768 7.813l7.167-7.813v-10.6a10.6 10.6 0 0 1 10.601 10.6z" class="cls-5" data-name="Path 4763" transform="translate(-3203.236 -1047.204)"/>
                    <path id="Path_4764" d="M3206.521 1091.51h-3.807a.32.32 0 0 1-.319-.319.32.32 0 0 1 .319-.319h3.807a.32.32 0 0 1 .319.319.32.32 0 0 1-.319.319z" class="cls-6" data-name="Path 4764" transform="translate(-3198.975 -1081.794)"/>
                </g>
                <g id="Group_2007" data-name="Group 2007" transform="translate(74.617 132.579)">
                    <path id="Path_4765" d="M3032.729 1054.594a11.584 11.584 0 1 1 11.584 11.584 11.584 11.584 0 0 1-11.584-11.584z" class="cls-4" data-name="Path 4765" transform="translate(-3032.729 -1043.01)"/>
                    <path id="Path_4766" d="M3059.064 1057.82a10.6 10.6 0 1 0-4.043 9.333l-6.514-8.365z" class="cls-7" data-name="Path 4766" transform="translate(-3036.921 -1047.204)"/>
                    <path id="Path_4767" d="M3124.165 1115.179h-2.65a.32.32 0 0 1-.319-.319.32.32 0 0 1 .319-.319h2.65a.32.32 0 0 1 .319.319.319.319 0 0 1-.319.319z" class="cls-6" data-name="Path 4767" transform="translate(-3104.416 -1100.973)"/>
                </g>
                <g id="Group_2008" data-name="Group 2008" transform="translate(64.013 171.583)">
                    <path id="Path_4768" d="M3034.622 1282.8h-57.8v-34.149h.719v33.431h57.076z" class="cls-6" data-name="Path 4768" transform="translate(-2976.827 -1248.647)"/>
                </g>
                <g id="Group_2009" data-name="Group 2009" transform="translate(67.482 172.976)">
                    <path id="Path_4769" d="M3009.712 1298.388c-7.075-5.631-14.6 0-14.6 0v9.628h52.893v-24.888c-14.373.363-31.218 20.892-38.293 15.26z" class="cls-6" data-name="Path 4769" transform="translate(-2995.113 -1277.981)"/>
                    <path id="Path_4770" d="M2995.719 1257.2h24.646a.606.606 0 1 0 0-1.211h-24.646a.606.606 0 1 0 0 1.211z" class="cls-6" data-name="Path 4770" transform="translate(-2995.113 -1255.991)"/>
                    <path id="Path_4771" d="M2995.719 1272.8h24.646a.606.606 0 1 0 0-1.211h-24.646a.606.606 0 1 0 0 1.211z" class="cls-6" data-name="Path 4771" transform="translate(-2995.113 -1268.633)"/>
                    <path id="Rectangle_1075" d="M.605 0H16.7a.605.605 0 0 1 .605.605.606.606 0 0 1-.606.606H.605A.605.605 0 0 1 0 .606.605.605 0 0 1 .605 0z" class="cls-6" data-name="Rectangle 1075" transform="translate(0 5.753)"/>
                </g>
            </g>
            <g id="Group_2015" data-name="Group 2015" transform="translate(169.998)">
                <path id="Rectangle_1076" d="M0 0H185.329V279.496H0z" class="cls-3" data-name="Rectangle 1076"/>
                <path id="Rectangle_1077" d="M0 0H149.211V166.314H0z" class="cls-4" data-name="Rectangle 1077" transform="translate(17.907 15.634)"/>
                <circle id="Ellipse_179" cx="26.835" cy="26.835" r="26.835" class="cls-4" data-name="Ellipse 179" transform="rotate(-45 288.752 105.515)"/>
                <path id="Path_4772" d="M1722.478 1300.023a22.683 22.683 0 1 0-8.925 18.036l-13.757-18.036 21.2 8.09a22.651 22.651 0 0 0 1.482-8.09z" class="cls-5" data-name="Path 4772" transform="translate(-1651.881 -1064.94)"/>
                <circle id="Ellipse_180" cx="26.835" cy="26.835" r="26.835" class="cls-4" data-name="Ellipse 180" transform="rotate(-76.718 214.654 59.88)"/>
                <path id="Path_4773" d="M2181.831 1277.339a22.683 22.683 0 0 0-16.167 38.6l16.167-15.912 21.2 8.09a22.7 22.7 0 0 0-21.2-30.775z" class="cls-5" data-name="Path 4773" transform="translate(-2042.487 -1064.94)"/>
                <g id="Group_2011" data-name="Group 2011" transform="translate(125.683 223.568)">
                    <path id="Path_4774" d="M2217.065 1336.222h-9.656a.692.692 0 0 0-.69.69.691.691 0 0 0 .69.689h9.656a.691.691 0 0 0 .689-.689.692.692 0 0 0-.689-.69z" class="cls-9" data-name="Path 4774" transform="translate(-2206.72 -1336.222)"/>
                    <path id="Path_4775" d="M2217.065 1347.736h-9.656a.69.69 0 0 0 0 1.38h9.656a.69.69 0 0 0 0-1.38z" class="cls-9" data-name="Path 4775" transform="translate(-2206.72 -1345.552)"/>
                    <path id="Path_4776" d="M2211.4 1359.252h-3.988a.69.69 0 1 0 0 1.379h3.988a.69.69 0 1 0 0-1.379z" class="cls-9" data-name="Path 4776" transform="translate(-2206.72 -1354.884)"/>
                </g>
                <g id="Group_2012" data-name="Group 2012" transform="translate(34.067 223.568)">
                    <path id="Path_4777" d="M1734.049 1336.222h-9.656a.692.692 0 0 0-.69.69.692.692 0 0 0 .69.689h9.656a.692.692 0 0 0 .69-.689.692.692 0 0 0-.69-.69z" class="cls-9" data-name="Path 4777" transform="translate(-1723.703 -1336.222)"/>
                    <path id="Path_4778" d="M1734.049 1347.736h-9.656a.69.69 0 0 0 0 1.38h9.656a.69.69 0 1 0 0-1.38z" class="cls-9" data-name="Path 4778" transform="translate(-1723.703 -1345.552)"/>
                    <path id="Path_4779" d="M1728.38 1359.252h-3.987a.69.69 0 0 0 0 1.379h3.987a.69.69 0 1 0 0-1.379z" class="cls-9" data-name="Path 4779" transform="translate(-1723.703 -1354.884)"/>
                </g>
                <g id="Group_2013" data-name="Group 2013" transform="translate(31.194 47.731)">
                    <path id="Rectangle_1078" d="M0 0H15.745V98.084H0z" class="cls-6" data-name="Rectangle 1078" transform="translate(0 27.34)"/>
                    <path id="Rectangle_1079" d="M0 0H15.745V125.424H0z" class="cls-6" data-name="Rectangle 1079" transform="translate(25.795)"/>
                    <path id="Rectangle_1080" d="M0 0H15.745V74.364H0z" class="cls-6" data-name="Rectangle 1080" transform="translate(53.942 51.06)"/>
                    <path id="Rectangle_1081" d="M0 0H15.745V108.679H0z" class="cls-6" data-name="Rectangle 1081" transform="translate(81.33 16.745)"/>
                    <path id="Rectangle_1082" d="M0 0H15.745V59.809H0z" class="cls-6" data-name="Rectangle 1082" transform="translate(108.861 65.615)"/>
                </g>
                <g id="Group_2014" data-name="Group 2014" transform="translate(57.862 28.975)">
                    <path id="Path_4780" d="M2153.557 422.915h-13.334a1.379 1.379 0 0 0 0 2.759h13.334a1.379 1.379 0 1 0 0-2.759z" class="cls-6" data-name="Path 4780" transform="translate(-2083.897 -401.553)"/>
                    <path id="Path_4781" d="M2143.26 449.378h-3.037a1.379 1.379 0 0 0 0 2.759h3.037a1.379 1.379 0 1 0 0-2.759z" class="cls-6" data-name="Path 4781" transform="translate(-2083.897 -422.997)"/>
                    <path id="Path_4782" d="M1863.868 310.292h-13.334a1.379 1.379 0 1 0 0 2.759h13.334a1.379 1.379 0 1 0 0-2.759z" class="cls-6" data-name="Path 4782" transform="translate(-1849.154 -310.292)"/>
                    <path id="Path_4783" d="M1853.571 336.755h-3.037a1.384 1.384 0 0 0-1.38 1.379 1.383 1.383 0 0 0 1.38 1.379h3.037a1.383 1.383 0 0 0 1.379-1.379 1.383 1.383 0 0 0-1.379-1.379z" class="cls-6" data-name="Path 4783" transform="translate(-1849.154 -331.736)"/>
                    <path id="Path_4784" d="M2006.741 601.192h-13.334a1.379 1.379 0 1 0 0 2.759h13.334a1.379 1.379 0 0 0 0-2.759z" class="cls-6" data-name="Path 4784" transform="translate(-1964.928 -546.016)"/>
                    <path id="Path_4785" d="M1996.443 627.656h-3.037a1.384 1.384 0 0 0-1.38 1.38 1.384 1.384 0 0 0 1.38 1.379h3.037a1.383 1.383 0 0 0 1.379-1.379 1.383 1.383 0 0 0-1.379-1.38z" class="cls-6" data-name="Path 4785" transform="translate(-1964.928 -567.46)"/>
                    <path id="Path_4786" d="M2296.287 678.373h-13.334a1.379 1.379 0 1 0 0 2.759h13.334a1.379 1.379 0 1 0 0-2.759z" class="cls-6" data-name="Path 4786" transform="translate(-2199.554 -608.558)"/>
                    <path id="Path_4787" d="M2285.99 704.837h-3.037a1.38 1.38 0 1 0 0 2.759h3.037a1.38 1.38 0 0 0 0-2.759z" class="cls-6" data-name="Path 4787" transform="translate(-2199.554 -630.002)"/>
                </g>
            </g>
            <g id="Group_2019" data-name="Group 2019" transform="translate(9.54 105.945)">
                <path id="Rectangle_1083" d="M0 0H135.449V76.254H0z" class="cls-2" data-name="Rectangle 1083"/>
                <path id="Rectangle_1084" d="M0 0H135.449V76.254H0z" class="cls-3" data-name="Rectangle 1084" transform="translate(4.404)"/>
                <circle id="Ellipse_181" cx="24.491" cy="24.491" r="24.491" class="cls-4" data-name="Ellipse 181" transform="rotate(-45 47.35 9.978)"/>
                <g id="Group_2016" data-name="Group 2016" transform="translate(81.382 22.723)">
                    <path id="Path_4788" d="M1170.436 835.892h-40.571a2.681 2.681 0 0 0-2.673 2.673 2.681 2.681 0 0 0 2.673 2.673h40.571a2.681 2.681 0 0 0 2.673-2.673 2.681 2.681 0 0 0-2.673-2.673z" class="cls-4" data-name="Path 4788" transform="translate(-1127.191 -835.892)"/>
                    <path id="Path_4789" d="M1170.436 893.927h-40.571a2.681 2.681 0 0 0-2.673 2.673 2.681 2.681 0 0 0 2.673 2.673h40.571a2.681 2.681 0 0 0 2.673-2.673 2.681 2.681 0 0 0-2.673-2.673z" class="cls-4" data-name="Path 4789" transform="translate(-1127.191 -882.919)"/>
                    <path id="Path_4790" d="M1170.436 951.962h-40.571a2.673 2.673 0 1 0 0 5.347h40.571a2.673 2.673 0 1 0 0-5.347z" class="cls-4" data-name="Path 4790" transform="translate(-1127.191 -929.947)"/>
                </g>
                <path id="Path_4791" d="M798.435 810.349h22.423v-22.423a22.424 22.424 0 0 0-22.423 22.423z" class="cls-10" data-name="Path 4791" transform="translate(-779.41 -774.301)"/>
                <path id="Path_4792" d="M843.281 909.951h-44.846a22.424 22.424 0 0 0 22.423 22.423 22.424 22.424 0 0 0 22.423-22.423z" class="cls-11" data-name="Path 4792" transform="translate(-779.41 -873.181)"/>
                <g id="Group_2017" data-name="Group 2017" transform="translate(24.147 24.52)">
                    <path id="Path_4793" d="M838.866 845.367H826.7a1.259 1.259 0 0 0 0 2.518h12.17a1.259 1.259 0 0 0 0-2.518z" class="cls-12" data-name="Path 4793" transform="translate(-825.438 -845.367)"/>
                    <path id="Path_4794" d="M829.469 869.52H826.7a1.259 1.259 0 0 0 0 2.518h2.772a1.259 1.259 0 0 0 0-2.518z" class="cls-12" data-name="Path 4794" transform="translate(-825.438 -864.939)"/>
                </g>
                <g id="Group_2018" data-name="Group 2018" transform="translate(42.214 42.252)">
                    <path id="Path_4795" d="M934.12 938.852h-12.17a1.259 1.259 0 0 0 0 2.518h12.17a1.259 1.259 0 0 0 0-2.518z" class="cls-13" data-name="Path 4795" transform="translate(-920.692 -938.852)"/>
                    <path id="Path_4796" d="M924.722 963h-2.772a1.263 1.263 0 0 0-1.259 1.259 1.262 1.262 0 0 0 1.259 1.259h2.772a1.263 1.263 0 0 0 1.259-1.259 1.263 1.263 0 0 0-1.259-1.259z" class="cls-13" data-name="Path 4796" transform="translate(-920.692 -958.422)"/>
                </g>
            </g>
            <g id="Group_2022" data-name="Group 2022" transform="translate(0 195.854)">
                <path id="Path_4797" d="M647.833 1190.109v77.984h135.449v-77.984z" class="cls-2" data-name="Path 4797" transform="translate(-647.833 -1190.109)"/>
                <path id="Path_4798" d="M671.054 1190.109v77.984H806.5v-77.984z" class="cls-3" data-name="Path 4798" transform="translate(-666.65 -1190.109)"/>
                <circle id="Ellipse_182" cx="24.491" cy="24.491" r="24.491" class="cls-4" data-name="Ellipse 182" transform="translate(16.956 12.094)"/>
                <g id="Group_2020" data-name="Group 2020" transform="translate(81.381 22.903)">
                    <path id="Path_4799" d="M1079.56 1316.2h40.571a2.673 2.673 0 1 0 0-5.347h-40.571a2.673 2.673 0 0 0 0 5.347z" class="cls-4" data-name="Path 4799" transform="translate(-1076.887 -1310.857)"/>
                    <path id="Path_4800" d="M1120.132 1368.893h-40.572a2.673 2.673 0 1 0 0 5.347h40.571a2.673 2.673 0 1 0 0-5.347z" class="cls-4" data-name="Path 4800" transform="translate(-1076.887 -1357.885)"/>
                    <path id="Path_4801" d="M1120.132 1426.928h-40.572a2.681 2.681 0 0 0-2.673 2.673 2.681 2.681 0 0 0 2.673 2.673h40.571a2.681 2.681 0 0 0 2.673-2.673 2.681 2.681 0 0 0-2.672-2.673z" class="cls-4" data-name="Path 4801" transform="translate(-1076.887 -1404.912)"/>
                </g>
                <path id="Path_4802" d="M770.554 1383.865l-22.421-.285v.285a22.425 22.425 0 0 0 34.454 18.924z" class="cls-11" data-name="Path 4802" transform="translate(-729.107 -1346.883)"/>
                <g id="Group_2021" data-name="Group 2021" transform="translate(28.845 44.042)">
                    <rect id="Rectangle_1085" width="14.687" height="2.518" class="cls-13" data-name="Rectangle 1085" rx="1.259"/>
                    <path id="Path_4803" d="M803.938 1446.461h-2.772a1.259 1.259 0 1 0 0 2.518h2.772a1.259 1.259 0 0 0 0-2.518z" class="cls-13" data-name="Path 4803" transform="translate(-799.907 -1441.88)"/>
                </g>
            </g>
            <g id="Group_2025" data-name="Group 2025" transform="translate(0 22.782)">
                <path id="Rectangle_1086" d="M0 0H135.45V70.667H0z" class="cls-2" data-name="Rectangle 1086"/>
                <path id="Rectangle_1087" d="M0 0H135.449V70.667H0z" class="cls-3" data-name="Rectangle 1087" transform="translate(4.404)"/>
                <circle id="Ellipse_183" cx="24.491" cy="24.491" r="24.491" class="cls-4" data-name="Ellipse 183" transform="rotate(-45 47.31 9.963)"/>
                <path id="Path_4804" d="M770.556 351.191a22.424 22.424 0 0 0-10.762 42.1c3.592-6.653 10.762-19.675 10.762-19.675l10.617 19.752a22.424 22.424 0 0 0-10.617-42.174z" class="cls-10" data-name="Path 4804" transform="translate(-729.109 -337.24)"/>
                <g id="Group_2023" data-name="Group 2023" transform="translate(81.381 22.691)">
                    <rect id="Rectangle_1088" width="45.918" height="5.347" class="cls-4" data-name="Rectangle 1088" rx="2.673"/>
                    <path id="Path_4805" d="M1120.134 455.3h-40.571a2.673 2.673 0 0 0 0 5.347h40.571a2.673 2.673 0 0 0 0-5.347z" class="cls-4" data-name="Path 4805" transform="translate(-1076.889 -444.297)"/>
                    <path id="Path_4806" d="M1120.134 513.34h-40.571a2.673 2.673 0 0 0 0 5.346h40.571a2.673 2.673 0 0 0 0-5.346z" class="cls-4" data-name="Path 4806" transform="translate(-1076.889 -491.325)"/>
                </g>
                <g id="Group_2024" data-name="Group 2024" transform="translate(28.845 25.663)">
                    <path id="Path_4807" d="M813.337 412.94h-12.169a1.259 1.259 0 1 0 0 2.518h12.169a1.259 1.259 0 1 0 0-2.518z" class="cls-12" data-name="Path 4807" transform="translate(-799.909 -412.94)"/>
                    <path id="Path_4808" d="M803.94 437.092h-2.772a1.263 1.263 0 0 0-1.259 1.259 1.263 1.263 0 0 0 1.259 1.259h2.772a1.262 1.262 0 0 0 1.259-1.259 1.262 1.262 0 0 0-1.259-1.259z" class="cls-12" data-name="Path 4808" transform="translate(-799.909 -432.511)"/>
                </g>
            </g>
        </g>
        <g id="Group_2027" data-name="Group 2027" transform="translate(537.596 274.993)">
            <path id="Path_4809" d="M1550.8 921.065s15.8 16.31 16.558 22.461-7.517 15.772-7.517 15.772z" class="cls-14" data-name="Path 4809" transform="translate(-1514.688 -893.705)"/>
            <path id="Path_4810" d="M1424.19 1801.214s-.538 8.671-2.215 8.8c-.223.016-8.508.016-8.508.016l-10.577-.061a3.432 3.432 0 0 1 3.161-3.088c3.092-.539 8.266-2.711 10.139-6.8 1.97-4.3 8 1.133 8 1.133z" class="cls-15" data-name="Path 4810" transform="translate(-1394.83 -1604.651)"/>
            <path id="Path_4811" d="M1548.254 1801.214s-.537 8.671-2.215 8.8c-.223.016-8.508.016-8.508.016l-10.609-.037a3.5 3.5 0 0 1 3.193-3.111c3.092-.539 8.266-2.711 10.139-6.8 1.97-4.301 8 1.132 8 1.132z" class="cls-15" data-name="Path 4811" transform="translate(-1495.337 -1604.651)"/>
            <path id="Path_4812" d="M1453.433 1266.265s2.766 17.692 13.085 49.1 11.725 45.005 11.725 45.005a45.465 45.465 0 0 0 5.74.4 36.352 36.352 0 0 0 5.33-.715s.095-34.323-4.661-50.115-1.026-56.935-1.026-56.935z" class="cls-15" data-name="Path 4812" transform="translate(-1435.787 -1162.686)"/>
            <path id="Path_4813" d="M1425 1258.116a429.423 429.423 0 0 0 4.221 59.395c4.613 32.734 3.05 46.63 3.05 46.63s3.8.68 5.131.725c1.428.047 5.916-.357 5.916-.357s6.6-32.747 4.709-49.131 9.041-56.222 9.041-56.222z" class="cls-16" data-name="Path 4813" transform="translate(-1412.737 -1166.826)"/>
            <path id="Path_4814" d="M1483.354 872.881l-5.211 3.859-7.531-1.586c.1-.687.6-3.533 1.054-6.111.027-.152.055-.3.08-.453l.723-4.078 7.034-3.506 2.622-1.307c-.007.046-.2 2.434-.231 2.783a22.52 22.52 0 0 0 1.46 10.399z" class="cls-17" data-name="Path 4814" transform="translate(-1449.708 -843.979)"/>
            <path id="Path_4815" d="M1458.85 907.334c.165-.069 10.244-3.044 11.339-2.682s1.743 2.48 1.743 2.48l-16.486 3.727a8.187 8.187 0 0 1 3.404-3.525z" class="cls-14" data-name="Path 4815" transform="translate(-1437.418 -880.38)"/>
            <path id="Path_4816" d="M1453.234 985.314c-1.709 7.794-30.142 8.718-37.471 1.643-.834-.806-.875-4.558-.56-9.617.615-9.883 2.59-24.75 2.667-32.346a60.129 60.129 0 0 1 1.213-10.826 87.877 87.877 0 0 1 3.606-12.958s13.888-4.49 16.486-3.726c12.519 3.679 15.767 60.036 14.059 67.83z" class="cls-5" data-name="Path 4816" transform="translate(-1404.661 -890.732)"/>
            <path id="Path_4817" d="M1415.976 1042.7c.615-9.883 2.59-24.75 2.667-32.345a60.113 60.113 0 0 1 1.213-10.826l8.354-1.474s8.168 33.356-12.234 44.645z" class="cls-14" data-name="Path 4817" transform="translate(-1405.434 -956.087)"/>
            <path id="Path_4818" d="M1429.663 1155.255a1.966 1.966 0 0 1-.627 2.275c-1.2.914-1.972 2.395-1.7 3.476s2.9 2.847 3.806 2.563 2.76-1.71 2.561-2.281 1.245-5.008-.972-6.717-3.068.684-3.068.684z" class="cls-17" data-name="Path 4818" transform="translate(-1414.597 -1082.422)"/>
            <path id="Path_4819" d="M1384.8 926.961s-8.147 1.525-14.64 11.092-10.763 16.68-9.567 20.128 12.1 15.407 13.976 15.407 4.912-1.367 5.083-4.442c0 0-7.675-11.5-6.163-13.225.646-.736 9.964-8.3 11.294-4.884 2.206 5.653.017-24.076.017-24.076z" class="cls-5" data-name="Path 4819" transform="translate(-1360.397 -898.482)"/>
            <path id="Path_4820" fill="#fca56b" d="M1485.871 868.171c-1.544 2.956-7.3 5.511-9.7 6.451.027-.152.055-.3.08-.453l.723-4.078 7.034-3.506c1.553-.023 2.5.37 1.863 1.586z" data-name="Path 4820" transform="translate(-1454.211 -849.558)"/>
            <path id="Path_4821" d="M1462.895 812.706s10.412 3.248 12.335-3.267 4.562-10.484-2-12.833-8.6-.246-9.768 1.773-3.226 13.314-.567 14.327z" class="cls-17" data-name="Path 4821" transform="translate(-1442.399 -792.012)"/>
            <path id="Path_4822" d="M1469.39 782.553s.664 7.582 2.232 7.253 2.99-.573 2.76 1.712-2.4 4.924 2.428 5.328 11.778-12.057 10.451-14.417c-3.83-6.807-23.407-8.18-17.871.124z" class="cls-15" data-name="Path 4822" transform="translate(-1447.923 -776.815)"/>
        </g>
        <g id="Group_2029" data-name="Group 2029" transform="translate(345.002 279.986)">
            <path id="Path_4823" d="M485.249 1735.912l3.17 13.35 4.748-.027.174-13.323z" class="cls-17" data-name="Path 4823" transform="translate(-458.648 -1558.989)"/>
            <path id="Path_4824" d="M695.812 1731.4l9.019 12.781 3.515-4.514-5.428-10.025z" class="cls-17" data-name="Path 4824" transform="translate(-629.272 -1553.913)"/>
            <path id="Path_4825" d="M388.093 804.629a9.2 9.2 0 0 0-4.977-.952 2.328 2.328 0 0 1 1.05-.5 7.713 7.713 0 0 0-2.754.719c-11.851-4.567-13.713 12.883-13.464 16.937s-3.982 5.378-10.148 8.571c-11.765 6.096-12.8 14.257-12.8 14.257.092.054.187.115.289.185.584-.989 1.785-2.846 2.8-3.126a41.876 41.876 0 0 0-1.63 3.97c3.471 2.64 9.963 8.49 14.488 12.637a6.65 6.65 0 0 1 .308-2.569l.559 3.366c2.421 2.226 4.091 3.792 4.091 3.792-.3-3.276 14.816-20.564 22.7-25.742 1.92-2.826 2.6-7.819 2.653-8.212a21.557 21.557 0 0 1-1.614 7.43c6.681-6.146 2.794-28.292-1.551-30.763z" class="cls-15" data-name="Path 4825" transform="translate(-345.002 -803.141)"/>
            <path id="Path_4826" d="M524.743 928.78c.039.018-3.808 2.015-6.7 1.224-2.722-.742-4.5-4.272-4.463-4.279 1.153-.229 1.485-1.813 1.461-8.62l.521.1 8.762 1.735s-.2 2.758-.205 5.355c-.008 2.183.125 4.252.624 4.485z" class="cls-17" data-name="Path 4826" transform="translate(-481.603 -895.488)"/>
            <path id="Path_4827" d="M520.2 817.006a7 7 0 0 1 9.749-.235s-3.157-.547-9.749.235z" class="cls-19" data-name="Path 4827" transform="translate(-486.97 -812.661)"/>
            <path id="Path_4828" d="M532.791 919.38s-.2 2.757-.205 5.355c-4.9-.138-7.495-4.611-8.557-7.09z" class="cls-20" data-name="Path 4828" transform="translate(-490.072 -895.927)"/>
            <path id="Path_4829" d="M505.325 835.7a25.765 25.765 0 0 1-3.186-7.532c-.44-2.479.822-11.666 10.054-10.343a12.543 12.543 0 0 1 5.2 1.967c2 1.354 4.9 4.277 1.663 12.293l-.84 2.708z" class="cls-15" data-name="Path 4829" transform="translate(-472.273 -814.936)"/>
            <path id="Path_4830" d="M541.866 1334.677l-4.645.142-5.028.154a99.235 99.235 0 0 1-18.126-33.655q-.228-.722-.482-1.463c-3.565-10.394-10.955-23.442-14.85-35.252-.62-1.881-1.177-3.652-1.676-5.328-.16-.537-.316-1.064-.464-1.583a125.252 125.252 0 0 1-4.467-23.515l28.122.225a524.218 524.218 0 0 0 21.616 100.275z" class="cls-21" data-name="Path 4830" transform="translate(-464.223 -1152.421)"/>
            <path id="Path_4831" fill="#e7f1fd" d="M464.823 994.421c-.071 13.382 1.963 19.124 1.963 19.124a37.789 37.789 0 0 1-26.351 1.615c-.169-.053-11.85-2.719-11.85-2.719.24-.542 2.369-9.56 2.6-10.057 3.021-6.488 5.316-9.333 5.674-11.328a42.432 42.432 0 0 0 .348-11.212 89.969 89.969 0 0 0-3.47-17.607 92.238 92.238 0 0 0 11.71-3.927c.934 1.163 3.686 2.337 6.162 2.282 2.851-.063 3.741-1.268 3.636-2.626 3.038 1.69 5.453 3.3 5.453 3.3 2.582 4.485 7.818 8.84 8.2 15.719.094 1.689-4.073 17.061-4.075 17.436z" data-name="Path 4831" transform="translate(-412.731 -928.599)"/>
            <path id="Path_4832" d="M451.757 1058.677c-1.229 1.74-3.586 12.315-9.45 13.644 3.021-7.537 5.316-10.842 5.674-13.159a57.164 57.164 0 0 0 .348-13.024c1.963-3.44 3.428-5.8 3.428-5.8.154-.557 3.119-9.725 4.069-1.53s-2.696 17.923-4.069 19.869z" class="cls-23" data-name="Path 4832" transform="translate(-423.851 -991.363)"/>
            <path id="Path_4833" d="M528.706 856.133s-11.6.191-11.609-7.035-1.511-12.068 5.9-12.5 8.849 2.328 9.438 4.739-.711 14.563-3.729 14.796z" class="cls-17" data-name="Path 4833" transform="translate(-484.35 -830.219)"/>
            <path id="Path_4834" d="M516.151 830.485c-1.79-2.17-3.144-1.7-3.9-1.046-2.507-3.746-10.43 1.671-10.43 1.671a13.8 13.8 0 0 1-4.515 8.155s2.115 1.306 6.989.053c3.836-.987 6.62-6.447 7.632-8.728a9.2 9.2 0 0 1 2.582 3.418c.578 1.84.839 5.628 1.943 5.5-.005-.001 2.388-5.763-.301-9.023z" class="cls-15" data-name="Path 4834" transform="translate(-468.414 -823.381)"/>
            <path id="Path_4835" d="M498.223 1802.363a12.867 12.867 0 0 1-.6 5.474s-.777 3.541 2.71 3.606 4.343-.263 3.948-2.434-1.146-5.926-1.146-5.926z" class="cls-17" data-name="Path 4835" transform="translate(-468.611 -1612.836)"/>
            <path id="Path_4836" d="M503.3 1836.175l-.011.008h-7.215l-.011-.008a18.607 18.607 0 0 1 .25-5.34c3.949 3.776 6.42-.095 6.42-.095.643 1.614.567 5.435.567 5.435z" class="cls-24" data-name="Path 4836" transform="translate(-467.308 -1635.831)"/>
            <path id="Path_4837" d="M749.874 1793.435s-6.43-7.3-8.4-10.932l-4.781 2.449 10.687 10.036 2.5-.329z" class="cls-17" data-name="Path 4837" transform="translate(-662.397 -1596.743)"/>
            <path id="Path_4838" d="M748.428 1807.438h-8.92a14.548 14.548 0 0 1-2.453-4 4.316 4.316 0 0 0-2.912-1.986v5.99H732.3l-1.709-6.369c-1.138-2.134-.283-4.091.517-5.777.931 0 3.633.671 8.382 6.128a6.178 6.178 0 0 0 5 2.379.434.434 0 0 0 .07.038c2.699 1.236 3.581 2.759 3.868 3.597z" class="cls-24" data-name="Path 4838" transform="translate(-657.007 -1607.107)"/>
            <path id="Path_4839" d="M617.591 966.505s-7.616 4.258-10.335 5.485c-.967.436-2.72 1.252-4.51 2.088-1.081.5-2.176 1.019-3.122 1.464a3.925 3.925 0 0 1-4.651-1c-4.123-4.815-14.795-15.25-25.815-16.558l-.038-.017.005.012h-.014l.061.119c.62 1.54 6.661 16.635 6.848 19.819.2 3.355.789 54.874.789 54.874s-.395 2.369 4.145 1.382 5.724-1.974 5.724-1.974-4.343-31.779-3.158-42.834a24.59 24.59 0 0 0-.462-7.124 56.614 56.614 0 0 0 14.625 5.873 66.573 66.573 0 0 0 7.538-4.129 47.3 47.3 0 0 0 6.356-5.114 93.378 93.378 0 0 0 7.225-8.315z" class="cls-19" data-name="Path 4839" transform="translate(-526.602 -928.599)"/>
            <path id="Path_4840" d="M556.3 1421.855l-5.028.154a99.236 99.236 0 0 1-18.126-33.655q-.228-.722-.482-1.463c-3.565-10.394-10.955-23.442-14.85-35.252-.62-1.881-1.177-3.652-1.676-5.328-.16-.537-.316-1.064-.464-1.583l4.141-3.142s12.434 20.134 16.283 39.082c3.35 16.458 16.741 36.262 20.202 41.187z" class="cls-23" data-name="Path 4840" transform="translate(-483.307 -1239.457)"/>
            <path id="Path_4841" d="M447.778 1359.6c.071 9.214-.395 30.4-1.595 39.168h-4.453c-2.461 0-3.689-.035-3.689-.035-3.01-15.249-5.152-27.866-6.711-38.738-1.279-8.922-2.416-16.571-3.29-23.156-.88-6.626-1.492-12.175-1.711-16.863q-.051-1.107-.073-2.153t-.012-2.043l24.3-2.369c-.308 16.149-2.805 40.838-2.766 46.189z" class="cls-21" data-name="Path 4841" transform="translate(-410.831 -1216.629)"/>
            <path id="Path_4842" d="M442.1 1426.821c-2.461 0-3.689-.036-3.689-.036-3.01-15.248-5.152-27.866-6.711-38.738-1.279-8.922-2.416-16.571-3.29-23.156-.88-6.626-1.492-12.175-1.711-16.863l8.916 5.245s-5.691 2.007-3.519 17.207 6.986 54.189 10.004 56.341z" class="cls-23" data-name="Path 4842" transform="translate(-411.206 -1244.677)"/>
            <path id="Path_4843" d="M420.072 1033.272s-1.711 6.184-7.633 5.395-14.342-4.343-14.342-4.343 2.531-8 5.677-18.5c3.81-12.718 8.526-29.113 10.748-39.454a63.9 63.9 0 0 0 1.208-7.051l5.015-9.536s7.223 16.445 7.618 20.59-8.291 52.899-8.291 52.899z" class="cls-19" data-name="Path 4843" transform="translate(-388.025 -930.07)"/>
            <path id="Path_4844" d="M534.525 1091.631c-2.85.375-3.943 1.889-4.295 3.933a8.682 8.682 0 0 1-1.241 2.962c-2.839.152-9.6.52-15.28.88l-.469 7.45a85.071 85.071 0 0 0 17-4.024 4.442 4.442 0 0 0 1.935-1.052c4.089-3.349 6.411-8.958 6.418-9.761s-1.219-.762-4.068-.388z" class="cls-17" data-name="Path 4844" transform="translate(-481.33 -1036.703)"/>
            <path id="Path_4845" d="M444.062 1059.919c-.264 6.712-1.843 19.739-15.923 26.713-.038.018-.075.038-.113.053 3.81-12.718 8.526-29.113 10.748-39.454 2.586 3.869 5.432 8.993 5.288 12.688z" class="cls-24" data-name="Path 4845" transform="translate(-412.278 -1000.933)"/>
            <path id="Path_4846" d="M442.789 959.781s-12.044.854-14.939 7.3-3.816 27.9-.132 34.214c0 0 5.073 1.445 14.045-.233l.331-.063s2.862-7.007.3-8.389c0 0-7.566.395-6.777-2.106s7.172-30.723 7.172-30.723z" class="cls-19" data-name="Path 4846" transform="translate(-410.071 -930.07)"/>
            <g id="Group_2028" data-name="Group 2028" transform="translate(76.143 32.765)">
                <path id="Path_4847" d="M833.086 975.964a7.241 7.241 0 0 0-8.115 5.061l1.21 4.048c2 .276 3.745-.245 5.356-2.549s2.054-1.42 3.077-3.134c1.386-2.327-.784-3.19-1.528-3.426z" class="cls-17" data-name="Path 4847" transform="translate(-810.076 -975.883)"/>
                <path id="Path_4848" d="M750.95 1008.475c-.967.436-2.72 1.252-4.51 2.088.958 1.7 2.157 4.793 2.475 9.9a41.334 41.334 0 0 0 6.546-5.272 86.8 86.8 0 0 0 7.035-8.156l-1.21-4.048s-7.616 4.261-10.336 5.488z" class="cls-17" data-name="Path 4848" transform="translate(-746.44 -997.849)"/>
            </g>
        </g>
        <g id="Group_2033" data-name="Group 2033" transform="translate(737.765 293.316)">
            <g id="Group_2030" data-name="Group 2030" transform="translate(14.862 31.85)">
                <path id="Path_4849" d="M2510.842 1279.439s-4.607 1.183-7.536.3-7.97.567-8.782 1.635-.514 1.492.935 1.861 6.581 2.558 9.954 1.291a26.889 26.889 0 0 1 7.773-1.313z" class="cls-25" data-name="Path 4849" transform="translate(-2494.08 -1234.278)"/>
                <path id="Path_4850" d="M2607.536 1046.475s-5.176 36.788-13.747 40.083c-4.229 1.625-22.92 5.311-28.448 5.681 0 0-1.354-1.1-1.024-5.571 0 0 19.582-7.189 22.364-11.1 4.14-5.819-2.57-23.771 2.625-29.235s13.945-7.811 18.23.142z" class="cls-26" data-name="Path 4850" transform="translate(-2550.952 -1041.34)"/>
            </g>
            <path id="Path_4851" d="M2679.254 1565.673v-8.021h12.628a.621.621 0 0 0 .62-.62v-1.285a.621.621 0 0 0-.62-.62h-12.628v-45.659a2.336 2.336 0 0 0-2.329-2.329h-2.5a2.336 2.336 0 0 0-2.33 2.329v45.659h-12.628a.621.621 0 0 0-.62.62v1.285a.621.621 0 0 0 .62.62h12.633v8.021c-9.136.691-16.457 3.98-18.511 8.23h44.179c-2.057-4.25-9.378-7.539-18.514-8.23z" class="cls-27" data-name="Path 4851" transform="translate(-2608.469 -1386.938)"/>
            <path id="Path_4852" d="M2560.756 1384.76a64.451 64.451 0 0 1-5.056 7.234c-5.563 7.023-11.619 12.813-12.674 18.287a24.754 24.754 0 0 1-.978 3.5c-.44 1.254-.985 2.572-1.614 3.935a121.169 121.169 0 0 1-9.416 16.1c-6.093 9.029-11.823 16.563-11.823 16.563l-10.508-.448c.421-1.053 5-13.52 11.135-28.755l7.691-19.107q.51-1.271 1.017-2.527l2.3-5.714 10.342-25.7s23.008-8.716 25.4-3.068c1.969 4.66.364 9.222-5.816 19.7z" class="cls-15" data-name="Path 4852" transform="translate(-2491.055 -1270.268)"/>
            <path id="Path_4853" d="M2471.357 1801.013s-.537 8.671-2.215 8.8c-.223.016-8.509.016-8.509.016l-10.577-.061a3.433 3.433 0 0 1 3.161-3.087c3.092-.539 8.266-2.711 10.139-6.8 1.971-4.302 8.001 1.132 8.001 1.132z" class="cls-15" data-name="Path 4853" transform="translate(-2443.545 -1622.811)"/>
            <path id="Path_4854" d="M2667.132 1682.331s7.309 4.7 6.6 6.222c-.094.2-4.133 7.437-4.133 7.437l-5.209 9.2a3.432 3.432 0 0 1-1.155-4.265c1.037-2.962 1.663-8.539-.992-12.167-2.794-3.811 4.889-6.427 4.889-6.427z" class="cls-15" data-name="Path 4854" transform="translate(-2614.989 -1528.901)"/>
            <path id="Path_4855" d="M2500.586 1367.563s-28.88 17.989-32.1 30.079 38.418 37.88 38.418 37.88 4.567-4.03 5.373-6.985c0 0-18.823-22.551-22.905-27.605-2.507-3.1 37.076-10.747 41.912-18.269s3.1-13.851 3.1-13.851z" class="cls-16" data-name="Path 4855" transform="translate(-2458.331 -1273.837)"/>
            <path id="Rectangle_1089" d="M8.06 0h47.286a8.06 8.06 0 0 1 8.06 8.06 8.06 8.06 0 0 1-8.06 8.06H8.06A8.06 8.06 0 0 1 0 8.06 8.06 8.06 0 0 1 8.06 0z" class="cls-5" data-name="Rectangle 1089" transform="translate(35.503 116.827)"/>
            <path id="Path_4856" d="M2690.112 971.846a16.3 16.3 0 0 0-4.4 3.987c6.918 1.79 18.388-4.622 18.388-4.622a16.973 16.973 0 0 1-6.1-9.567q-.125-.5-.227-1.02a20.747 20.747 0 0 1-.375-3.6l-3.178 2.847-5.285 4.735a45.442 45.442 0 0 0 .781 5.344q.171.885.396 1.896z" class="cls-25" data-name="Path 4856" transform="translate(-2634.503 -941.166)"/>
            <path id="Path_4857" d="M2669.1 1053.286c-.991 13.329.676 33.593-.449 37.1-.97 3.029-12.389 1.236-16.8.225-1.633-.374-3.612-.909-5.655-1.541-5.7-1.765-11.909-4.285-12.575-6.155a1.545 1.545 0 0 1-.062-.215 1.715 1.715 0 0 1 .012-.784c.222-.953 1.078-1.985 1.179-4.346.113-2.636.1-5.74.195-9.079.005-.376.01-.785.051-1.16v-.137-.214c.1-3.723.29-7.637.516-11.518.143-2.437.309-4.852.5-7.165a95.858 95.858 0 0 1 2.053-14.638 23.5 23.5 0 0 1 7.552-11.657l2.1-1.8a12.164 12.164 0 0 0 7.632-1.017c2.716-1.29 3.654-2.214 4.128-1.865 6.283 4.84 10.795 19.671 9.623 35.966z" class="cls-28" data-name="Path 4857" transform="translate(-2592.21 -989.966)"/>
            <path id="Path_4858" d="M2646.539 1259.993c-5.7-1.765-11.91-4.285-12.576-6.156a1.623 1.623 0 0 1-.061-.215q0-.392.012-.784c.222-.953 1.078-1.985 1.178-4.346.113-2.636.1-5.74.2-9.079.005-.376.01-.786.051-1.16v-.137-.214l21.528-9.763s1.243 17.351-10.332 31.854z" class="cls-26" data-name="Path 4858" transform="translate(-2592.52 -1160.858)"/>
            <path id="Path_4859" d="M2702.692 976.77a45.4 45.4 0 0 0 .781 5.344c5.161-1.668 7.5-6.329 8.284-8.306.222-.559.319-.9.319-.9l-.546-.116-3.553-.753z" class="cls-20" data-name="Path 4859" transform="translate(-2648.262 -953.33)"/>
            <path id="Path_4860" d="M2680.232 916.19s11.338 1.279 12.026-5.794 2.615-11.671-4.6-12.787-8.881 1.446-9.685 3.751-.673 14.315 2.259 14.83z" class="cls-25" data-name="Path 4860" transform="translate(-2627.891 -892.803)"/>
            <path id="Path_4861" d="M2689.936 891.5a11.649 11.649 0 0 0-11.036-10.36c-7.069-.666-3.128-6.75-2.374-7.721 0 0 5.416.743 10.967 1.66 11.649 1.921 3.587 14.96 2.443 16.421z" class="cls-27" data-name="Path 4861" transform="translate(-2625.618 -873.419)"/>
            <g id="Group_2031" data-name="Group 2031" transform="translate(0 60.243)">
                <path id="Rectangle_1090" d="M0 0H1.044V27.325H0z" class="cls-26" data-name="Rectangle 1090" transform="rotate(-18.001 1.016 .161)"/>
                <path id="Rectangle_1091" d="M0 0H28.674V1.715H0z" class="cls-26" data-name="Rectangle 1091" transform="rotate(-1.224 1155.458 -381.222)"/>
            </g>
            <g id="Group_2032" data-name="Group 2032" transform="translate(17.648 34.212)">
                <path id="Path_4862" d="M2525.116 1309.257s-4.448 1.684-7.458 1.13-7.859 1.442-8.548 2.593-.346 1.54 1.135 1.746 6.823 1.817 10.036.186a26.884 26.884 0 0 1 7.58-2.162z" class="cls-25" data-name="Path 4862" transform="translate(-2508.769 -1260.802)"/>
                <path id="Path_4863" d="M2615.772 1058.075s-1.088 37.135-9.244 41.354c-4.024 2.082-22.194 7.806-27.648 8.783 0 0-1.467-.943-1.632-5.424 0 0 18.67-9.3 21-13.5 3.474-6.239-5.175-23.342-.614-29.347s13.001-9.299 18.138-1.866z" class="cls-28" data-name="Path 4863" transform="translate(-2564.259 -1053.792)"/>
            </g>
        </g>
        <path id="Path_4864" fill="#202f4e" d="M956.067 1860.521h-581.28a.569.569 0 0 1-.567-.567.568.568 0 0 1 .567-.567h581.28a.568.568 0 0 1 .567.567.569.569 0 0 1-.567.567z" data-name="Path 4864" transform="translate(-23.676 -1379.058)"/>
    </g>
</svg>
