<svg xmlns="http://www.w3.org/2000/svg" width="574.519" height="258.605" viewBox="0 0 574.519 258.605">
    <defs>
        <clipPath id="clip-path">
            <path id="Path_4731" fill="none" d="M394.28 868.038a23.479 23.479 0 1 0 23.479 23.479 23.479 23.479 0 0 0-23.479-23.479zm0 35.917a12.438 12.438 0 1 1 12.438-12.438 12.438 12.438 0 0 1-12.438 12.439z" data-name="Path 4731" transform="translate(-370.801 -868.038)"/>
        </clipPath>
        <style>
            .cls-2{fill:#a2dff2}.cls-3{fill:#96cfe0}.cls-4{fill:#f37168}.cls-5{fill:#2e5b9a}.cls-6{fill:#f09959}.cls-7{fill:#e38540}.cls-8{fill:#75a1de}.cls-13{fill:#a8ceff}.cls-14{fill:#6695d6}.cls-15{fill:#303c60}.cls-16{fill:#d54a41}.cls-17,.cls-19{fill:#9ec8ff}.cls-18{fill:#fff}.cls-19{opacity:.5}.cls-21{fill:#f39892}.cls-22{fill:#9cd499}
        </style>
    </defs>
    <g id="Group_2003" data-name="Group 2003" transform="translate(-263.765 -201.32)">
        <g id="Group_1957" data-name="Group 1957" transform="translate(611.721 371.389)">
            <path id="Path_4638" d="M2481.325 1347.706c-8.2 16.638-18.472 62.1-21.274 64.592s-19 12.144-21.8 16.815-1.557 3.114-.311 3.425 71.62.623 71.62.623-8.1-48.266-9.03-48.577-19.205-36.878-19.205-36.878z" class="cls-2" data-name="Path 4638" transform="translate(-2436.56 -1347.706)"/>
            <path id="Path_4639" d="M2637.15 1432.936c12.925.09 26.564.161 34.072.2l-10.28-61.478c-5.483-10.63-12.139-23.95-12.139-23.95-1.033 2.1-2.1 4.654-3.18 7.523-1.066 46.175 5.584 59.117.589 67.345-3.898 6.418-7.456 9.29-9.062 10.36z" class="cls-3" data-name="Path 4639" transform="translate(-2604.038 -1347.706)"/>
        </g>
        <g id="Group_1958" data-name="Group 1958" transform="translate(572.669 306.775)">
            <path id="Path_4640" d="M2750.377 1226.059c11.689 10.79 37.707 21.021 37.707 21.021s3.953 36.523 1.256 57.2-1.2 24.876-1.2 24.876l-56.184.478s-4.664-10.47-17.845-41.539c-8.392-19.781-6.893-41.96-6.893-41.96l32.668-14.686z" class="cls-2" data-name="Path 4640" transform="translate(-2623.403 -1181.526)"/>
            <path id="Path_4641" d="M2840.161 1440.734h53.648s-1.5-4.2 1.2-24.876c2.221-17.029-.067-44.8-.944-54.074l-4.879-2.091c-12.248 3.529-19.307 21.8-21.383 39.653-1.389 11.946-21.18 23.706-34.127 30.181a105.963 105.963 0 0 0 6.485 11.207z" class="cls-3" data-name="Path 4641" transform="translate(-2729.071 -1293.101)"/>
            <path id="Path_4642" d="M2914.477 1276.653s.5 15.424 3.133 15.259 17.921-19.556 17.921-19.556l-2.6-1.243z" class="cls-3" data-name="Path 4642" transform="translate(-2796.535 -1219.143)"/>
            <path id="Path_4643" d="M2845.753 1294.787s-3.323 14.189-4.973 13.859-3.877-14.755-3.877-14.755z" class="cls-3" data-name="Path 4643" transform="translate(-2731.766 -1238.161)"/>
            <path id="Path_4644" d="M2854.351 1288.613l4.573.5 1.76 5.447s-4.022 4.707-4.1 6.6.885 9 .938 15.433-2.312 32.064-1.239 47.763l1.074 15.7-9.192.358s-.495-17.27 0-35.758 5.758-43.5 5.758-43.5l-2.077-6.357z" class="cls-4" data-name="Path 4644" transform="translate(-2740.982 -1233.754)"/>
            <path id="Path_4645" d="M2780.247 998.959c-6.467 14.4 1.295 27.746 1.059 27.183s9.789-24.318 9.789-24.318z" class="cls-5" data-name="Path 4645" transform="translate(-2682.309 -991.914)"/>
            <path id="Path_4646" d="M2872.047 1063.48l8.2 29.978a2.714 2.714 0 0 1-.519 2.428c-1.924 2.369-4.663 7.244-10.188 8.808a13.7 13.7 0 0 1-3.469.389 2.341 2.341 0 0 1-2.311-1.895l-5.5-28.433z" class="cls-6" data-name="Path 4646" transform="translate(-2749.603 -1045.784)"/>
            <path id="Path_4647" d="M2870.481 1078.659l-3 1.229-9.217 7.541 3.537 18.023 1.41 7.186c8.389-5.232 11.469-13.765 7.27-33.979z" class="cls-7" data-name="Path 4647" transform="translate(-2749.603 -1058.458)"/>
            <path id="Path_4648" d="M2791.2 1032.678c.006 10.027-6.038 17.927-13.5 17.644s-12.042-5.928-13.525-18.669c-1.164-9.995 1.722-21.626 9.185-21.343s17.834 12.341 17.84 22.368z" class="cls-6" data-name="Path 4648" transform="translate(-2670.834 -1001.387)"/>
            <path id="Path_4649" d="M2915.468 1352.134c10.854 2.451 12.872 24.5 16.4 47.75.406 2.676 2.491 25.328 2.491 25.328a6.933 6.933 0 0 1-3.944 6.228c-3.548 1.774-4.983 3.114-25.536 3.322-19.739.2-45.188-.623-45.188-.623s-.226-7.345 1.8-10.934c3.045-5.4 34.255-13.148 37.162-13.563.415-5.813-2.866-26.845 1.661-41.106 3.114-9.81 6.462-14.948 10.656-16.291a8.424 8.424 0 0 1 4.498-.111z" class="cls-2" data-name="Path 4649" transform="translate(-2750.786 -1286.58)"/>
            <path id="Path_4650" d="M2927.34 1460.8c9.732.146 23.086.286 34.028.176 20.553-.208 21.988-1.548 25.535-3.322 4.152-2.076 4.36-5.605 4.36-5.605s-2.1-24.1-2.491-26.781c-2.284-15.57-4.751-33.388-10.494-41.988a117.4 117.4 0 0 1 6.364 34.875 34.752 34.752 0 0 1-1.06 9.6c-.934 3.062-3.322 4.983-7.058 3.944-7.474-2.076-16.816 2.284-16.816 2.284s7.059-2.491 13.7-.208 20.345 17.439 5.4 23.044c-4.576 1.716-31.972 3.114-51.468 3.981z" class="cls-3" data-name="Path 4650" transform="translate(-2807.274 -1312.79)"/>
            <path id="Path_4651" d="M2866.984 1764.335a10.291 10.291 0 0 1 8.442-4.706c5.675 0 5.259 9.273 4.429 12.318s-4.152 3.183-4.152 3.183l-11.429-.29z" class="cls-3" data-name="Path 4651" transform="translate(-2754.619 -1627.019)"/>
            <path id="Path_4652" d="M2199.99 1830.225h95.359a4.779 4.779 0 0 0-4.779-4.779h-90.58z" class="cls-8" data-name="Path 4652" transform="translate(-2199.99 -1681.971)"/>
            <path id="Path_4653" d="M2710.712 1753.332c-11.495-5.287-14.743-3.943-17.357-4.954-6.455-2.5-8.251-.982-13.526 10.375-1.051 2.263 1.443 2.623 3.925 2.835s5.928-4.356 6.94-4.825a13.549 13.549 0 0 1 3.656-.521s-.828-.071-2.281 2.306-3.052 3.212-1.122 3.377 2.477-2.983 6-1.988 2.8 4.352 11.8 4.062c8.529-.275 14.9.578 15.215-4.813.3-5.114 1.081-7.617-3.683-8.927-3.663-1.007-9.567 3.073-9.567 3.073z" class="cls-6" data-name="Path 4653" transform="translate(-2600.414 -1616.764)"/>
            <path id="Path_4654" fill="#a86b48" d="M2868.944 1769.1c8.006-.22 4.836 9.459 3.938 10.216s4.39.667 4.39.667a9.61 9.61 0 0 0 1.121-8.479 7.76 7.76 0 0 0-5.8-5.287l-3.681 1.63z" data-name="Path 4654" transform="translate(-2758.491 -1632.519)"/>
            <path id="Path_4655" d="M2871.976 1761.709c.064 1.231-1.893 2.334-4.371 2.462s-4.539-.765-4.6-2 1.893-2.333 4.371-2.462 4.536.769 4.6 2z" class="cls-5" data-name="Path 4655" transform="translate(-2753.556 -1627.078)"/>
            <path id="Path_4656" fill="#3e6bab" d="M2872.516 1759.642c.057 1.1-1.692 2.085-3.905 2.2s-4.055-.684-4.112-1.784 1.691-2.085 3.905-2.2 4.055.684 4.112 1.784z" data-name="Path 4656" transform="translate(-2754.805 -1625.531)"/>
            <path id="Path_4657" fill="#f0ceb4" d="M2875.178 1760.258c.041.792-1.218 1.5-2.811 1.584s-2.919-.492-2.96-1.284 1.218-1.5 2.811-1.583 2.919.491 2.96 1.283z" data-name="Path 4657" transform="translate(-2758.904 -1626.465)"/>
            <path id="Path_4658" d="M2455.142 1778.06c5.91-3.283 13.133-2.189 15.76 1.094s3.064 5.472-2.846 5.472-17.73.438-19.7.219 6.786-6.785 6.786-6.785z" class="cls-6" data-name="Path 4658" transform="translate(-2407.116 -1640.752)"/>
            <path id="Path_4659" d="M2537.455 1779.369c6.348-1.532 10.685 2.162 15.979 5.691 4.6 3.065 5.521 6.044.438 3.5-7.443-3.721-11.82-4.159-11.82-4.159z" class="cls-6" data-name="Path 4659" transform="translate(-2481.749 -1643.202)"/>
            <path id="Path_4660" d="M2410.147 1794.253c-3.206 0-6-1.022-8.267-.834s-9.429 7.543-8.3 8.109a2.611 2.611 0 0 0 .264.113 3.861 3.861 0 0 0 4.581-1.607c1.015-1.627 2.664-3.521 4.584-2.843a20.383 20.383 0 0 0 6.57 1.022z" class="cls-6" data-name="Path 4660" transform="translate(-2361.525 -1655.212)"/>
            <path id="Path_4661" fill="#f7a96f" d="M2492.206 1773.824c-3.283-1.313 1.97-12.258 3.721-12.258s8.318 5.254 8.318 5.254-1.544.871-6.786-.876c-1.313-.438-2.408 7-3.94 7.88s-1.313 0-1.313 0z" data-name="Path 4661" transform="translate(-2443.087 -1628.636)"/>
            <path id="Path_4662" d="M2841.519 1248.952l1.539 8.2-4.5 9.734-4.886-10.317z" class="cls-2" data-name="Path 4662" transform="translate(-2729.071 -1200.64)"/>
            <path id="Path_4663" d="M2729.9 992.216c1.89 11.907 6.3 13.165 9.42 14.253s14.8-3.819 16.042-7.08c3.184-8.343-1.954-14.625-.913-14.708s2.515 2.664 5.881 5.96c.313.307 2.477 2.329 2.424 1.533-.723-10.841 4.194-15.158.895-25.649-2.432-7.734-7.339-6.178-7.339-6.178s-4.464-6.023-14.412-3.407c-6.665 1.752-12.2 5.5-18.839 8.578s11.49 16.062 19.461 8.623 5.856 6.093 7.465 6.815.71 0 2.565 6.386-5.619 12.153-7.883 13.147c-7.239 3.178-8.735 2.163-10.919-.38-1.897-2.209-3.848-7.893-3.848-7.893z" class="cls-5" data-name="Path 4663" transform="translate(-2635.516 -956.281)"/>
            <path id="Path_4664" d="M2923.109 1085.145c-.316 3.147-2.081 5.469-3.943 5.186s-2.361-2.7-2.8-6.212c-.393-3.165 2.082-5.469 3.942-5.185s3.117 3.066 2.801 6.211z" class="cls-6" data-name="Path 4664" transform="translate(-2798.08 -1058.667)"/>
            <path id="Path_4665" d="M2923.829 1230.1l8.154 7.6s-15.689 14.774-17.047 14.609-3.662-12.546-3.662-12.546z" class="cls-2" data-name="Path 4665" transform="translate(-2793.86 -1184.898)"/>
            <path id="Path_4666" d="M2875.055 1287.491c-1.505.707-1.021 2.854-1.659 3.6s-1.019.948-1.533-.092-.431-3.389-.83-3.508-3.426 9.346-3.426 9.346 2.225-6.053 2.731-5.392.1 1.275 1.945 1.385a13.585 13.585 0 0 0 4.183-.666z" class="cls-2" data-name="Path 4666" transform="translate(-2757.402 -1232.817)"/>
        </g>
        <g id="Group_1959" data-name="Group 1959" transform="translate(545.776 405.165)">
            <path id="Path_4667" d="M2088.9 1602.187h50.934l-21.629-47.584a3.889 3.889 0 0 0-3.541-2.28h-46.071a1.519 1.519 0 0 0-1.382 2.147z" class="cls-13" data-name="Path 4667" transform="translate(-2062.121 -1552.322)"/>
            <path id="Path_4668" d="M2038.594 1552.322h47.006a3.889 3.889 0 0 1 3.541 2.28l21.63 47.584H2058.9l-21.69-47.718a1.519 1.519 0 0 1 1.384-2.146z" class="cls-8" data-name="Path 4668" transform="translate(-2037.073 -1552.322)"/>
            <path id="Path_4669" d="M2187.974 1677.5c1.783 3.695 4.676 5.991 6.461 5.13s1.788-4.556.005-8.25-4.676-5.991-6.462-5.129-1.787 4.556-.004 8.249z" class="cls-14" data-name="Path 4669" transform="translate(-2161.949 -1649.799)"/>
        </g>
        <g id="Group_1962" data-name="Group 1962" transform="translate(340.954 311.024)">
            <g id="Group_1960" data-name="Group 1960" transform="translate(44.222 2.616)">
                <path id="Path_4670" d="M1068.815 1054.26c-.792 0-1.572-.04-2.335-.078-.632-.032-1.286-.065-1.917-.074a.4.4 0 0 1 .006-.8c.651.009 1.312.043 1.952.075 4.782.242 9.729.493 14.547-8.772 2.092-4.022 4.368-11.843 3.9-20.645a34.706 34.706 0 0 0-12.293-25.38.4.4 0 1 1 .516-.617 35.491 35.491 0 0 1 12.58 25.954c.476 8.964-1.852 16.946-3.99 21.059-4.252 8.172-8.781 9.278-12.966 9.278z" class="cls-15" data-name="Path 4670" transform="translate(-1064.167 -997.871)"/>
            </g>
            <g id="Group_1961" data-name="Group 1961" transform="translate(46.423 7.757)">
                <path id="Path_4671" d="M1078.448 1078.359c-.187 0-.374 0-.562-.014a.4.4 0 1 1 .039-.8c.173.009.347.013.519.013 4.991 0 9.6-3.534 12.713-9.779 5.119-10.267 5.615-27.112-3.547-38.106a.4.4 0 1 1 .618-.515c9.38 11.256 8.881 28.485 3.649 38.98-3.254 6.526-8.124 10.221-13.429 10.221z" class="cls-15" data-name="Path 4671" transform="translate(-1077.504 -1029.011)"/>
            </g>
            <path id="Path_4672" d="M904.269 987.829c14.441-11.209 28-5.268 32.863 9.9 4.538 14.17-1.278 44.621-22.821 39.314-22.287-5.489-24.144-12.312-23.974-22.229a35.19 35.19 0 0 1 13.932-26.985z" class="cls-15" data-name="Path 4672" transform="translate(-874.801 -982.021)"/>
            <path id="Path_4673" d="M818.237 1289.45l-20.643 7.7s5.778 41.928 6.273 57.94-7.593 29.9-7.593 29.9h53.979s7.428-43.6 5.943-58.956-11.72-31.257-12.215-31.641-12.876-3.189-12.876-3.189z" class="cls-2" data-name="Path 4673" transform="translate(-796.274 -1238.702)"/>
            <path id="Path_4674" d="M1095.839 1602.113s2.079 19.479 2.938 20.469 32.553 16.5 32.553 16.5l-46.055 3.139z" class="cls-16" data-name="Path 4674" transform="translate(-1037.568 -1499.753)"/>
            <path id="Path_4675" d="M1085.274 1319.435c5.117.112 6.506 8.479 7.71 14.695s-7.71-14.695-7.71-14.695z" class="cls-16" data-name="Path 4675" transform="translate(-1037.568 -1263.737)"/>
            <path id="Path_4676" d="M841.911 1327.356c-2.806-10.069-17.884-38.11-17.884-38.11l-19.752 7.736s4.528 32.861 5.91 51.509l7.5 36.334h24.223s2.809-47.4.003-57.469z" class="cls-4" data-name="Path 4676" transform="translate(-802.953 -1238.531)"/>
            <path id="Path_4677" d="M863.4 1735.224l22.265-5.111-1.817 18.983z" class="cls-16" data-name="Path 4677" transform="translate(-852.317 -1606.624)"/>
            <path id="Path_4678" d="M818.487 1417.4c-3.632-4.917-7.184-10.327-3.724-21.625s3.8-15.352 2.585-25.586-6.712-26.577-17.441-27.072c0 0-.354 3.578-.926 9.292 1.742 13.495 4.549 36.548 4.887 47.493.5 16.012-7.593 29.9-7.593 29.9l43.909.965s-18.066-8.454-21.697-13.367z" class="cls-16" data-name="Path 4678" transform="translate(-796.274 -1283.507)"/>
            <path id="Path_4679" d="M1052.939 1339.683c-1.486-15.352-11.72-31.257-12.215-31.641-.306-.237-5.151-1.4-8.808-2.252 1.076 2.536 12.416 29.564 11.944 40.7-.5 11.686.014 52.154.014 52.154H1047s7.425-43.609 5.939-58.961z" class="cls-4" data-name="Path 4679" transform="translate(-993.018 -1252.345)"/>
        </g>
        <rect id="Rectangle_1028" width="525.124" height="5.213" class="cls-5" data-name="Rectangle 1028" rx="2.607" transform="translate(271.857 454.712)"/>
        <g id="Group_1964" data-name="Group 1964" transform="translate(543.858 202.105)">
            <path id="Rectangle_1029" d="M12.7 0h36.223a12.7 12.7 0 0 1 12.7 12.7 12.7 12.7 0 0 1-12.7 12.7H12.7A12.7 12.7 0 0 1 0 12.7 12.7 12.7 0 0 1 12.7 0z" class="cls-17" data-name="Rectangle 1029"/>
            <path id="Path_4681" d="M2070.536 442.013v14.009l16.144-16.143s-15.816 2.134-16.144 2.134z" class="cls-17" data-name="Path 4681" transform="translate(-2063.094 -420.452)"/>
            <rect id="Rectangle_1030" width="55.244" height="20.357" class="cls-18" data-name="Rectangle 1030" rx="10.179" transform="translate(3.187 2.517)"/>
            <path id="Path_4682" d="M2095.259 356.87H2070.3a1.094 1.094 0 1 1 0-2.189h24.954a1.094 1.094 0 1 1 0 2.189z" class="cls-17" data-name="Path 4682" transform="translate(-2061.987 -349.318)"/>
            <path id="Rectangle_1031" d="M.615 0h46.27a.615.615 0 0 1 .615.615.615.615 0 0 1-.615.615H.615A.615.615 0 0 1 0 .615.615.615 0 0 1 .615 0z" class="cls-17" data-name="Rectangle 1031" transform="translate(7.224 10.507)"/>
            <path id="Rectangle_1032" d="M.615 0h46.27a.615.615 0 0 1 .615.615.615.615 0 0 1-.615.615H.615A.615.615 0 0 1 0 .615.615.615 0 0 1 .615 0z" class="cls-17" data-name="Rectangle 1032" transform="translate(7.224 12.889)"/>
            <g id="Group_1963" data-name="Group 1963" transform="translate(42.453 19.591)">
                <rect id="Rectangle_1033" width="2.675" height="2.408" class="cls-17" data-name="Rectangle 1033" rx="1.204"/>
                <rect id="Rectangle_1034" width="2.675" height="2.408" class="cls-17" data-name="Rectangle 1034" rx="1.204" transform="translate(4.864)"/>
                <rect id="Rectangle_1035" width="2.675" height="2.408" class="cls-17" data-name="Rectangle 1035" rx="1.204" transform="translate(9.729)"/>
            </g>
        </g>
        <g id="Group_1965" data-name="Group 1965" transform="translate(377.668 405.165)">
            <path id="Path_4683" d="M1114.039 1823.446h-95.359a6.12 6.12 0 0 1 6.12-6.12h89.239z" class="cls-13" data-name="Path 4683" transform="translate(-1018.68 -1773.581)"/>
            <path id="Path_4684" d="M1339.423 1602.187h-50.934l21.63-47.584a3.889 3.889 0 0 1 3.541-2.28h46.071a1.519 1.519 0 0 1 1.382 2.147z" class="cls-13" data-name="Path 4684" transform="translate(-1243.951 -1552.322)"/>
            <path id="Path_4685" d="M1380.042 1552.322h-42.055a3.889 3.889 0 0 0-3.541 2.28l-21.629 47.584h46.918l21.69-47.718a1.518 1.518 0 0 0-1.383-2.146z" class="cls-8" data-name="Path 4685" transform="translate(-1264.262 -1552.322)"/>
            <path id="Path_4686" d="M1534.475 1670.168c-1.783 3.695-4.676 5.991-6.461 5.13s-1.788-4.556-.005-8.25 4.676-5.991 6.461-5.129 1.788 4.555.005 8.249z" class="cls-14" data-name="Path 4686" transform="translate(-1442.817 -1643.676)"/>
        </g>
        <g id="Group_1966" data-name="Group 1966" transform="translate(323.033 309.395)">
            <path id="Path_4687" d="M933.933 1105.674s-4.327 22.091-9.11 25.963 11.007 22.54 16.473 17.757.38-15.252.38-15.252-2.961-1.822 2.05-13.437-8.478-20.269-8.478-20.269z" class="cls-6" data-name="Path 4687" transform="translate(-884.939 -1079.26)"/>
            <path id="Path_4688" d="M977.71 1100.436l-1.315 5.238s-.6 3.074-1.605 7.128c1.87 8.724 5.364 14.4 8.491 18 .091-2.011.783-5.175 2.907-10.1 5.012-11.612-8.478-20.266-8.478-20.266z" class="cls-7" data-name="Path 4688" transform="translate(-927.4 -1079.26)"/>
            <path id="Path_4689" d="M1017.846 1064.783c-2.908 8.019-10.014 14.457-14.526 12.971-7.371-2.427-12.737-8.188-11.47-20.925 1.493-15 13.035-16.72 19.814-14.8s9.4 13.88 6.182 22.754z" class="cls-6" data-name="Path 4689" transform="translate(-941.489 -1029.959)"/>
            <path id="Path_4690" d="M888.666 1289.246l-6.972 2.731 10.991 14.084-3.136 5.613a44.377 44.377 0 0 1 14.758 24.963 147.278 147.278 0 0 1 3.066 30.495s.845-33.394-.822-39.776c-3.233-12.381-17.885-38.11-17.885-38.11z" class="cls-16" data-name="Path 4690" transform="translate(-849.672 -1236.902)"/>
            <path id="Path_4691" d="M1031.916 1305.79s8.7 22.337 10.08 28.624 1.66 37 1.66 37 4-26.783 2.845-34.706-2.806-15.084-2.806-15.084l-5.282-3.9s-1-10.623-1.56-10.761-4.937-1.173-4.937-1.173z" class="cls-16" data-name="Path 4691" transform="translate(-975.096 -1250.715)"/>
            <path id="Path_4692" d="M966.322 1771.553c16.923-5.128 14.872-7.692 21.026-4.786s13.866 4.879 10.257 5.812-9.06-2.051-9.06-2.051.855 4.615-2.222 5.983-16.74 1.865-24.353-.265 4.352-4.693 4.352-4.693z" class="cls-6" data-name="Path 4692" transform="translate(-914.58 -1634.58)"/>
            <path id="Path_4693" d="M975.6 1797.113h3.368l-1.684 9.569s-6.636-.985-6.141-1.645 4.457-7.924 4.457-7.924z" class="cls-2" data-name="Path 4693" transform="translate(-924.331 -1660.934)"/>
            <path id="Path_4694" d="M706.949 1336.113c-6.6 11.555-8.7 17.857-14.08 39.482s-7.545 31.464-1.6 34.306c4.918 2.352 40.722 13.089 45.065 11.767 1.981.112 5.021-10.116 5.021-10.116l-32.589-14.526s9.432-22.516 11.06-37.306-5.612-23.605-9.244-23.605z" class="cls-4" data-name="Path 4694" transform="translate(-687.707 -1276.033)"/>
            <path id="Path_4695" d="M970.254 1116.77c-1.595 5.006-.91 6.026-3.118 6.494s-4.223-1.723-4.875-4.8.608-5.95 2.815-6.418 6.133 1.727 5.178 4.724z" class="cls-6" data-name="Path 4695" transform="translate(-916.796 -1088.901)"/>
            <path id="Path_4696" d="M978.373 1021.009c-8.638 15.351-25.8 13.1-36.223 7.815-8.5-4.306 24.252-20.619 24.252-20.619z" class="cls-15" data-name="Path 4696" transform="translate(-898.972 -1002.253)"/>
            <path id="Path_4697" d="M875.843 978.1c-3.2-9.656-16.32-7.373-22.265 5.474s3.152 21.439 8.664 18.292 13.601-23.766 13.601-23.766z" class="cls-15" data-name="Path 4697" transform="translate(-824.577 -972.151)"/>
        </g>
        <g id="Group_1969" data-name="Group 1969" transform="translate(408.304 201.32)">
            <path id="Path_4698" d="M1355.112 414.635a76.467 76.467 0 0 0 2.3-11.747l-12.126-5.458q.092-1.724.094-3.47a64.79 64.79 0 0 0-.7-9.506l11.561-6.578a76.214 76.214 0 0 0-3.4-11.474l-13.275.8a64.225 64.225 0 0 0-6.585-11.2l7.176-11.192a77.287 77.287 0 0 0-8.357-8.578l-11.377 6.877a64.287 64.287 0 0 0-11.023-6.877l1.153-13.252a76.243 76.243 0 0 0-11.379-3.708l-6.881 11.381a64.667 64.667 0 0 0-11.187-.972q-.888 0-1.771.025l-5.135-12.264a76.618 76.618 0 0 0-11.805 1.987l-.8 13.272a63.915 63.915 0 0 0-11.92 5.183l-10.246-8.473a77.106 77.106 0 0 0-9.516 7.267l5.456 12.125a64.546 64.546 0 0 0-8.15 10.113l-13.016-2.742a76.45 76.45 0 0 0-5.062 10.845l10.468 8.2a64 64 0 0 0-2.5 12.752l-12.792 3.619c-.024.787-.04 1.576-.04 2.369a77.631 77.631 0 0 0 .595 9.592l13.078 2.4a63.775 63.775 0 0 0 3.7 12.46l-9.648 9.152a76.736 76.736 0 0 0 6.068 10.319l12.7-3.956a64.658 64.658 0 0 0 9.061 9.3l-4.29 12.589a76.835 76.835 0 0 0 10.156 6.338l9.4-9.4a63.78 63.78 0 0 0 12.358 4.028l2.051 13.138a77.44 77.44 0 0 0 11.606.872h.335l3.957-12.693a64.106 64.106 0 0 0 12.812-2.159l7.924 10.684a76.383 76.383 0 0 0 10.975-4.773l-2.4-13.083a64.526 64.526 0 0 0 10.324-7.882l11.977 5.775a77.162 77.162 0 0 0 7.514-9.323l-8.2-10.465a63.959 63.959 0 0 0 5.5-11.777zm-74.012 10.938a31.614 31.614 0 1 1 31.614-31.614 31.614 31.614 0 0 1-31.614 31.614z" class="cls-19" data-name="Path 4698" transform="translate(-1204.271 -317.442)"/>
            <g id="Group_1967" data-name="Group 1967" transform="translate(26.493 101.761)">
                <path id="Path_4699" d="M1370.33 943.11a.824.824 0 0 1-.663-.333 57.426 57.426 0 0 1-4.808-7.666.825.825 0 1 1 1.463-.764 55.78 55.78 0 0 0 4.67 7.445.826.826 0 0 1-.662 1.318z" class="cls-18" data-name="Path 4699" transform="translate(-1364.765 -933.904)"/>
            </g>
            <g id="Group_1968" data-name="Group 1968" transform="translate(42.248 120.495)">
                <path id="Path_4700" d="M1487.921 1060.179a.855.855 0 0 1-.108-.007 57.113 57.113 0 0 1-27.285-11.3.825.825 0 1 1 1-1.31 55.463 55.463 0 0 0 26.495 10.97.825.825 0 0 1-.106 1.644z" class="cls-18" data-name="Path 4700" transform="translate(-1460.205 -1047.395)"/>
            </g>
        </g>
        <g id="Group_1984" data-name="Group 1984" transform="translate(486.2 239.666)">
            <path id="Rectangle_1036" d="M0 0H150.07V83.259H0z" class="cls-17" data-name="Rectangle 1036"/>
            <path id="Rectangle_1037" d="M0 0H144.127V75.83H0z" class="cls-18" data-name="Rectangle 1037" transform="translate(1.651 1.816)"/>
            <g id="Group_1981" data-name="Group 1981" opacity="0.5" transform="translate(3.6 2.557)">
                <g id="Group_1970" data-name="Group 1970">
                    <path id="Path_4701" d="M1834.987 634.366H1698.3a.33.33 0 0 1-.33-.33v-68.478a.33.33 0 0 1 .33-.33h136.686a.33.33 0 0 1 .33.33v68.477a.33.33 0 0 1-.329.331zm-136.356-.66h136.026v-67.818h-136.026z" class="cls-17" data-name="Path 4701" transform="translate(-1697.971 -565.228)"/>
                </g>
                <g id="Group_1971" data-name="Group 1971" transform="translate(0 57.064)">
                    <path id="Path_4702" d="M1834.987 911.58H1698.3a.33.33 0 1 1 0-.66h136.686a.33.33 0 0 1 0 .66z" class="cls-17" data-name="Path 4702" transform="translate(-1697.971 -910.92)"/>
                </g>
                <g id="Group_1972" data-name="Group 1972" transform="translate(0 45.651)">
                    <path id="Path_4703" d="M1834.987 842.442H1698.3a.33.33 0 1 1 0-.66h136.686a.33.33 0 0 1 0 .66z" class="cls-17" data-name="Path 4703" transform="translate(-1697.971 -841.782)"/>
                </g>
                <g id="Group_1973" data-name="Group 1973" transform="translate(0 34.239)">
                    <path id="Path_4704" d="M1834.987 773.3H1698.3a.33.33 0 1 1 0-.66h136.686a.33.33 0 0 1 0 .66z" class="cls-17" data-name="Path 4704" transform="translate(-1697.971 -772.643)"/>
                </g>
                <g id="Group_1974" data-name="Group 1974" transform="translate(0 22.826)">
                    <path id="Path_4705" d="M1834.987 704.164H1698.3a.33.33 0 1 1 0-.66h136.686a.33.33 0 0 1 0 .66z" class="cls-17" data-name="Path 4705" transform="translate(-1697.971 -703.504)"/>
                </g>
                <g id="Group_1975" data-name="Group 1975" transform="translate(0 11.413)">
                    <path id="Path_4706" d="M1834.987 635.026H1698.3a.33.33 0 1 1 0-.66h136.686a.33.33 0 0 1 0 .66z" class="cls-17" data-name="Path 4706" transform="translate(-1697.971 -634.366)"/>
                </g>
                <g id="Group_1976" data-name="Group 1976" transform="translate(113.905)">
                    <path id="Path_4707" d="M2388.33 634.366a.33.33 0 0 1-.33-.33v-68.478a.33.33 0 1 1 .66 0v68.477a.33.33 0 0 1-.33.331z" class="cls-17" data-name="Path 4707" transform="translate(-2388 -565.228)"/>
                </g>
                <g id="Group_1977" data-name="Group 1977" transform="translate(91.124)">
                    <path id="Path_4708" d="M2250.324 634.366a.33.33 0 0 1-.33-.33v-68.478a.33.33 0 1 1 .66 0v68.477a.33.33 0 0 1-.33.331z" class="cls-17" data-name="Path 4708" transform="translate(-2249.994 -565.228)"/>
                </g>
                <g id="Group_1978" data-name="Group 1978" transform="translate(68.343)">
                    <path id="Path_4709" d="M2112.318 634.366a.33.33 0 0 1-.33-.33v-68.478a.33.33 0 1 1 .66 0v68.477a.33.33 0 0 1-.33.331z" class="cls-17" data-name="Path 4709" transform="translate(-2111.988 -565.228)"/>
                </g>
                <g id="Group_1979" data-name="Group 1979" transform="translate(45.562)">
                    <path id="Path_4710" d="M1974.312 634.366a.33.33 0 0 1-.33-.33v-68.478a.33.33 0 1 1 .66 0v68.477a.33.33 0 0 1-.33.331z" class="cls-17" data-name="Path 4710" transform="translate(-1973.982 -565.228)"/>
                </g>
                <g id="Group_1980" data-name="Group 1980" transform="translate(22.781)">
                    <path id="Path_4711" d="M1836.307 634.366a.33.33 0 0 1-.33-.33v-68.478a.33.33 0 1 1 .66 0v68.477a.33.33 0 0 1-.33.331z" class="cls-17" data-name="Path 4711" transform="translate(-1835.977 -565.228)"/>
                </g>
            </g>
            <g id="Group_1982" data-name="Group 1982" transform="translate(3.27 2.227)">
                <path id="Path_4712" d="M1696.631 633.026a.66.66 0 0 1-.3-1.251l22.691-11.368 11.7-11.26 10.868-22.718a.667.667 0 0 1 .156-.208l12.354-11.008a.66.66 0 0 1 1.038.215l10.416 22.4 12.376 21.988 9.319-10.707a.66.66 0 0 1 .476-.226.643.643 0 0 1 .49.194l10.6 10.654 11.082-33.223a.657.657 0 0 1 .159-.258l22.781-22.826a.66.66 0 1 1 .935.933l-22.671 22.716-11.372 34.091a.66.66 0 0 1-1.094.257l-10.859-10.91-9.468 10.878a.66.66 0 0 1-1.073-.11L1764.4 598.45c-.009-.015-.016-.03-.023-.045l-10.052-21.615-11.592 10.328-10.863 22.706a.667.667 0 0 1-.138.191l-11.861 11.413a.651.651 0 0 1-.162.115l-22.781 11.413a.658.658 0 0 1-.297.07z" class="cls-21" data-name="Path 4712" transform="translate(-1695.97 -563.227)"/>
            </g>
            <g id="Group_1983" data-name="Group 1983" transform="translate(3.27 2.227)">
                <path id="Path_4713" d="M1696.631 633.024a.66.66 0 0 1-.473-1.121l33.4-34.239a.66.66 0 0 1 .924-.02l11.691 10.975 22.329-22.372a.66.66 0 0 1 .925-.009l11.38 10.954 10.466-10.935a.662.662 0 0 1 .47-.2.672.672 0 0 1 .474.194l22.133 22.176 22.371-44.83a.66.66 0 1 1 1.182.59l-22.781 45.651a.66.66 0 0 1-1.058.172l-22.3-22.348-10.457 10.925a.661.661 0 0 1-.935.019l-11.389-10.963L1742.66 610a.66.66 0 0 1-.919.015l-11.686-10.97-32.955 33.78a.658.658 0 0 1-.469.199z" class="cls-17" data-name="Path 4713" transform="translate(-1695.97 -563.226)"/>
            </g>
        </g>
        <g id="Group_1987" data-name="Group 1987" transform="translate(427.427 206.642)">
            <path id="Rectangle_1038" d="M7.788 0h35.969a7.788 7.788 0 0 1 7.788 7.788v15.986A51.545 51.545 0 0 1 0 75.32V7.788A7.788 7.788 0 0 1 7.788 0z" class="cls-17" data-name="Rectangle 1038" transform="translate(23.021)"/>
            <path id="Rectangle_1039" d="M7.438 0h34.353a7.438 7.438 0 0 1 7.438 7.438V22.73A49.229 49.229 0 0 1 0 71.959V7.438A7.438 7.438 0 0 1 7.438 0z" class="cls-18" data-name="Rectangle 1039" transform="translate(23.602 1.274)"/>
            <path id="Path_4714" d="M1372.691 687.943v-1.3a1.742 1.742 0 0 0-1.6-1.854h-49.37a1.741 1.741 0 0 0-1.6 1.854v1.3c0 9.2 6.443 16.656 14.39 16.656h50.443c-7.954.001-12.372-6.618-12.263-16.656z" class="cls-17" data-name="Path 4714" transform="translate(-1320.118 -629.474)"/>
            <path id="Path_4715" d="M1382.246 698.8v-1.05a1.5 1.5 0 0 0-1.5-1.5h-46.229a1.5 1.5 0 0 0-1.5 1.5v1.05a13.475 13.475 0 0 0 13.475 13.475h49.229c-7.442 0-13.475-3.602-13.475-13.475z" class="cls-18" data-name="Path 4715" transform="translate(-1330.888 -639.041)"/>
            <g id="Group_1985" data-name="Group 1985" transform="translate(30.481 8.157)">
                <path id="Path_4716" d="M1541.953 422.233h-35.164a2.02 2.02 0 0 1-2.018-2.018v-19.1a2.02 2.02 0 0 1 2.018-2.018h35.164a2.02 2.02 0 0 1 2.018 2.018v19.1a2.02 2.02 0 0 1-2.018 2.018zm-35.164-22.48a1.359 1.359 0 0 0-1.358 1.358v19.1a1.359 1.359 0 0 0 1.358 1.358h35.164a1.359 1.359 0 0 0 1.358-1.358v-19.1a1.359 1.359 0 0 0-1.358-1.358z" class="cls-17" data-name="Path 4716" transform="translate(-1504.771 -399.093)"/>
            </g>
            <path id="Path_4717" d="M1458.659 585.35h-38.652a1 1 0 1 1 0-2h38.652a1 1 0 0 1 0 2z" class="cls-17" data-name="Path 4717" transform="translate(-1402.684 -544.78)"/>
            <path id="Path_4718" d="M1458.659 607.42h-38.652a1 1 0 1 1 0-2h38.652a1 1 0 0 1 0 2z" class="cls-17" data-name="Path 4718" transform="translate(-1402.684 -563.207)"/>
            <path id="Path_4719" d="M1458.659 628.722h-38.652a1 1 0 1 1 0-2h38.652a1 1 0 0 1 0 2z" class="cls-17" data-name="Path 4719" transform="translate(-1402.684 -580.993)"/>
            <g id="Group_1986" data-name="Group 1986" transform="translate(56.279 11.196)">
                <rect id="Rectangle_1040" width="2.28" height="2.052" class="cls-17" data-name="Rectangle 1040" rx="1.026"/>
                <rect id="Rectangle_1041" width="2.28" height="2.052" class="cls-17" data-name="Rectangle 1041" rx="1.026" transform="translate(4.145)"/>
                <rect id="Rectangle_1042" width="2.28" height="2.052" class="cls-17" data-name="Rectangle 1042" rx="1.026" transform="translate(8.29)"/>
            </g>
            <path id="Rectangle_1043" d="M0 0H5.204V8.592H0z" class="cls-17" data-name="Rectangle 1043" transform="translate(34.328 19.727)"/>
            <path id="Rectangle_1044" d="M0 0H5.204V7.877H0z" class="cls-17" data-name="Rectangle 1044" transform="translate(48.675 20.442)"/>
            <path id="Rectangle_1045" d="M0 0H5.204V11.393H0z" class="cls-17" data-name="Rectangle 1045" transform="translate(56.973 16.926)"/>
            <path id="Rectangle_1046" d="M0 0H5.204V5.204H0z" class="cls-17" data-name="Rectangle 1046" transform="translate(41.36 23.115)"/>
        </g>
        <g id="Group_1989" data-name="Group 1989" transform="translate(754.422 270.808)">
            <path id="Path_4720" d="M3319.564 772.636h18.527a18.527 18.527 0 1 1-18.527-18.527z" class="cls-17" data-name="Path 4720" transform="translate(-3301.037 -751.515)"/>
            <g id="Group_1988" data-name="Group 1988" transform="translate(3.103)">
                <path id="Path_4721" d="M3450.6 756.921a18.527 18.527 0 0 0-18.527-18.527v18.527z" class="cls-21" data-name="Path 4721" transform="translate(-3413.543 -738.394)"/>
                <path id="Path_4722" d="M3319.835 850.63a18.527 18.527 0 0 0 18.527 18.527 18.616 18.616 0 0 1-18.527-18.527z" class="cls-21" data-name="Path 4722" transform="translate(-3319.835 -832.103)"/>
                <path id="Path_4723" d="M3338.362 738.394a18.527 18.527 0 0 0-18.527 18.527 18.616 18.616 0 0 1 18.527-18.527z" class="cls-21" data-name="Path 4723" transform="translate(-3319.835 -738.394)"/>
                <path id="Path_4724" d="M3432.071 869.157a18.527 18.527 0 0 0 18.529-18.527 18.616 18.616 0 0 1-18.529 18.527z" class="cls-21" data-name="Path 4724" transform="translate(-3413.543 -832.103)"/>
            </g>
        </g>
        <circle id="Ellipse_170" cx="1.643" cy="1.643" r="1.643" class="cls-21" data-name="Ellipse 170" transform="rotate(-13.282 1360.177 -2218.499)"/>
        <circle id="Ellipse_171" cx="1.643" cy="1.643" r="1.643" class="cls-17" data-name="Ellipse 171" transform="rotate(-13.282 1444.247 -2102.37)"/>
        <circle id="Ellipse_172" cx="1.643" cy="1.643" r="1.643" class="cls-17" data-name="Ellipse 172" transform="translate(556.83 263.736)"/>
        <circle id="Ellipse_173" cx="1.643" cy="1.643" r="1.643" class="cls-17" data-name="Ellipse 173" transform="translate(579.611 263.736)"/>
        <circle id="Ellipse_174" cx="1.643" cy="1.643" r="1.643" class="cls-21" data-name="Ellipse 174" transform="translate(602.392 263.736)"/>
        <g id="Group_1991" data-name="Group 1991" transform="translate(425.732 269.231)">
            <circle id="Ellipse_175" cx="8.865" cy="8.865" r="8.865" class="cls-22" data-name="Ellipse 175" transform="rotate(-45 15.133 6.269)"/>
            <g id="Group_1990" data-name="Group 1990" transform="translate(8.754 9.608)">
                <path id="Path_4725" d="M1365.786 793.066h-.018a.5.5 0 0 1-.353-.168l-2.408-2.736a.5.5 0 0 1 .744-.654l2.063 2.344 4.771-4.669a.5.5 0 1 1 .693.708l-5.144 5.035a.5.5 0 0 1-.348.14z" class="cls-18" data-name="Path 4725" transform="translate(-1362.883 -787.041)"/>
            </g>
        </g>
        <g id="Group_1992" data-name="Group 1992" transform="translate(313.018 218.589)">
            <path id="Rectangle_1047" d="M0 0H5.901V32.191H0z" class="cls-17" data-name="Rectangle 1047" transform="translate(0 9.801)"/>
            <path id="Rectangle_1048" d="M0 0H5.901V22.826H0z" class="cls-17" data-name="Rectangle 1048" transform="translate(25.007 19.165)"/>
            <path id="Rectangle_1049" d="M0 0H5.901V32.191H0z" class="cls-17" data-name="Rectangle 1049" transform="translate(37.511 9.801)"/>
            <path id="Rectangle_1050" d="M0 0H5.901V11.413H0z" class="cls-17" data-name="Rectangle 1050" transform="translate(50.014 30.578)"/>
            <path id="Rectangle_1051" d="M0 0H5.901V41.991H0z" class="cls-17" data-name="Rectangle 1051" transform="translate(12.504)"/>
            <path id="Rectangle_1052" d="M0 0H5.901V22.826H0z" class="cls-17" data-name="Rectangle 1052" transform="translate(62.56 19.165)"/>
        </g>
        <g id="Group_1993" data-name="Group 1993" transform="translate(676.09 208.429)">
            <path id="Rectangle_1053" d="M0 0H5.901V17.074H0z" class="cls-17" data-name="Rectangle 1053" transform="translate(0 22.874)"/>
            <path id="Rectangle_1054" d="M0 0H5.901V11.519H0z" class="cls-17" data-name="Rectangle 1054" transform="translate(75.633 28.429)"/>
            <path id="Rectangle_1055" d="M0 0H5.901V39.948H0z" class="cls-17" data-name="Rectangle 1055" transform="translate(25.007)"/>
            <path id="Rectangle_1056" d="M0 0H5.901V17.956H0z" class="cls-17" data-name="Rectangle 1056" transform="translate(37.511 21.992)"/>
            <path id="Rectangle_1057" d="M0 0H5.901V23.039H0z" class="cls-17" data-name="Rectangle 1057" transform="translate(50.015 16.91)"/>
            <path id="Rectangle_1058" d="M0 0H5.901V28.347H0z" class="cls-17" data-name="Rectangle 1058" transform="translate(12.504 11.601)"/>
            <path id="Rectangle_1059" d="M0 0H5.901V34.914H0z" class="cls-17" data-name="Rectangle 1059" transform="translate(62.56 5.035)"/>
        </g>
        <g id="Group_1995" data-name="Group 1995" transform="translate(270.721 292.209)">
            <g id="Group_1994" clip-path="url(#clip-path)" data-name="Group 1994">
                <path id="Path_4726" d="M514.843 1023.252l-21.221-12.977-3.839 24.577a24.9 24.9 0 0 0 25.06-11.6z" class="cls-2" data-name="Path 4726" transform="translate(-470.143 -986.796)"/>
                <path id="Path_4727" d="M534.281 963.76c.057-.094.132-.222.129-.218a24.876 24.876 0 0 0 .551-24.486c-7.51 3.935-3.038 1.544-21.923 11.756 21.256 12.998 17.955 10.994 21.243 12.948z" class="cls-22" data-name="Path 4727" transform="translate(-489.559 -927.333)"/>
                <path id="Path_4728" d="M371.722 876l23.327 8.6 21.883-11.833c-10.232-18.931-37.788-16.661-45.21 3.233z" class="cls-17" data-name="Path 4728" transform="translate(-371.57 -861.119)"/>
                <path id="Path_4729" d="M383.3 991.376l3.839-24.577-23.327-8.6a24.925 24.925 0 0 0 19.488 33.177z" class="cls-21" data-name="Path 4729" transform="translate(-363.66 -943.32)"/>
                <path id="Path_4730" fill="#e7f3fe" d="M405.363 893.118a25.8 25.8 0 0 0 .644-24.188l.014-.007-.393-.726-.025-.044-.321-.6-.012.006a25.4 25.4 0 0 0-10.253-9.946 25.909 25.909 0 0 0-35.8 13.156l-.014-.005-.287.77-.29.776h.014a25.381 25.381 0 0 0 2.175 20.969 25.725 25.725 0 0 0 17.422 12.383v.014l.813.128.817.129v-.014a25.721 25.721 0 0 0 24.655-11.443l.017.01.162-.265.263-.432c.04-.066.089-.148.116-.2l.017-.029.013-.022.262-.428zm-2.488-22.439l1.714-.9a24.146 24.146 0 0 1-.619 22.453l-.157-.092c-.867-.514-1.244-.737-2.972-1.791l-16.168-9.887 13.421-7.257c1.971-1.057 2.779-1.48 4.781-2.526zm-42.107.664a24.066 24.066 0 0 1 43-3.081l-6.463 3.495c-1.334.718-3.2 1.727-6.322 3.417l-7.743 4.189-.2.108-.65-.4-.035.227-10.22-3.766zm1.476 21.113a23.735 23.735 0 0 1-2.052-19.566l15.366 5.662 6.542 2.411-3.6 23.078a24.081 24.081 0 0 1-16.257-11.585zm17.882 11.844l3.518-22.526 9.156 5.6c3.691 2.258 5.8 3.55 7.133 4.361l3.161 1.933a23.953 23.953 0 0 1-22.968 10.632z" data-name="Path 4730" transform="translate(-359.54 -856.942)"/>
            </g>
        </g>
        <path id="Path_4732" d="M347.631 1296.653a7.407 7.407 0 1 1-7.407-7.407 7.407 7.407 0 0 1 7.407 7.407z" class="cls-17" data-name="Path 4732" transform="translate(-68.367 -927.507)"/>
        <path id="Path_4733" d="M373.121 1317.319a3.716 3.716 0 1 1-3.716-3.716 3.716 3.716 0 0 1 3.716 3.716z" class="cls-18" data-name="Path 4733" transform="translate(-95.812 -947.844)"/>
        <path id="Rectangle_1060" d="M14.085 0A14.085 14.085 0 0 1 28.17 14.085 14.085 14.085 0 0 1 14.085 28.17 14.085 14.085 0 0 1 0 14.085 14.085 14.085 0 0 1 14.085 0z" class="cls-17" data-name="Rectangle 1060" transform="translate(756.006 340.876)"/>
        <g id="Group_1996" data-name="Group 1996" transform="translate(763.747 344.363)">
            <path id="Path_4734" d="M3381.634 1213.8h-18.389a5.723 5.723 0 0 1-5.716-5.716V1189.7a5.723 5.723 0 0 1 5.716-5.716h18.389a5.722 5.722 0 0 1 5.716 5.716v18.389a5.722 5.722 0 0 1-5.716 5.711zm-18.389-28.17a4.069 4.069 0 0 0-4.065 4.065v18.389a4.069 4.069 0 0 0 4.065 4.065h18.389a4.069 4.069 0 0 0 4.065-4.065V1189.7a4.069 4.069 0 0 0-4.065-4.065z" class="cls-18" data-name="Path 4734" transform="translate(-3357.529 -1183.983)"/>
        </g>
        <path id="Path_4735" d="M1463.727 1272.109l-4.693-5.412a1.987 1.987 0 0 1 .2-2.794l5.412-4.693a1.987 1.987 0 0 1 2.794.2l4.693 5.412a1.987 1.987 0 0 1-.2 2.794l-5.412 4.693a1.987 1.987 0 0 1-2.794-.2z" class="cls-17" data-name="Path 4735" transform="translate(-1008.274 -902.027)"/>
        <path id="Path_4736" d="M1618.72 1346.257a4.145 4.145 0 1 1-4.145-4.145 4.145 4.145 0 0 1 4.145 4.145z" class="cls-17" data-name="Path 4736" transform="translate(-1135.081 -971.647)"/>
        <path id="Path_4737" d="M3767.275 1268.554a4.131 4.131 0 1 1-4.131-4.131 4.132 4.132 0 0 1 4.131 4.131z" class="cls-17" data-name="Path 4737" transform="translate(-2928.99 -906.782)"/>
        <path id="Path_4738" d="M3120.235 758.489a4.131 4.131 0 1 1-4.131-4.131 4.131 4.131 0 0 1 4.131 4.131z" class="cls-17" data-name="Path 4738" transform="translate(-2388.759 -480.915)"/>
        <circle id="Ellipse_176" cx="3.219" cy="3.219" r="3.219" class="cls-17" data-name="Ellipse 176" transform="rotate(-80.783 596.386 -306.37)"/>
        <g id="Group_1998" data-name="Group 1998" transform="translate(625.399 256.83)">
            <path id="Rectangle_1061" d="M8.169 0H62.96a8.17 8.17 0 0 1 8.17 8.17v15.805a8.17 8.17 0 0 1-8.17 8.17H8.17A8.17 8.17 0 0 1 0 23.975V8.169A8.169 8.169 0 0 1 8.169 0z" class="cls-17" data-name="Rectangle 1061"/>
            <rect id="Rectangle_1062" width="67.24" height="22.191" class="cls-18" data-name="Rectangle 1062" rx="6.6" transform="translate(1.945 8.445)"/>
            <g id="Group_1997" data-name="Group 1997" transform="translate(2.932 2.366)">
                <path id="Rectangle_1063" d="M1.254 0h.279a1.254 1.254 0 0 1 1.254 1.254 1.254 1.254 0 0 1-1.254 1.254h-.279A1.254 1.254 0 0 1 0 1.254 1.254 1.254 0 0 1 1.254 0z" class="cls-18" data-name="Rectangle 1063"/>
                <path id="Rectangle_1064" d="M1.254 0h.279a1.254 1.254 0 0 1 1.254 1.254 1.254 1.254 0 0 1-1.254 1.254h-.279A1.254 1.254 0 0 1 0 1.254 1.254 1.254 0 0 1 1.254 0z" class="cls-18" data-name="Rectangle 1064" transform="translate(5.066)"/>
                <rect id="Rectangle_1065" width="2.787" height="2.508" class="cls-18" data-name="Rectangle 1065" rx="1.254" transform="translate(10.133)"/>
            </g>
            <path id="Path_4739" d="M2736.691 723.58h-35.567a1.064 1.064 0 0 1 0-2.128h35.567a1.064 1.064 0 0 1 0 2.128z" class="cls-17" data-name="Path 4739" transform="translate(-2670.241 -710.271)"/>
            <path id="Path_4740" d="M2574.634 823.023h-35.567a1.064 1.064 0 0 1 0-2.128h35.567a1.064 1.064 0 0 1 0 2.128z" class="cls-17" data-name="Path 4740" transform="translate(-2534.935 -793.298)"/>
            <path id="Rectangle_1066" d="M1.064 0h2.28a1.064 1.064 0 0 1 1.064 1.064 1.064 1.064 0 0 1-1.064 1.064h-2.28A1.064 1.064 0 0 1 0 1.064 1.064 1.064 0 0 1 1.064 0z" class="cls-17" data-name="Rectangle 1066" transform="translate(42.206 27.597)"/>
            <path id="Rectangle_1067" d="M1.064 0h2.28a1.064 1.064 0 0 1 1.064 1.064 1.064 1.064 0 0 1-1.064 1.064h-2.28A1.064 1.064 0 0 1 0 1.064 1.064 1.064 0 0 1 1.064 0z" class="cls-17" data-name="Rectangle 1067" transform="translate(47.754 27.597)"/>
            <path id="Path_4741" d="M2622.483 755.123h-58.9a.722.722 0 1 1 0-1.444h58.9a.722.722 0 0 1 0 1.444z" class="cls-17" data-name="Path 4741" transform="translate(-2555.692 -737.178)"/>
            <path id="Path_4742" d="M2622.483 774h-58.9a.722.722 0 1 1 0-1.444h58.9a.722.722 0 0 1 0 1.444z" class="cls-17" data-name="Path 4742" transform="translate(-2555.692 -752.938)"/>
        </g>
        <circle id="Ellipse_177" cx="8.169" cy="8.169" r="8.169" class="cls-17" data-name="Ellipse 177" transform="rotate(-76.7 297.546 -35.616)"/>
        <path id="Path_4743" d="M776.222 783.483h-58.706a1.09 1.09 0 0 1 0-2.181h58.706a1.09 1.09 0 0 1 0 2.181z" class="cls-17" data-name="Path 4743" transform="translate(-388.652 -503.411)"/>
        <path id="Path_4744" d="M776.222 816.472h-58.706a1.09 1.09 0 0 1 0-2.181h58.706a1.09 1.09 0 0 1 0 2.181z" class="cls-17" data-name="Path 4744" transform="translate(-388.652 -530.954)"/>
        <g id="Group_2002" data-name="Group 2002" transform="translate(526.599 318.721)">
            <path id="Path_4745" d="M2002.327 1073.258a41.232 41.232 0 0 0 .258-4.586c0-.818-.027-1.63-.074-2.437l-7.578-2.452a33.32 33.32 0 0 0-2.683-9.079l5.024-6.183a40.923 40.923 0 0 0-3.98-5.786l-7.579 2.473a33.68 33.68 0 0 0-7.5-5.767l.431-7.963a40.535 40.535 0 0 0-6.616-2.345l-4.68 6.458a33.691 33.691 0 0 0-9.46-.248l-4.333-6.7a40.547 40.547 0 0 0-6.731 1.989l.01 7.974a33.623 33.623 0 0 0-7.8 5.364l-7.435-2.869a41.013 41.013 0 0 0-4.282 5.567l4.692 6.441a33.312 33.312 0 0 0-3.163 8.924l-7.7 2.048a41.222 41.222 0 0 0-.258 4.586c0 .818.027 1.63.074 2.436l7.578 2.452a33.311 33.311 0 0 0 2.683 9.079l-5.024 6.183a40.936 40.936 0 0 0 3.98 5.786l7.579-2.473a33.688 33.688 0 0 0 7.5 5.767l-.431 7.962a40.53 40.53 0 0 0 6.615 2.345l4.68-6.458a33.7 33.7 0 0 0 9.46.248l4.333 6.7a40.506 40.506 0 0 0 6.731-1.989l-.01-7.974a33.625 33.625 0 0 0 7.8-5.364l7.435 2.869a41 41 0 0 0 4.282-5.567l-4.692-6.442a33.3 33.3 0 0 0 3.163-8.924zm-40.587 11.434a16.02 16.02 0 1 1 16.021-16.02 16.02 16.02 0 0 1-16.021 16.021z" class="cls-19" data-name="Path 4745" transform="translate(-1920.895 -1028.648)"/>
            <g id="Group_1999" data-name="Group 1999" transform="translate(61.87 30.188)">
                <path id="Path_4746" d="M2296.526 1239.86a.825.825 0 0 1-.634-1.353 26.878 26.878 0 0 0 4.736-25.887.825.825 0 0 1 1.561-.538 28.531 28.531 0 0 1-5.027 27.48.824.824 0 0 1-.636.298z" class="cls-18" data-name="Path 4746" transform="translate(-2295.701 -1211.526)"/>
            </g>
            <g id="Group_2000" data-name="Group 2000" transform="translate(50.029 13.193)">
                <path id="Path_4747" d="M2234.316 1116.088a.822.822 0 0 1-.566-.224 26.675 26.675 0 0 0-9.237-5.691.825.825 0 0 1 .563-1.552 28.32 28.32 0 0 1 9.806 6.041.825.825 0 0 1-.566 1.426z" class="cls-18" data-name="Path 4747" transform="translate(-2223.97 -1108.571)"/>
            </g>
            <g id="Group_2001" data-name="Group 2001" transform="translate(33.806 11.543)">
                <path id="Path_4748" d="M2126.515 1101.064a.825.825 0 0 1-.2-1.626 28.58 28.58 0 0 1 6.992-.865.825.825 0 1 1 0 1.651 26.937 26.937 0 0 0-6.588.815.829.829 0 0 1-.204.025z" class="cls-18" data-name="Path 4748" transform="translate(-2125.69 -1098.573)"/>
            </g>
        </g>
    </g>
</svg>
