<svg xmlns="http://www.w3.org/2000/svg" width="605.614" height="295.75" viewBox="0 0 605.614 295.75">
    <defs>
        <style>
            .cls-2{fill:#a2dff2}.cls-3{fill:#96cfe0}.cls-4{fill:#2e5b9a}.cls-5{fill:#f09959}.cls-7{fill:#75a1de}.cls-11{fill:#a8ceff}.cls-13{fill:#b7e1ff}.cls-14{fill:#fff}.cls-15{fill:#9ec8ff}
        </style>
    </defs>
    <g id="Group_1343" data-name="Group 1343" transform="translate(-1605.256 -173.302)">
        <path id="Path_3955" fill="#e7f3fe" d="M1635.275 467.515s-50.733-62.909-20.293-122.774 88.275-45.66 169.448-106.539c98.544-73.908 167.74-77.969 255.694-45.66 49.718 18.264 57.836 93.349 136.979 140.023 71.347 42.076 13.19 113.641-24.352 124.8s-62.909 11.161-62.909 11.161z" data-name="Path 3955"/>
        <path id="Path_3956" d="M2279.564 539.2c-12.662 25.7-28.539 95.944-32.869 99.793s-29.346 18.763-33.677 25.979-2.405 4.811-.481 5.292 110.652.962 110.652.962-12.508-74.569-13.952-75.05-29.673-56.976-29.673-56.976z" class="cls-2" data-name="Path 3956" transform="translate(-342.242 -206.935)"/>
        <path id="Path_3957" d="M2328.154 670.878c19.969.139 41.041.249 52.641.306l-15.882-94.984c-8.471-16.423-18.755-37-18.755-37-1.6 3.241-3.244 7.189-4.913 11.623-1.647 71.339 8.628 91.334.91 104.046-6.022 9.919-11.519 14.356-14.001 16.009z" class="cls-3" data-name="Path 3957" transform="translate(-408.837 -206.935)"/>
        <path id="Path_3958" d="M2162.892 843.567H1640.8a4.027 4.027 0 0 1 0-8.055h522.1a4.027 4.027 0 1 1 0 8.055z" class="cls-4" data-name="Path 3958" transform="translate(-17.822 -374.515)"/>
        <path id="Path_3959" d="M2436.066 467.79c18.059 16.669 58.256 32.477 58.256 32.477s6.107 56.427 1.94 88.378-1.853 38.433-1.853 38.433h-82.885s-11.124-15.437-31.487-63.437c-12.965-30.561-10.65-64.827-10.65-64.827l50.472-22.689z" class="cls-2" data-name="Path 3959" transform="translate(-432.066 -166.549)"/>
        <path id="Path_3960" d="M2453.542 671.443h82.885s-2.315-6.482 1.853-38.433c3.431-26.308-.1-69.212-1.459-83.543l-7.538-3.231c-18.924 5.453-29.829 33.678-33.037 61.262-2.146 18.457-32.724 36.626-52.725 46.629 6.572 12.527 10.021 17.316 10.021 17.316z" class="cls-3" data-name="Path 3960" transform="translate(-474.083 -210.914)"/>
        <path id="Path_3961" d="M2414.628 334.475c-9.991 22.253 2 42.867 1.637 42s15.123-37.571 15.123-37.571z" class="cls-4" data-name="Path 3961" transform="translate(-455.489 -91.152)"/>
        <path id="Path_3962" d="M2479.247 372.351l12.671 46.315a4.193 4.193 0 0 1-.8 3.752c-2.972 3.661-7.2 11.192-15.741 13.608a21.154 21.154 0 0 1-5.36.6 3.616 3.616 0 0 1-3.57-2.927l-8.49-43.929z" class="cls-5" data-name="Path 3962" transform="translate(-482.247 -112.573)"/>
        <path id="Path_3963" fill="#e38540" d="M2476.827 381.261l-4.632 1.9-14.239 11.651 7.644 38.946c12.962-8.083 14.852-13.537 11.227-52.497z" data-name="Path 3963" transform="translate(-482.247 -117.612)"/>
        <path id="Path_3964" d="M2452.558 368.422c-2.8 15.236-14.206 25.54-25.465 23.015s-16.631-12.386-15.308-32.159c1.037-15.512 8.686-32.373 19.945-29.848s23.633 23.756 20.828 38.992z" class="cls-5" data-name="Path 3964" transform="translate(-456.023 -88.156)"/>
        <path id="Path_3965" d="M2544.973 542.04c16.771 3.787 19.886 37.848 25.339 73.771.627 4.135 3.849 39.131 3.849 39.131a10.711 10.711 0 0 1-6.094 9.622c-5.48 2.741-7.7 4.812-39.451 5.132-30.5.308-69.816-.962-69.816-.962s-.348-11.347 2.78-16.893c4.7-8.339 52.923-20.314 57.414-20.955.642-8.981-4.428-41.475 2.566-63.508 4.811-15.156 9.984-23.094 16.463-25.169a13.008 13.008 0 0 1 6.95-.169z" class="cls-2" data-name="Path 3965" transform="translate(-482.717 -208.321)"/>
        <path id="Path_3966" d="M2498.506 679.848c15.034.226 35.667.442 52.572.271 31.753-.321 33.971-2.392 39.451-5.132 6.415-3.207 6.735-8.66 6.735-8.66s-3.241-37.239-3.848-41.376c-3.529-24.056-7.341-51.583-16.213-64.87a181.38 181.38 0 0 1 9.832 53.881c.076 4.461-.336 10.571-1.638 14.839-1.443 4.731-5.132 7.7-10.906 6.094-11.547-3.207-25.98 3.528-25.98 3.528s10.906-3.849 21.17-.321 31.433 26.943 8.339 35.6c-7.067 2.652-49.395 4.813-79.514 6.146z" class="cls-3" data-name="Path 3966" transform="translate(-505.18 -218.743)"/>
        <path id="Path_3967" d="M2464.16 788.281s4.277-7.27 13.044-7.27 8.125 14.326 6.843 19.031-6.416 4.918-6.416 4.918l-18.816-.855z" class="cls-3" data-name="Path 3967" transform="translate(-482.732 -343.691)"/>
        <path id="Rectangle_873" d="M3.72 0h117.689a3.72 3.72 0 0 1 3.72 3.72 3.72 3.72 0 0 1-3.72 3.72H3.72A3.72 3.72 0 0 1 0 3.72 3.72 3.72 0 0 1 3.72 0z" class="cls-7" data-name="Rectangle 873" transform="translate(1840.476 457.093)"/>
        <path id="Path_3968" d="M2404.4 791.373c-18.389-6.629-23.214-4.133-27.37-5.346-10.264-2.993-12.83-.428-19.458 17.748-1.32 3.622 2.566 3.849 6.415 3.849s8.553-7.484 10.051-8.339S2379.6 798 2379.6 798s-1.283 0-3.207 3.849-4.277 5.346-1.283 5.346 3.421-4.918 8.981-3.849 3.422 3.849 17.321 3.635 24.388 0 24.163-8.34c-.214-7.912.662-11.868-6.843-13.257-5.776-1.068-14.332 5.989-14.332 5.989z" class="cls-5" data-name="Path 3968" transform="translate(-425.327 -345.928)"/>
        <path id="Path_3969" fill="#a86b48" d="M2465.982 793.312c12.295-1.39 8.687 13.926 7.4 15.209s6.846.451 6.846.451a14.847 14.847 0 0 0 .612-13.2 11.99 11.99 0 0 0-9.623-7.377l-5.452 2.993z" data-name="Path 3969" transform="translate(-486.665 -347.867)"/>
        <path id="Path_3970" d="M2477.792 791.355c-.159 1.9-3.384 3.178-7.2 2.859s-6.789-2.117-6.63-4.015 3.384-3.178 7.2-2.859 6.789 2.117 6.63 4.015z" class="cls-4" data-name="Path 3970" transform="translate(-485.638 -347.244)"/>
        <path id="Path_3971" fill="#3e6bab" d="M2477.46 789.747c-.141 1.7-3.023 2.839-6.437 2.555s-6.065-1.892-5.924-3.587 3.024-2.84 6.438-2.554 6.063 1.89 5.923 3.586z" data-name="Path 3971" transform="translate(-486.284 -346.579)"/>
        <path id="Path_3972" fill="#f0ceb4" d="M2477.062 789.262c-.1 1.221-2.176 2.044-4.633 1.838s-4.366-1.361-4.264-2.582 2.177-2.044 4.634-1.839 4.365 1.362 4.263 2.583z" data-name="Path 3972" transform="translate(-488.018 -346.88)"/>
        <g id="Group_1333" data-name="Group 1333" transform="translate(1691.278 328.596)">
            <path id="Path_3973" d="M1951.372 643.194h-119.5a13.075 13.075 0 0 1-12.811-10.82l-15.585-86.029a13.154 13.154 0 0 1 12.811-15.592h119.5a13.075 13.075 0 0 1 12.811 10.82l15.585 86.029a13.154 13.154 0 0 1-12.811 15.592z" class="cls-7" data-name="Path 3973" transform="translate(-1803.26 -530.753)"/>
            <path id="Path_3974" d="M1956.955 630.953l-15.906-84.253a13.2 13.2 0 0 0-13.075-10.6h-121.439a13.419 13.419 0 0 0-3.049 11.233l16.133 87.834a13.483 13.483 0 0 0 13.261 11.047h111a13.042 13.042 0 0 0 13.075-15.261z" class="cls-11" data-name="Path 3974" transform="translate(-1803.26 -533.782)"/>
            <path id="Path_3975" d="M2005.858 734.94h-22.685c-4.046 0-7.325-3.6-7.325-8.048v-41.476c0-7.074-5.22-12.809-11.66-12.809h-11.85c-6.439 0-11.659 5.735-11.659 12.809v46.449c0 7.943 5.885 14.368 13.115 14.318l61.911-.425c0-5.975-4.405-10.818-9.847-10.818z" class="cls-7" data-name="Path 3975" transform="translate(-1880.978 -610.979)"/>
            <path id="Path_3976" d="M1942.755 687.814v45.737a14.1 14.1 0 0 0 13.073 14.058l60.422-.378c-.007-.99-4.769-2.794-10.653-2.794h-24.539a7.924 7.924 0 0 1-7.924-7.924v-48.7a12.613 12.613 0 0 0-12.613-12.612h-5.153a12.612 12.612 0 0 0-12.613 12.613z" class="cls-11" data-name="Path 3976" transform="translate(-1882.151 -612.446)"/>
        </g>
        <path id="Path_3977" d="M2219.634 799.965c9.132-5.073 20.291-3.382 24.349 1.691s4.735 8.454-4.4 8.454-27.393.676-30.437.338 10.488-10.483 10.488-10.483z" class="cls-5" data-name="Path 3977" transform="translate(-341.281 -352.678)"/>
        <path id="Path_3978" d="M2265 796.23c9.807-2.367 16.508 3.34 24.687 8.793 7.1 4.735 8.53 9.337.677 5.411-11.5-5.749-18.262-6.425-18.262-6.425z" class="cls-5" data-name="Path 3978" transform="translate(-373.12 -351.987)"/>
        <path id="Path_3979" d="M2210.881 802.157c-4.953 0-9.276-1.579-12.773-1.288s-14.567 11.654-12.819 12.528a3.98 3.98 0 0 0 .408.174 5.965 5.965 0 0 0 7.077-2.482c1.566-2.515 4.115-5.44 7.083-4.393a31.487 31.487 0 0 0 10.151 1.58z" class="cls-5" data-name="Path 3979" transform="translate(-327.934 -354.902)"/>
        <path id="Path_3980" fill="#f7a96f" d="M2235.628 807.321c-5.073-2.029 3.044-18.938 5.749-18.938s12.851 8.116 12.851 8.116-2.386 1.347-10.483-1.352c-2.029-.676-3.72 10.822-6.087 12.175s-2.03-.001-2.03-.001z" data-name="Path 3980" transform="translate(-355.585 -347.861)"/>
        <path id="Path_3981" d="M2404.621 353.454c-.471 18.62 5.872 21.769 10.311 24.3s23.554-1.648 26.36-6.253c7.178-11.782 1.136-22.768 2.741-22.6s3.074 4.753 7.261 10.705c.39.554 3.11 4.233 3.252 3.01 1.944-16.674 10.625-21.852 8.559-38.716-1.524-12.433-9.416-11.446-9.416-11.446s-5.091-10.4-20.939-9.222c-10.619.791-20.085 4.928-31.03 7.745s12.949 27.627 27.147 18.563 7.187 10.9 9.428 12.45 1.078.205 2.1 10.422-11.948 16.887-15.667 17.762c-11.889 2.8-13.878.835-16.481-3.642-2.254-3.891-3.626-13.078-3.626-13.078z" class="cls-4" data-name="Path 3981" transform="translate(-448.868 -73.427)"/>
        <path id="Path_3982" d="M2512.18 392.141c-1.364 4.693-4.7 7.724-7.445 6.771s-2.83-4.766-2.507-10.223c.292-4.919 4.7-7.724 7.445-6.771s3.871 5.53 2.507 10.223z" class="cls-5" data-name="Path 3982" transform="translate(-507.21 -117.879)"/>
        <g id="Group_1338" data-name="Group 1338" transform="translate(1641.639 213.981)">
            <g id="Group_1335" data-name="Group 1335">
                <path id="Rectangle_874" d="M4.6 0h96.3a4.6 4.6 0 0 1 4.6 4.6v38.477a4.6 4.6 0 0 1-4.6 4.6H4.6a4.6 4.6 0 0 1-4.6-4.6V4.6A4.6 4.6 0 0 1 4.6 0z" class="cls-13" data-name="Rectangle 874"/>
                <path id="Rectangle_875" d="M3.719 0h92.3a3.719 3.719 0 0 1 3.719 3.719V29.2a3.719 3.719 0 0 1-3.719 3.719H3.72A3.72 3.72 0 0 1 0 29.2V3.719A3.719 3.719 0 0 1 3.719 0z" class="cls-14" data-name="Rectangle 875" transform="translate(2.885 12.527)"/>
                <g id="Group_1334" data-name="Group 1334" transform="translate(4.35 3.509)">
                    <rect id="Rectangle_876" width="4.134" height="3.72" class="cls-14" data-name="Rectangle 876" rx="1.86"/>
                    <path id="Rectangle_877" d="M1.86 0h.414a1.859 1.859 0 0 1 1.859 1.859 1.86 1.86 0 0 1-1.86 1.86H1.86A1.86 1.86 0 0 1 0 1.86 1.86 1.86 0 0 1 1.86 0z" class="cls-14" data-name="Rectangle 877" transform="translate(7.515)"/>
                    <path id="Rectangle_878" d="M1.86 0h.414a1.859 1.859 0 0 1 1.859 1.859 1.86 1.86 0 0 1-1.86 1.86H1.86A1.86 1.86 0 0 1 0 1.86 1.86 1.86 0 0 1 1.86 0z" class="cls-14" data-name="Rectangle 878" transform="translate(15.031)"/>
                </g>
                <path id="Path_3983" d="M1845.145 308.269h-52.757a1.578 1.578 0 1 1 0-3.156h52.757a1.578 1.578 0 1 1 0 3.156z" class="cls-13" data-name="Path 3983" transform="translate(-1746.58 -288.528)"/>
                <path id="Path_3984" d="M1753.81 364.316h-52.757a1.578 1.578 0 0 1 0-3.156h52.757a1.578 1.578 0 1 1 0 3.156z" class="cls-13" data-name="Path 3984" transform="translate(-1694.925 -320.225)"/>
                <rect id="Rectangle_879" width="6.538" height="3.156" class="cls-13" data-name="Rectangle 879" rx="1.242" transform="translate(62.605 40.935)"/>
                <rect id="Rectangle_880" width="6.538" height="3.156" class="cls-13" data-name="Rectangle 880" rx="1.242" transform="translate(70.834 40.935)"/>
                <path id="Path_3985" d="M1801.922 325.418h-87.365a1.071 1.071 0 1 1 0-2.142h87.365a1.071 1.071 0 1 1 0 2.142z" class="cls-13" data-name="Path 3985" transform="translate(-1702.849 -298.8)"/>
                <path id="Path_3986" d="M1801.922 336.057h-87.365a1.071 1.071 0 1 1 0-2.142h87.365a1.071 1.071 0 1 1 0 2.142z" class="cls-13" data-name="Path 3986" transform="translate(-1702.849 -304.817)"/>
            </g>
            <g id="Group_1337" data-name="Group 1337" transform="translate(23.841 33.479)">
                <path id="Rectangle_881" d="M4.605 0h96.3a4.6 4.6 0 0 1 4.6 4.6v38.477a4.605 4.605 0 0 1-4.605 4.605H4.605A4.605 4.605 0 0 1 0 43.077V4.605A4.605 4.605 0 0 1 4.605 0z" class="cls-15" data-name="Rectangle 881"/>
                <path id="Rectangle_882" d="M3.719 0h92.3a3.72 3.72 0 0 1 3.72 3.72V29.2a3.719 3.719 0 0 1-3.719 3.719H3.72A3.72 3.72 0 0 1 0 29.2V3.719A3.719 3.719 0 0 1 3.719 0z" class="cls-14" data-name="Rectangle 882" transform="translate(2.885 12.527)"/>
                <g id="Group_1336" data-name="Group 1336" transform="translate(4.35 3.509)">
                    <path id="Rectangle_883" d="M1.86 0h.414a1.859 1.859 0 0 1 1.859 1.859 1.86 1.86 0 0 1-1.86 1.86H1.86A1.86 1.86 0 0 1 0 1.86 1.86 1.86 0 0 1 1.86 0z" class="cls-14" data-name="Rectangle 883"/>
                    <rect id="Rectangle_884" width="4.134" height="3.72" class="cls-14" data-name="Rectangle 884" rx="1.86" transform="translate(7.515)"/>
                    <path id="Rectangle_885" d="M1.86 0h.414a1.861 1.861 0 0 1 1.86 1.861 1.86 1.86 0 0 1-1.86 1.86h-.413A1.861 1.861 0 0 1 0 1.86 1.86 1.86 0 0 1 1.86 0z" class="cls-14" data-name="Rectangle 885" transform="translate(15.03)"/>
                </g>
                <path id="Path_3987" d="M1900.022 385.33h-52.758a1.578 1.578 0 1 1 0-3.157h52.758a1.578 1.578 0 0 1 0 3.157z" class="cls-15" data-name="Path 3987" transform="translate(-1801.456 -365.588)"/>
                <path id="Path_3988" d="M1808.687 441.376h-52.757a1.578 1.578 0 0 1 0-3.156h52.757a1.578 1.578 0 1 1 0 3.156z" class="cls-15" data-name="Path 3988" transform="translate(-1749.802 -397.285)"/>
                <rect id="Rectangle_886" width="6.538" height="3.156" class="cls-15" data-name="Rectangle 886" rx="1.242" transform="translate(62.605 40.935)"/>
                <rect id="Rectangle_887" width="6.538" height="3.156" class="cls-15" data-name="Rectangle 887" rx="1.242" transform="translate(70.835 40.935)"/>
                <path id="Path_3989" d="M1856.8 402.479h-87.365a1.071 1.071 0 1 1 0-2.142h87.365a1.071 1.071 0 1 1 0 2.142z" class="cls-15" data-name="Path 3989" transform="translate(-1757.726 -375.86)"/>
                <path id="Path_3990" d="M1856.8 413.117h-87.365a1.071 1.071 0 1 1 0-2.141h87.365a1.071 1.071 0 1 1 0 2.141z" class="cls-15" data-name="Path 3990" transform="translate(-1757.726 -381.877)"/>
            </g>
        </g>
        <g id="Group_1340" data-name="Group 1340" transform="translate(1781.134 269.779)">
            <path id="Path_3991" fill="#9cd499" d="M2037.479 409.067a13.7 13.7 0 1 1-13.7-13.7 13.7 13.7 0 0 1 13.7 13.7z" data-name="Path 3991" transform="translate(-2010.088 -395.371)"/>
            <g id="Group_1339" data-name="Group 1339" transform="translate(7.574 8.893)">
                <path id="Path_3992" d="M2032.284 425.7h-.038a1.04 1.04 0 0 1-.744-.353l-3.72-4.228a1.043 1.043 0 0 1 1.566-1.377l2.993 3.4 7.162-7.009a1.043 1.043 0 0 1 1.458 1.491l-7.947 7.778a1.041 1.041 0 0 1-.73.298z" class="cls-14" data-name="Path 3992" transform="translate(-2027.521 -415.84)"/>
            </g>
        </g>
        <g id="Group_1342" data-name="Group 1342" transform="translate(1805.137 180.626)">
            <path id="Rectangle_888" d="M9.342 0h76.515A9.342 9.342 0 0 1 95.2 9.342v20.546a9.342 9.342 0 0 1-9.342 9.342H9.341A9.341 9.341 0 0 1 0 29.889V9.342A9.342 9.342 0 0 1 9.342 0z" class="cls-15" data-name="Rectangle 888"/>
            <path id="Path_3993" d="M2091.8 262.543v21.644l24.941-24.941s-24.43 3.297-24.941 3.297z" class="cls-15" data-name="Path 3993" transform="translate(-2080.304 -229.232)"/>
            <path id="Rectangle_889" d="M7.919 0h69.513a7.919 7.919 0 0 1 7.919 7.919v15.613a7.919 7.919 0 0 1-7.919 7.919H7.921A7.921 7.921 0 0 1 0 23.53V7.919A7.919 7.919 0 0 1 7.919 0z" class="cls-14" data-name="Rectangle 889" transform="translate(4.924 3.889)"/>
            <path id="Path_3994" d="M2131.268 212.613h-38.553a1.691 1.691 0 0 1 0-3.382h38.553a1.691 1.691 0 1 1 0 3.382z" class="cls-15" data-name="Path 3994" transform="translate(-2079.864 -200.946)"/>
            <rect id="Rectangle_890" width="73.386" height="1.9" class="cls-15" data-name="Rectangle 890" rx=".95" transform="translate(11.16 16.233)"/>
            <rect id="Rectangle_891" width="73.386" height="1.9" class="cls-15" data-name="Rectangle 891" rx=".95" transform="translate(11.16 19.913)"/>
            <g id="Group_1341" data-name="Group 1341" transform="translate(65.589 30.267)">
                <path id="Rectangle_892" d="M1.86 0h.414a1.859 1.859 0 0 1 1.86 1.859 1.859 1.859 0 0 1-1.86 1.861H1.86A1.86 1.86 0 0 1 0 1.86 1.86 1.86 0 0 1 1.86 0z" class="cls-15" data-name="Rectangle 892"/>
                <rect id="Rectangle_893" width="4.133" height="3.72" class="cls-15" data-name="Rectangle 893" rx="1.86" transform="translate(7.515)"/>
                <rect id="Rectangle_894" width="4.134" height="3.72" class="cls-15" data-name="Rectangle 894" rx="1.86" transform="translate(15.03)"/>
            </g>
        </g>
    </g>
</svg>
