<svg xmlns="http://www.w3.org/2000/svg" width="104.997" height="88.999" viewBox="0 0 104.997 88.999">
    <g id="Group_2040" data-name="Group 2040" transform="translate(-1200 -1035.001)">
        <path id="Subtraction_12" fill="#d2fff4" d="M70 0H0a69.534 69.534 0 0 0 5.5 27.25 69.745 69.745 0 0 0 15 22.25 69.578 69.578 0 0 0 22.256 15A69.457 69.457 0 0 0 70 70V0z" data-name="Subtraction 12" transform="rotate(180 652.499 552.501)"/>
        <g id="Group_1041" data-name="Group 1041" transform="translate(-202 -381)">
            <g id="photo" transform="translate(1407 1430)">
                <g id="Group_1040" data-name="Group 1040">
                    <path id="Path_3085" fill="#0872d7" d="M59.063 0H10.938A10.95 10.95 0 0 0 0 10.938v48.3A10.779 10.779 0 0 0 10.767 70h48.466A10.779 10.779 0 0 0 70 59.233v-48.3A10.95 10.95 0 0 0 59.063 0zm5.469 59.063a5.475 5.475 0 0 1-5.469 5.469H10.938a5.475 5.475 0 0 1-5.469-5.469v-.217l17.65-26.192 14.492 21.505a2.735 2.735 0 0 0 4.535 0l9.613-14.266 12.772 18.953zm0-10l-10.5-15.588a2.735 2.735 0 0 0-4.535 0l-9.618 14.263-14.492-21.505a2.735 2.735 0 0 0-4.535 0L5.469 49.06V10.938a5.475 5.475 0 0 1 5.469-5.469h48.125a5.475 5.475 0 0 1 5.469 5.469z" data-name="Path 3085"/>
                </g>
            </g>
        </g>
    </g>
</svg>
