<svg xmlns="http://www.w3.org/2000/svg" width="100" height="89" viewBox="0 0 100 89">
    <g id="Group_2039" data-name="Group 2039" transform="translate(-805 -1035)">
        <rect id="Rectangle_833" width="70" height="70" fill="#dfffe0" data-name="Rectangle 833" rx="20" transform="translate(835 1035)"/>
        <g id="ic-actions-closed-view" transform="translate(805 1044)">
            <path id="Rectangle_35" fill="none" d="M0 0H80V80H0z" data-name="Rectangle 35"/>
            <g id="Layer" transform="translate(4.83 25.076)">
                <g id="Vrstva_109" data-name="Vrstva 109">
                    <path id="Path_83" fill="#0872d7" d="M71.081 20.13l-2.8-4.833a13.066 13.066 0 0 0 .867-1.133l.433-.6V13.4l-1.133-.733-1.467-1.137 1.567 1.033 1.133.733a3.347 3.347 0 0 0-5.6-3.667l-.333.433c-.3.433-.733 1-1.333 1.733a43.333 43.333 0 0 1-5.433 5.433 31.767 31.767 0 0 1-20 7.567 31.767 31.767 0 0 1-20-7.567 43.333 43.333 0 0 1-5.467-5.3 12.915 12.915 0 0 1-1.2-1.733l-.333-.433a3.347 3.347 0 1 0-5.6 3.667l2.6-1.7-2.6 1.7v.171l.433.6.333.467-3.333 5.5A3.333 3.333 0 1 0 7.581 23.5l2.1-3.633c.867.833 1.8 1.7 2.867 2.567a44.333 44.333 0 0 0 5.033 3.533l-2.267 4.163a3.333 3.333 0 1 0 5.767 3.333l2.567-4.563a35.5 35.5 0 0 0 10 2.4v3.33a3.333 3.333 0 0 0 6.667 0V31.3a36.333 36.333 0 0 0 9.233-2.133l2.467 4.3a3.333 3.333 0 1 0 5.767-3.333l-2.2-3.833a43.567 43.567 0 0 0 5.7-3.9c.833-.667 1.567-1.367 2.3-2l1.767 3.067a3.333 3.333 0 1 0 5.767-3.333z" data-name="Path 83" transform="translate(-1.294 -8.116)"/>
                </g>
            </g>
        </g>
    </g>
</svg>
