<svg xmlns="http://www.w3.org/2000/svg" width="100" height="90" viewBox="0 0 100 90">
    <g id="Group_2038" data-name="Group 2038" transform="translate(-405 -1034)">
        <rect id="Rectangle_1118" width="70" height="70" fill="#edf1ff" data-name="Rectangle 1118" rx="35" transform="translate(435 1034)"/>
        <g id="ic-contact-chat" transform="translate(405 1044)">
            <path id="Rectangle_84" fill="none" d="M0 0H80V80H0z" data-name="Rectangle 84"/>
            <g id="Layer" transform="translate(3.333 8.02)">
                <g id="Vrstva_148" data-name="Vrstva 148">
                    <path id="Path_155" fill="#0872d7" d="M64.333 19.057h-10V12.39a10 10 0 0 0-10-10H11a10 10 0 0 0-10 10v20a10 10 0 0 0 10 10h5.167L21 47.757v1.2a10 10 0 0 0 10 10h11.833l5.033 5.7a5 5 0 0 0 7.5 0l5.033-5.7h3.933a10 10 0 0 0 10-10v-20a10 10 0 0 0-9.999-9.9zM11 35.723a3.333 3.333 0 0 1-3.333-3.333v-20A3.333 3.333 0 0 1 11 9.057h33.333a3.333 3.333 0 0 1 3.333 3.333v20a3.333 3.333 0 0 1-3.333 3.333H30.767l-5.8 6.667-5.8-6.667zm56.667 13.334a3.333 3.333 0 0 1-3.333 3.333h-6.9l-5.8 6.933-5.8-6.933H31a3.333 3.333 0 0 1-3.333-3.333 5.267 5.267 0 0 0 1.033-.9l5.033-5.7h10.6a10 10 0 0 0 10-10V25.79h10a3.333 3.333 0 0 1 3.333 3.333z" data-name="Path 155" transform="translate(-1 -2.39)"/>
                </g>
            </g>
        </g>
    </g>
</svg>
