<svg xmlns="http://www.w3.org/2000/svg" id="ic-actions-emultiple-edit" width="38" height="38" viewBox="0 0 38 38">
    <defs>
        <style>
            .cls-2{fill:#4aa0f2;fill-rule:evenodd}
        </style>
    </defs>
    <path id="Rectangle_39" fill="none" d="M0 0H38V38H0z" data-name="Rectangle 39"/>
    <g id="Layer" transform="translate(2.916 1.583)">
        <g id="ic-actions1-02">
            <path id="Path_88" d="M30.34 16.992a1.583 1.583 0 0 0-1.583 1.583v7.758a1.583 1.583 0 0 1-1.583 1.583H11.34a1.583 1.583 0 0 1-1.583-1.583V5.75a1.583 1.583 0 0 1 1.583-1.583h7.917a1.583 1.583 0 1 0 0-3.167H11.34a4.75 4.75 0 0 0-4.5 3.167h-.25a4.75 4.75 0 0 0-4.75 4.75v22.166a4.75 4.75 0 0 0 4.75 4.75h15.833a4.75 4.75 0 0 0 4.75-4.75 4.75 4.75 0 0 0 4.75-4.75v-7.758a1.583 1.583 0 0 0-1.583-1.583zm-7.917 15.675H6.59a1.583 1.583 0 0 1-1.583-1.583V8.917A1.583 1.583 0 0 1 6.59 7.333v19a4.75 4.75 0 0 0 4.75 4.75h12.667a1.583 1.583 0 0 1-1.584 1.584z" class="cls-2" data-name="Path 88" transform="translate(-1.84 -1)"/>
            <path id="Path_89" d="M27.841 4.165l-2.233-2.233a3.167 3.167 0 0 0-4.481 0L10.82 12.224l.222 6.492 6.507.222L27.841 8.646a3.167 3.167 0 0 0 0-4.481zm-2.8 2.8l-8.756 8.772-2.169-.079-.079-2.169 8.772-8.772a.9.9 0 0 1 .253-.174h.7a.839.839 0 0 1 .158.095l1.108 1.124a.792.792 0 0 1 .016 1.2z" class="cls-2" data-name="Path 89" transform="translate(3.398 -.998)"/>
        </g>
    </g>
</svg>
