<svg xmlns="http://www.w3.org/2000/svg" id="ic-ecommerce-delivery" width="38" height="38" viewBox="0 0 38 38">
    <path id="Rectangle_111" fill="none" d="M0 0H38V38H0z" data-name="Rectangle 111"/>
    <g id="Layer" transform="translate(1.583 4.758)">
        <g id="Vrstva_176" data-name="Vrstva 176">
            <path id="Path_198" fill="#4aa0f2" d="M30.862 10.093a1.916 1.916 0 0 0-1.583-.76h-2.946V7.75A4.75 4.75 0 0 0 21.583 3H5.75A4.75 4.75 0 0 0 1 7.75v15.833a4.75 4.75 0 0 0 4.75 4.75h.285a4.75 4.75 0 0 0 8.93 0h5.32a4.75 4.75 0 0 0 8.946 0 1.583 1.583 0 0 0 .269 0h4.433a1.9 1.9 0 0 0 1.9-1.9v-9.072a1.837 1.837 0 0 0-.38-1.14zM10.5 28.333a1.583 1.583 0 1 1 1.583-1.583 1.583 1.583 0 0 1-1.583 1.583zm14.25 0a1.583 1.583 0 1 1 1.583-1.583 1.583 1.583 0 0 1-1.583 1.583zm7.917-3.167H29.5a1.583 1.583 0 0 0-.269 0 4.75 4.75 0 0 0-8.946 0h-5.32a4.75 4.75 0 0 0-8.93 0H5.75a1.583 1.583 0 0 1-1.583-1.583V7.75A1.583 1.583 0 0 1 5.75 6.167h15.833a1.583 1.583 0 0 1 1.584 1.583v11.083a1.583 1.583 0 0 0 3.167 0V12.5h2.375l3.958 5.273z" data-name="Path 198" transform="translate(-1 -3)"/>
        </g>
    </g>
</svg>
