<svg xmlns="http://www.w3.org/2000/svg" width="584.567" height="506.62" viewBox="0 0 584.567 506.62">
    <defs>
        <radialGradient id="radial-gradient" cx=".5" cy=".5" r=".5" gradientUnits="objectBoundingBox">
            <stop offset="0" stop-color="#f7504c"/>
            <stop offset="1" stop-color="#ffd669"/>
        </radialGradient>
        <filter id="Rectangle_708" width="200.307" height="65.339" x="374.067" y="248.897" filterUnits="userSpaceOnUse">
            <feOffset dy="7"/>
            <feGaussianBlur result="blur" stdDeviation="2.5"/>
            <feFlood flood-color="#163159" flood-opacity=".2"/>
            <feComposite in2="blur" operator="in"/>
            <feComposite in="SourceGraphic"/>
        </filter>
        <style>
            .cls-1{fill:#ffd669}.cls-2{fill:#231f20}.cls-4{fill:none;stroke:#fff;stroke-miterlimit:10;stroke-width:2px;opacity:.3}.cls-5{fill:#f6f7f9}.cls-6{fill:#b4cbd8}.cls-7{fill:#dbe2e8}.cls-10{fill:#fff}.cls-12{fill:#3e6dc1;fill-rule:evenodd}.cls-14{fill:#239cf5}.cls-15{fill:url(#radial-gradient)}.cls-16{fill:#ff3e6c}.cls-17{fill:#fefefe}.cls-18{fill:#1e4798}
        </style>
    </defs>
    <g id="Group_2049" data-name="Group 2049" transform="translate(-1058 -4300.38)">
        <g id="Group_810" data-name="Group 810" transform="translate(1058.366 4728.75)">
            <circle id="Ellipse_83" cx="22.5" cy="22.5" r="22.5" class="cls-1" data-name="Ellipse 83" transform="translate(-.366 .251)"/>
            <path id="Path_2682" d="M156.864 28.442a15.481 15.481 0 0 1-30.329 0z" class="cls-2" data-name="Path 2682" transform="translate(-119.269 -2.764)"/>
            <path id="Path_2683" fill="#f7504c" d="M152.422 33.585a15.479 15.479 0 0 1-23.872 0 29.874 29.874 0 0 1 23.872 0z" data-name="Path 2683" transform="translate(-118.056 -1.166)"/>
            <path id="Path_2684" d="M127.515 29.866a.935.935 0 0 1-.468-1.745l5.394-3.11-5.388-3.123a.934.934 0 1 1 .937-1.617l6.785 3.932a.934.934 0 0 1 0 1.618l-6.793 3.919a.93.93 0 0 1-.467.126z" class="cls-2" data-name="Path 2684" transform="translate(-119.243 -7.76)"/>
            <path id="Path_2685" d="M147.65 29.866a.93.93 0 0 1-.466-.125l-6.795-3.919a.936.936 0 0 1 0-1.618l6.787-3.932a.934.934 0 0 1 .937 1.617l-5.388 3.123 5.394 3.11a.935.935 0 0 1-.468 1.745z" class="cls-2" data-name="Path 2685" transform="translate(-111.208 -7.76)"/>
        </g>
        <g id="Group_822" data-name="Group 822" transform="translate(1132.979 4301.381)">
            <circle id="Ellipse_87" cx="230.309" cy="230.309" r="230.309" class="cls-4" data-name="Ellipse 87"/>
            <circle id="Ellipse_88" cx="165.73" cy="165.73" r="165.73" class="cls-4" data-name="Ellipse 88" transform="translate(64.578 64.578)"/>
            <g id="Group_819" data-name="Group 819" transform="translate(12.357 84.846)">
                <g id="Group_813" data-name="Group 813" transform="translate(0 43.491)">
                    <path id="Rectangle_691" d="M7.833 0H382.02a7.833 7.833 0 0 1 7.833 7.833V238.09a.16.16 0 0 1-.16.16H.16a.16.16 0 0 1-.16-.16V7.833A7.833 7.833 0 0 1 7.833 0z" class="cls-5" data-name="Rectangle 691" transform="translate(23.025)"/>
                    <path id="Rectangle_692" d="M0 0h353.912v199.092a.16.16 0 0 1-.16.16H.16a.16.16 0 0 1-.16-.16V0z" class="cls-6" data-name="Rectangle 692" transform="translate(40.995 23.592)"/>
                    <path id="Path_2689" d="M55.079 280.434h-435.9l23.025-83.392H32.055z" class="cls-7" data-name="Path 2689" transform="translate(380.824 40.798)"/>
                    <path id="Path_2690" d="M11.052 248h-366.544l9.931-42.749H1.121z" class="cls-6" data-name="Path 2690" transform="translate(390.172 43.827)"/>
                    <path id="Path_2691" d="M-128.271 258.091H-272.44a4.943 4.943 0 0 1-4.79-5.677l1.162-8.718a4.891 4.891 0 0 1 4.79-4.315h141.845a4.89 4.89 0 0 1 4.789 4.315l1.162 8.718a4.942 4.942 0 0 1-4.789 5.677z" class="cls-6" data-name="Path 2691" transform="translate(419.037 56.422)"/>
                    <path id="Path_2692" fill="#46435a" d="M33.663 219.229H-368.5l6.156-22.187h389.85z" data-name="Path 2692" transform="translate(385.372 40.798)" style="mix-blend-mode:overlay;isolation:isolate" opacity="0.3"/>
                    <path id="Rectangle_693" d="M0 0h435.9v4.047a9.257 9.257 0 0 1-9.257 9.257H9.257A9.257 9.257 0 0 1 0 4.047V0z" class="cls-5" data-name="Rectangle 693" transform="translate(0 321.231)"/>
                    <path id="Rectangle_694" d="M0 0h69.292v3.223a2.912 2.912 0 0 1-2.912 2.913H2.912A2.912 2.912 0 0 1 0 3.223V0z" class="cls-6" data-name="Rectangle 694" transform="translate(183.306 321.231)"/>
                </g>
                <g id="Group_818" data-name="Group 818" transform="translate(62.124)">
                    <path id="Path_2693" fill="#46435a" d="M-36.57 246.158h-285.551l-13.325-222.843h312.2z" data-name="Path 2693" transform="translate(335.446 20.177)" style="mix-blend-mode:overlay;isolation:isolate"/>
                    <path id="Rectangle_695" d="M4.646 0h276.363a4.646 4.646 0 0 1 4.646 4.646v261.529a.16.16 0 0 1-.16.16H.16a.16.16 0 0 1-.16-.16V4.646A4.646 4.646 0 0 1 4.646 0z" class="cls-7" data-name="Rectangle 695" transform="translate(13)"/>
                    <path id="Rectangle_696" d="M4.646 0h276.363a4.646 4.646 0 0 1 4.646 4.646v30.728H0V4.646A4.646 4.646 0 0 1 4.646 0z" class="cls-10" data-name="Rectangle 696" transform="translate(13)"/>
                    <path id="Path_2694" fill="#3e6dc1" d="M-40.295 35.073H-325.95V17.386h285.655z" data-name="Path 2694" transform="translate(338.95 17.989)"/>
                    <g id="Group_814" data-name="Group 814" transform="translate(120.166 9.593)">
                        <path id="Path_2695" d="M-225.183-.8l2.771-.463v4.278c.375-.078.731-.178 1.094-.225a5.915 5.915 0 0 1 2.648.17 2.01 2.01 0 0 1 1.417 1.7 9.24 9.24 0 0 1 .118 1.4c.008.925.007 1.854-.037 2.778a2.88 2.88 0 0 1-1.04 2.289 3.607 3.607 0 0 1-1.676.672 12.69 12.69 0 0 1-3.636.011c-.5-.06-.993-.141-1.491-.2-.137-.016-.186-.073-.179-.2V-.528c-.001-.085.007-.172.011-.272zm2.775 10.4a5.047 5.047 0 0 0 1.58-.012.943.943 0 0 0 .861-.983c.037-.858.048-1.72.026-2.578a.855.855 0 0 0-.846-.941 2.484 2.484 0 0 0-1.526.311.241.241 0 0 0-.09.188c-.007.774 0 1.548 0 2.323z" class="cls-12" data-name="Path 2695" transform="translate(255.967 1.512)"/>
                        <path id="Path_2696" d="M-197.645 11.806h-.511c-.761 0-1.522-.007-2.284 0a.341.341 0 0 1-.344-.194c-.746-1.257-1.5-2.508-2.253-3.762l-.092-.145v4.087c-.089 0-.159.011-.229.011-.78 0-1.562-.007-2.342 0-.185 0-.238-.049-.237-.231.008-.88 0-1.761 0-2.641v-9.47c0-.274 0-.268.279-.315.761-.125 1.522-.255 2.284-.382.064-.01.131-.011.22-.019v7.942l.045.014c.07-.105.141-.211.208-.318q1.055-1.667 2.107-3.339a.369.369 0 0 1 .36-.207c.821.012 1.643.005 2.464.005h.319c-.048.09-.075.153-.112.209q-1.251 1.98-2.507 3.955a.323.323 0 0 0-.012.4c.856 1.407 1.7 2.822 2.544 4.234.03.042.049.084.093.166z" class="cls-12" data-name="Path 2696" transform="translate(263.074 1.516)"/>
                        <path id="Path_2697" d="M-223.971 8.254c0 .07.011.127.011.185v1.887c0 .133-.029.189-.175.222a14.492 14.492 0 0 1-3.8.3 4.535 4.535 0 0 1-1.743-.413 3.04 3.04 0 0 1-1.766-2.36 7.571 7.571 0 0 1-.085-1.183c-.012-.689-.025-1.377 0-2.065a3.242 3.242 0 0 1 .763-2.08 3.015 3.015 0 0 1 1.687-.938 6.2 6.2 0 0 1 3.324.125 2.686 2.686 0 0 1 1.937 2.359c.11.913.089 1.84.127 2.79H-228.53c-.178 0-.24.052-.222.222.015.14.006.281.031.416a.836.836 0 0 0 .832.765 12.69 12.69 0 0 0 1.722.021c.69-.047 1.376-.162 2.063-.246.044-.011.082-.007.133-.007zm-3.651-3.06h.556c.6 0 .6 0 .539-.6a.8.8 0 0 0-.672-.776 2.632 2.632 0 0 0-.842-.01.732.732 0 0 0-.649.612 5.976 5.976 0 0 0-.056.608c-.012.13.044.172.173.17.316-.008.633-.004.951-.004z" class="cls-12" data-name="Path 2697" transform="translate(253.624 2.585)"/>
                        <path id="Path_2698" d="M-204.268 6.238c-.037.623-.033 1.229-.116 1.822a2.923 2.923 0 0 1-2.393 2.6 6.188 6.188 0 0 1-3.386-.088 2.9 2.9 0 0 1-2.1-2.467 8.965 8.965 0 0 1-.082-1.383c-.005-.675-.019-1.353.04-2.023a3.016 3.016 0 0 1 2.6-2.908 6.2 6.2 0 0 1 3.251.133 2.868 2.868 0 0 1 2.06 2.434c.094.627.087 1.267.126 1.88zm-2.833.021c0-.438.007-.873 0-1.31a.934.934 0 0 0-.675-.886 1.832 1.832 0 0 0-1-.026.921.921 0 0 0-.764.873c-.014.893-.014 1.788 0 2.681a.876.876 0 0 0 .691.862 2.56 2.56 0 0 0 .764.066.989.989 0 0 0 .985-1.069V6.259z" class="cls-12" data-name="Path 2698" transform="translate(260.707 2.585)"/>
                        <path id="Path_2699" d="M-210.674 6.335c-.047.576-.049 1.249-.163 1.9a2.906 2.906 0 0 1-2.416 2.445 6.3 6.3 0 0 1-3.2-.064 2.94 2.94 0 0 1-2.229-2.467 5.768 5.768 0 0 1-.082-.946c-.011-.741-.026-1.483.005-2.223a3.259 3.259 0 0 1 1.06-2.456 3.468 3.468 0 0 1 1.757-.769 6.238 6.238 0 0 1 3.168.207 2.868 2.868 0 0 1 1.974 2.444c.085.605.082 1.224.126 1.929zm-5.289-.09h-.014v1.192a1.294 1.294 0 0 0 .014.178.878.878 0 0 0 .66.827 2.548 2.548 0 0 0 .82.071.976.976 0 0 0 .962-.991q.01-1.271 0-2.542a.938.938 0 0 0-.706-.923 1.817 1.817 0 0 0-1.036 0 .9.9 0 0 0-.7.861c-.013.44.001.882.001 1.327z" class="cls-12" data-name="Path 2699" transform="translate(258.337 2.587)"/>
                        <path id="Path_2700" d="M-238.152 10.226c-.527.167-1.028.357-1.544.481a3.672 3.672 0 0 1-1.863 0 2.283 2.283 0 0 1-1.707-1.914 3.549 3.549 0 0 1 .012-1.436 1.946 1.946 0 0 1 1.615-1.6 7.341 7.341 0 0 1 1.239-.127c.554-.021 1.112-.012 1.667 0 .171 0 .223-.053.207-.215a3.516 3.516 0 0 1-.012-.415c.014-.715-.338-.868-.9-.893-.9-.038-1.8-.031-2.7-.044h-.267c.018-.218.03-.419.049-.619.052-.526.1-1.051.166-1.576a.2.2 0 0 1 .148-.126c1.158.007 2.316.007 3.475.047a4.671 4.671 0 0 1 1.1.209 2.2 2.2 0 0 1 1.637 1.981 9.22 9.22 0 0 1 .082 1.244c.01 1.754 0 3.509.008 5.264 0 .186-.044.251-.241.246q-.932-.018-1.867 0c-.185 0-.245-.073-.263-.234-.005-.099-.029-.199-.041-.273zm-1.2-2.713c-.205 0-.411-.005-.616 0-.4.014-.574.2-.565.6a.625.625 0 0 0 .679.7 2.286 2.286 0 0 0 1.224-.313.259.259 0 0 0 .1-.189c.012-.211 0-.423.007-.635.005-.133-.052-.172-.177-.167-.22.009-.439.003-.657.003z" class="cls-12" data-name="Path 2700" transform="translate(249.273 2.623)"/>
                        <path id="Path_2701" d="M-241.453-1.446V.1c0 .211-.007.423 0 .635 0 .129-.04.175-.17.172-.364-.007-.728-.005-1.093 0a1.7 1.7 0 0 0-.372.048.471.471 0 0 0-.393.463c-.014.489 0 .976 0 1.488h2.044c-.036.372-.067.719-.1 1.065s-.081.7-.11 1.045c-.012.159-.056.23-.237.226-.534-.012-1.071 0-1.624 0v6.618h-2.774c-.007-.089-.021-.185-.021-.279v-6.1c0-.186-.037-.255-.238-.245-.367.019-.738.005-1.132.005V5 3.212c0-.333-.04-.3.293-.3.3 0 .6-.01.894 0 .145.005.181-.051.181-.183 0-.549-.007-1.1.026-1.647a2.6 2.6 0 0 1 .752-1.824 2.227 2.227 0 0 1 1.388-.617c.883-.062 1.769-.061 2.686-.087z" class="cls-12" data-name="Path 2701" transform="translate(247.672 1.446)"/>
                        <path id="Path_2702" d="M-230.239 4.275c-.444-.07-.853-.14-1.264-.2a6.067 6.067 0 0 0-2.11-.022.813.813 0 0 0-.713.83c-.018.917-.018 1.837 0 2.755a.753.753 0 0 0 .672.793 7.9 7.9 0 0 0 1.536.06c.578-.037 1.15-.157 1.725-.242h.134a1.192 1.192 0 0 1 .019.151v1.926c0 .125-.027.182-.164.214a10.992 10.992 0 0 1-3.127.3 4.034 4.034 0 0 1-2.538-.925 2.965 2.965 0 0 1-1.013-2.048 23.86 23.86 0 0 1-.037-2.952 3.132 3.132 0 0 1 1.51-2.666 4.287 4.287 0 0 1 1.8-.563 10.383 10.383 0 0 1 3.4.285c.063.014.159.093.16.144.012.712.01 1.418.01 2.16z" class="cls-12" data-name="Path 2702" transform="translate(251.556 2.588)"/>
                    </g>
                    <g id="Group_816" data-name="Group 816" transform="translate(114.9 148.3)">
                        <path id="Rectangle_697" d="M0 0H158.822V36.179H0z" class="cls-10" data-name="Rectangle 697"/>
                        <path id="Rectangle_698" d="M0 0H158.822V81.855H0z" class="cls-5" data-name="Rectangle 698" transform="translate(0 36.179)"/>
                        <path id="Rectangle_699" d="M0 0H150.869V77.503H0z" class="cls-10" data-name="Rectangle 699" transform="translate(3.976 40.532)"/>
                        <path id="Path_2703" d="M-158.593 120.269h-61.152a2.62 2.62 0 0 1-2.619-2.619 2.619 2.619 0 0 1 2.619-2.619h61.152a2.618 2.618 0 0 1 2.619 2.619 2.619 2.619 0 0 1-2.619 2.619z" class="cls-7" data-name="Path 2703" transform="translate(262.277 -94.276)"/>
                        <path id="Path_2704" d="M-187.4 112.55h-32.342a2.62 2.62 0 0 1-2.619-2.619 2.619 2.619 0 0 1 2.619-2.619h32.342a2.619 2.619 0 0 1 2.619 2.619 2.62 2.62 0 0 1-2.619 2.619z" class="cls-7" data-name="Path 2704" transform="translate(262.277 -97.125)"/>
                        <g id="Group_815" data-name="Group 815" transform="translate(4.516 3.792)">
                            <path id="Rectangle_700" d="M0 0H28.595V28.595H0z" class="cls-7" data-name="Rectangle 700"/>
                            <path id="Path_2705" d="M-233.922 105.61a5.244 5.244 0 0 0-2.582.6c-2.767 1.487-2.629 2.767-2.629 4.011s-.1 3.7-.1 3.7c-.693-.318-.345.415-.345 1.591a1.733 1.733 0 0 0 .657 1.557c.1 2.42 1.291 3.09 1.291 3.09l-.23 2.467c-1.038.023-.461.876-.808 1.061s-.392 1.129-.392 1.129c-10.1 3.8-9.132 5.327-9.132 5.327h28.544s.969-1.522-9.132-5.327c0 0-.045-.946-.392-1.129s.23-1.038-.808-1.061l-.23-2.467s1.187-.669 1.291-3.09a1.733 1.733 0 0 0 .657-1.557c0-1.176.348-1.908-.345-1.591 0 0-.1-2.456-.1-3.7s.138-2.525-2.629-4.011a5.244 5.244 0 0 0-2.586-.6z" class="cls-5" data-name="Path 2705" transform="translate(248.22 -101.545)"/>
                        </g>
                    </g>
                    <path id="Rectangle_701" d="M0 0H236.277V63.546H0z" class="cls-10" data-name="Rectangle 701" transform="translate(37.689 60.58)"/>
                    <path id="Rectangle_702" fill="#e6ebef" d="M0 0H236.277V18.197H0z" data-name="Rectangle 702" transform="translate(37.689 124.126)"/>
                    <g id="Group_817" data-name="Group 817" transform="translate(49.665 88.118)">
                        <path id="Rectangle_703" d="M0 0H45.549V45.549H0z" class="cls-7" data-name="Rectangle 703"/>
                        <path id="Path_2706" d="M-276.394 60.641a8.351 8.351 0 0 0-4.113.947c-4.407 2.37-4.187 4.408-4.187 6.392s-.166 5.9-.166 5.9c-1.1-.505-.552.661-.552 2.534a2.761 2.761 0 0 0 1.047 2.479c.166 3.857 2.058 4.922 2.058 4.922l-.368 3.931c-1.652.037-.734 1.4-1.286 1.689s-.624 1.8-.624 1.8c-16.088 6.059-14.545 8.484-14.545 8.484h45.469s1.543-2.425-14.545-8.484c0 0-.074-1.506-.624-1.8s.367-1.652-1.286-1.689l-.368-3.931s1.892-1.065 2.058-4.922a2.762 2.762 0 0 0 1.046-2.479c0-1.873.553-3.039-.55-2.534 0 0-.166-3.913-.166-5.9s.22-4.022-4.186-6.392a8.358 8.358 0 0 0-4.112-.947z" class="cls-5" data-name="Path 2706" transform="translate(299.168 -54.166)"/>
                    </g>
                    <path id="Rectangle_704" d="M0 0H70.772V70.772H0z" class="cls-10" data-name="Rectangle 704" transform="translate(37.689 148.199)"/>
                    <path id="Rectangle_705" d="M0 0H70.772V40.614H0z" class="cls-10" data-name="Rectangle 705" transform="translate(37.689 225.721)"/>
                    <path id="Rectangle_706" d="M0 0H29.124V36.507H0z" class="cls-7" data-name="Rectangle 706" transform="translate(42.024 229.828)"/>
                    <path id="Rectangle_707" d="M0 0H29.124V36.507H0z" class="cls-7" data-name="Rectangle 707" transform="translate(75.157 229.828)"/>
                </g>
            </g>
            <g id="Group_821" data-name="Group 821" transform="translate(306.589 248.397)">
                <g filter="url(#Rectangle_708)" transform="translate(-381.57 -249.4)">
                    <path id="Rectangle_708-2" d="M8.2 0h168.9a8.2 8.2 0 0 1 8.2 8.2v33.936a8.2 8.2 0 0 1-8.2 8.2H0V8.2A8.2 8.2 0 0 1 8.2 0z" class="cls-10" data-name="Rectangle 708" transform="translate(381.57 249.4)"/>
                </g>
                <path id="Path_2707" d="M-74.824 123.868h-48.1a3.3 3.3 0 0 1-3.3-3.3 3.3 3.3 0 0 1 3.3-3.3h48.1a3.3 3.3 0 0 1 3.3 3.3 3.3 3.3 0 0 1-3.3 3.3z" class="cls-7" data-name="Path 2707" transform="translate(180.552 -108.699)"/>
                <path id="Path_2708" d="M-14.056 133.58h-108.865a3.3 3.3 0 0 1-3.3-3.3 3.294 3.294 0 0 1 3.3-3.3h108.865a3.3 3.3 0 0 1 3.3 3.3 3.3 3.3 0 0 1-3.3 3.3z" class="cls-7" data-name="Path 2708" transform="translate(180.552 -105.114)"/>
                <path id="Path_2709" d="M-42.806 143.292h-80.115a3.3 3.3 0 0 1-3.3-3.3 3.294 3.294 0 0 1 3.3-3.3h80.115a3.3 3.3 0 0 1 3.3 3.3 3.3 3.3 0 0 1-3.3 3.3z" class="cls-7" data-name="Path 2709" transform="translate(180.552 -101.53)"/>
                <g id="Group_820" data-name="Group 820" transform="translate(9.85 7.18)">
                    <path id="Rectangle_709" d="M0 0H35.978V35.978H0z" class="cls-7" data-name="Rectangle 709"/>
                    <path id="Path_2710" d="M-140.721 119.991a6.61 6.61 0 0 0-3.249.749c-3.481 1.871-3.308 3.481-3.308 5.049s-.13 4.656-.13 4.656c-.872-.4-.435.522-.435 2a2.182 2.182 0 0 0 .827 1.959c.13 3.046 1.625 3.887 1.625 3.887l-.29 3.1c-1.306.029-.58 1.1-1.016 1.335s-.493 1.421-.493 1.421c-12.707 4.788-11.489 6.7-11.489 6.7h35.915s1.218-1.915-11.489-6.7c0 0-.059-1.19-.494-1.421s.29-1.306-1.014-1.335l-.29-3.1s1.494-.841 1.624-3.887a2.182 2.182 0 0 0 .827-1.959c0-1.48.437-2.4-.435-2 0 0-.13-3.09-.13-4.656s.174-3.178-3.308-5.049a6.6 6.6 0 0 0-3.248-.749z" class="cls-5" data-name="Path 2710" transform="translate(158.71 -114.877)"/>
                </g>
            </g>
        </g>
        <g id="Group_805" data-name="Group 805" transform="translate(1198.658 4368.7)">
            <ellipse id="Ellipse_80" cx="21.5" cy="22.5" class="cls-14" data-name="Ellipse 80" rx="21.5" ry="22.5" transform="translate(.342 .3)"/>
            <path id="HAND" d="M24.355 28.3a7.355 7.355 0 0 0-.51 2.765v10.622a.949.949 0 0 0 .29.774.092.092 0 0 1-.061.161H16.49a.771.771 0 0 1-.74-.8l.97-12.849a.772.772 0 0 1 .74-.8h6.811a.091.091 0 0 1 .084.127zm16 5.862a1.839 1.839 0 0 0 .5-3.46.09.09 0 0 1 .021-.171 1.817 1.817 0 0 0 1.5-1.76 1.883 1.883 0 0 0-1.892-1.849h-6.92a.107.107 0 0 1-.1-.156c.14-.286 1.211-2.942 1.316-3.242a6.79 6.79 0 0 0-.156-4.975 1.583 1.583 0 0 0-3.126.3c-.018 1.424.187 2.6-.652 3.493a32.221 32.221 0 0 0-3.313 3.644 8.776 8.776 0 0 0-1.749 5.133v9.311c0 .937.7.934.7.937h12.331a1.637 1.637 0 0 0 1.455-.679 1.859 1.859 0 0 0-.576-2.705.092.092 0 0 1 .039-.171 1.833 1.833 0 0 0 .594-3.47.091.091 0 0 1 .025-.175z" class="cls-10" transform="translate(-7.031 -10.392)"/>
        </g>
        <g id="Group_829" data-name="Group 829" transform="translate(1185.903 4645.36)">
            <circle id="Ellipse_80-2" cx="23.5" cy="23.5" r="23.5" class="cls-14" data-name="Ellipse 80" transform="translate(.096 -.36)"/>
            <path id="HAND-2" d="M24.589 28.6a7.555 7.555 0 0 0-.524 2.84v10.911a.975.975 0 0 0 .3.8.094.094 0 0 1-.063.166h-7.79a.792.792 0 0 1-.761-.822l1-13.2a.793.793 0 0 1 .761-.817h7a.094.094 0 0 1 .077.122zm16.434 6.022a1.889 1.889 0 0 0 .509-3.555.093.093 0 0 1 .022-.176 1.867 1.867 0 0 0 1.539-1.808 1.934 1.934 0 0 0-1.944-1.9H34.04a.11.11 0 0 1-.1-.161c.144-.293 1.244-3.023 1.352-3.331a6.975 6.975 0 0 0-.161-5.111 1.626 1.626 0 0 0-3.211.3c-.018 1.463.192 2.67-.669 3.588a33.1 33.1 0 0 0-3.4 3.743 9.015 9.015 0 0 0-1.8 5.273v9.565c0 .963.719.959.722.963H39.44a1.682 1.682 0 0 0 1.495-.7 1.91 1.91 0 0 0-.592-2.779.094.094 0 0 1 .04-.176A1.883 1.883 0 0 0 41 34.8a.093.093 0 0 1 .023-.175z" class="cls-10" data-name="HAND" transform="translate(-5.415 -8.6)"/>
        </g>
        <g id="Group_830" data-name="Group 830" transform="translate(1470.41 4472.693)">
            <ellipse id="Ellipse_80-3" cx="24" cy="23.5" class="cls-14" data-name="Ellipse 80" rx="24" ry="23.5" transform="translate(-.411 .307)"/>
            <path id="HAND-3" d="M24.589 28.6a7.555 7.555 0 0 0-.524 2.84v10.911a.975.975 0 0 0 .3.8.094.094 0 0 1-.063.166h-7.79a.792.792 0 0 1-.761-.822l1-13.2a.793.793 0 0 1 .761-.817h7a.094.094 0 0 1 .077.122zm16.434 6.022a1.889 1.889 0 0 0 .509-3.555.093.093 0 0 1 .022-.176 1.867 1.867 0 0 0 1.539-1.808 1.934 1.934 0 0 0-1.944-1.9H34.04a.11.11 0 0 1-.1-.161c.144-.293 1.244-3.023 1.352-3.331a6.975 6.975 0 0 0-.161-5.111 1.626 1.626 0 0 0-3.211.3c-.018 1.463.192 2.67-.669 3.588a33.1 33.1 0 0 0-3.4 3.743 9.015 9.015 0 0 0-1.8 5.273v9.565c0 .963.719.959.722.963H39.44a1.682 1.682 0 0 0 1.495-.7 1.91 1.91 0 0 0-.592-2.779.094.094 0 0 1 .04-.176A1.883 1.883 0 0 0 41 34.8a.093.093 0 0 1 .023-.175z" class="cls-10" data-name="HAND" transform="translate(-5.896 -9.083)"/>
        </g>
        <g id="Group_812" data-name="Group 812" transform="translate(1470.411 4398.132)">
            <ellipse id="Ellipse_84" cx="25" cy="24" class="cls-1" data-name="Ellipse 84" rx="25" ry="24" transform="translate(-.411 -.132)"/>
            <g id="Group_811" data-name="Group 811" transform="translate(2.233 12.572)">
                <circle id="Ellipse_85" cx="6.182" cy="6.182" r="6.182" class="cls-15" data-name="Ellipse 85" transform="translate(32.95 6.405)"/>
                <circle id="Ellipse_86" cx="6.182" cy="6.182" r="6.182" class="cls-15" data-name="Ellipse 86" transform="translate(0 6.405)"/>
                <path id="Path_2686" d="M100.514 37.077a13.946 13.946 0 0 1-9.036-7.586 1.03 1.03 0 0 1 1.869-.865 11.834 11.834 0 0 0 21.478 0 1.031 1.031 0 0 1 1.87.865 13.892 13.892 0 0 1-12.609 8.058 13.752 13.752 0 0 1-3.572-.472z" class="cls-2" data-name="Path 2686" transform="translate(-81.429 -14.329)"/>
                <path id="Path_2687" d="M89.191 27.618a1.032 1.032 0 0 1-.763-1 6.35 6.35 0 0 1 12.7 0 1.031 1.031 0 0 1-2.061 0 4.289 4.289 0 0 0-8.579 0 1.035 1.035 0 0 1-1.3 1z" class="cls-2" data-name="Path 2687" transform="translate(-83.692 -20.272)"/>
                <path id="Path_2688" d="M102.294 27.618a1.032 1.032 0 0 1-.763-1 6.35 6.35 0 0 1 12.7 0 1.031 1.031 0 0 1-2.061 0 4.289 4.289 0 0 0-8.579 0 1.035 1.035 0 0 1-1.3 1z" class="cls-2" data-name="Path 2688" transform="translate(-73.652 -20.272)"/>
            </g>
        </g>
        <g id="Group_809" data-name="Group 809" transform="translate(1594.024 4764.067)">
            <ellipse id="Ellipse_81" cx="21" cy="21.5" class="cls-1" data-name="Ellipse 81" rx="21" ry="21.5" transform="translate(-.024 -.067)"/>
            <ellipse id="Ellipse_82" cx="6.201" cy="7.891" class="cls-2" data-name="Ellipse 82" rx="6.201" ry="7.891" transform="translate(14.582 21.486)"/>
            <g id="Group_808" data-name="Group 808" transform="translate(7.031 5.525)">
                <g id="Group_806" data-name="Group 806">
                    <path id="Path_2678" d="M21.959 62.495c-.61 2.274-2.552 3.731-4.339 3.251s-2.742-2.71-2.133-4.984 2.552-3.729 4.339-3.251 2.741 2.709 2.133 4.984z" class="cls-2" data-name="Path 2678" transform="translate(-14.623 -50.475)"/>
                    <path id="Path_2679" d="M15.729 56.26a.877.877 0 0 1-.6-1.514 6.9 6.9 0 0 1 3.624-1.874 5.487 5.487 0 0 1 3.616.643.876.876 0 0 1-.869 1.525 4.32 4.32 0 0 0-5.168.98.873.873 0 0 1-.603.24z" class="cls-2" data-name="Path 2679" transform="translate(-14.851 -52.799)"/>
                </g>
                <g id="Group_807" data-name="Group 807" transform="translate(19.546)">
                    <path id="Path_2680" d="M28.33 62.495c.61 2.274 2.552 3.731 4.339 3.251s2.742-2.71 2.131-4.984-2.551-3.729-4.338-3.251-2.74 2.709-2.132 4.984z" class="cls-2" data-name="Path 2680" transform="translate(-27.708 -50.475)"/>
                    <path id="Path_2681" d="M34.934 56.26a.873.873 0 0 1-.6-.24 4.32 4.32 0 0 0-5.168-.98.876.876 0 0 1-.866-1.524 5.487 5.487 0 0 1 3.616-.643 6.9 6.9 0 0 1 3.624 1.874.877.877 0 0 1-.6 1.514z" class="cls-2" data-name="Path 2681" transform="translate(-27.855 -52.799)"/>
                </g>
            </g>
        </g>
        <g id="Group_832" data-name="Group 832" transform="translate(1428.225 4328.477)">
            <ellipse id="Ellipse_81-2" cx="21" cy="22" class="cls-1" data-name="Ellipse 81" rx="21" ry="22" transform="translate(-.225 -.477)"/>
            <ellipse id="Ellipse_82-2" cx="6.201" cy="7.891" class="cls-2" data-name="Ellipse 82" rx="6.201" ry="7.891" transform="translate(14.825 21.163)"/>
            <g id="Group_808-2" data-name="Group 808" transform="translate(7.274 5.202)">
                <g id="Group_806-2" data-name="Group 806">
                    <path id="Path_2678-2" d="M21.959 62.495c-.61 2.274-2.552 3.731-4.339 3.251s-2.742-2.71-2.133-4.984 2.552-3.729 4.339-3.251 2.741 2.709 2.133 4.984z" class="cls-2" data-name="Path 2678" transform="translate(-14.623 -50.475)"/>
                    <path id="Path_2679-2" d="M15.729 56.26a.877.877 0 0 1-.6-1.514 6.9 6.9 0 0 1 3.624-1.874 5.487 5.487 0 0 1 3.616.643.876.876 0 0 1-.869 1.525 4.32 4.32 0 0 0-5.168.98.873.873 0 0 1-.603.24z" class="cls-2" data-name="Path 2679" transform="translate(-14.851 -52.799)"/>
                </g>
                <g id="Group_807-2" data-name="Group 807" transform="translate(19.546)">
                    <path id="Path_2680-2" d="M28.33 62.495c.61 2.274 2.552 3.731 4.339 3.251s2.742-2.71 2.131-4.984-2.551-3.729-4.338-3.251-2.74 2.709-2.132 4.984z" class="cls-2" data-name="Path 2680" transform="translate(-27.708 -50.475)"/>
                    <path id="Path_2681-2" d="M34.934 56.26a.873.873 0 0 1-.6-.24 4.32 4.32 0 0 0-5.168-.98.876.876 0 0 1-.866-1.524 5.487 5.487 0 0 1 3.616-.643 6.9 6.9 0 0 1 3.624 1.874.877.877 0 0 1-.6 1.514z" class="cls-2" data-name="Path 2681" transform="translate(-27.855 -52.799)"/>
                </g>
            </g>
        </g>
        <g id="Group_823" data-name="Group 823" transform="translate(1293.031 4618.823)">
            <circle id="Ellipse_89" cx="21.494" cy="21.494" r="21.494" class="cls-16" data-name="Ellipse 89"/>
            <path id="Path_2711" d="M-482.468-25.675c0-4.216-3.252-7.23-6.569-7.23a6.259 6.259 0 0 0-6.008 4.43 6.257 6.257 0 0 0-6.008-4.43c-3.317 0-6.568 3.013-6.568 7.23 0 6.39 9.8 13.7 12.218 14.468a1.07 1.07 0 0 0 .141.041.954.954 0 0 0 .2.029h.033a.936.936 0 0 0 .2-.029 1.086 1.086 0 0 0 .143-.041c2.417-.765 12.218-8.079 12.218-14.468z" class="cls-17" data-name="Path 2711" transform="translate(516.538 44.157)"/>
        </g>
        <g id="Group_828" data-name="Group 828" transform="translate(1209.794 4751.723)">
            <circle id="Ellipse_89-2" cx="21.494" cy="21.494" r="21.494" class="cls-16" data-name="Ellipse 89"/>
            <path id="Path_2711-2" d="M-482.468-25.675c0-4.216-3.252-7.23-6.569-7.23a6.259 6.259 0 0 0-6.008 4.43 6.257 6.257 0 0 0-6.008-4.43c-3.317 0-6.568 3.013-6.568 7.23 0 6.39 9.8 13.7 12.218 14.468a1.07 1.07 0 0 0 .141.041.954.954 0 0 0 .2.029h.033a.936.936 0 0 0 .2-.029 1.086 1.086 0 0 0 .143-.041c2.417-.765 12.218-8.079 12.218-14.468z" class="cls-17" data-name="Path 2711" transform="translate(516.538 44.157)"/>
        </g>
        <g id="Group_827" data-name="Group 827" transform="translate(1198.102 4510.983)">
            <circle id="Ellipse_89-3" cx="21.494" cy="21.494" r="21.494" class="cls-16" data-name="Ellipse 89"/>
            <path id="Path_2711-3" d="M-482.468-25.675c0-4.216-3.252-7.23-6.569-7.23a6.259 6.259 0 0 0-6.008 4.43 6.257 6.257 0 0 0-6.008-4.43c-3.317 0-6.568 3.013-6.568 7.23 0 6.39 9.8 13.7 12.218 14.468a1.07 1.07 0 0 0 .141.041.954.954 0 0 0 .2.029h.033a.936.936 0 0 0 .2-.029 1.086 1.086 0 0 0 .143-.041c2.417-.765 12.218-8.079 12.218-14.468z" class="cls-17" data-name="Path 2711" transform="translate(516.538 44.158)"/>
        </g>
        <g id="Group_824" data-name="Group 824" transform="translate(1103.172 4435.799)">
            <circle id="Ellipse_89-4" cx="21.494" cy="21.494" r="21.494" class="cls-16" data-name="Ellipse 89"/>
            <path id="Path_2711-4" d="M-482.468-25.675c0-4.216-3.252-7.23-6.569-7.23a6.259 6.259 0 0 0-6.008 4.43 6.257 6.257 0 0 0-6.008-4.43c-3.317 0-6.568 3.013-6.568 7.23 0 6.39 9.8 13.7 12.218 14.468a1.07 1.07 0 0 0 .141.041.954.954 0 0 0 .2.029h.033a.936.936 0 0 0 .2-.029 1.086 1.086 0 0 0 .143-.041c2.417-.765 12.218-8.079 12.218-14.468z" class="cls-17" data-name="Path 2711" transform="translate(516.538 44.158)"/>
        </g>
        <g id="Group_826" data-name="Group 826" transform="rotate(14.98 -16753.136 6469.168)">
            <circle id="Ellipse_90" cx="19.505" cy="19.505" r="19.505" class="cls-10" data-name="Ellipse 90" transform="rotate(-63.228 28.29 17.414)"/>
            <g id="Group_825" data-name="Group 825" transform="translate(15.569 13.419)">
                <path id="Path_2813" d="M.742 0h4.13a.742.742 0 0 1 .742.742v10.072a.742.742 0 0 1-.742.742H.742A.742.742 0 0 1 0 10.814V.742A.742.742 0 0 1 .742 0z" class="cls-18" data-name="Path 2813" transform="rotate(-22.33 37.528 7.407)"/>
                <path id="Path_2712" d="M12.216 8.378l-.186.076a1.786 1.786 0 1 0-1.356-3.3l-5.3 2.174a9.368 9.368 0 0 0-.1-4.646C4.4.554 2.749-.15 1.935.026a1.409 1.409 0 0 0-1.162 1.54c.044.731.931 1.786.958 2.282.042.763-.76 2.138-1.511 4.821a6.6 6.6 0 0 0 .412 4.46l1.2 2.935L3.038 19l.562 1.364a1.113 1.113 0 0 0 1.45.607l9.848-4.04a1.295 1.295 0 1 0-.982-2.4l.169-.068a1.586 1.586 0 0 0-1.2-2.935l.539-.221a1.586 1.586 0 0 0-1.2-2.935z" class="cls-18" data-name="Path 2712" transform="translate(6.361)"/>
            </g>
        </g>
        <g id="Group_831" data-name="Group 831" transform="rotate(14.98 -16719.116 8358.88)">
            <circle id="Ellipse_90-2" cx="19.505" cy="19.505" r="19.505" class="cls-10" data-name="Ellipse 90" transform="rotate(-63.228 28.29 17.414)"/>
            <g id="Group_825-2" data-name="Group 825" transform="translate(15.569 13.419)">
                <rect id="Rectangle_710" width="5.614" height="11.556" class="cls-18" data-name="Rectangle 710" rx=".895" transform="rotate(-22.33 37.528 7.407)"/>
                <path id="Path_2712-2" d="M12.216 8.378l-.186.076a1.786 1.786 0 1 0-1.356-3.3l-5.3 2.174a9.368 9.368 0 0 0-.1-4.646C4.4.554 2.749-.15 1.935.026a1.409 1.409 0 0 0-1.162 1.54c.044.731.931 1.786.958 2.282.042.763-.76 2.138-1.511 4.821a6.6 6.6 0 0 0 .412 4.46l1.2 2.935L3.038 19l.562 1.364a1.113 1.113 0 0 0 1.45.607l9.848-4.04a1.295 1.295 0 1 0-.982-2.4l.169-.068a1.586 1.586 0 0 0-1.2-2.935l.539-.221a1.586 1.586 0 0 0-1.2-2.935z" class="cls-18" data-name="Path 2712" transform="translate(6.361)"/>
            </g>
        </g>
    </g>
</svg>
