<svg xmlns="http://www.w3.org/2000/svg" id="Layer" width="34.833" height="34.159" viewBox="0 0 34.833 34.159">
    <g id="Vrstva_206" data-name="Vrstva 206">
        <path id="Path_474" fill="#4aa0f2" fill-rule="evenodd" d="M31.083 6.875H29.5v-.918A4.75 4.75 0 0 0 23.452 1.4L5.322 6.574a1.583 1.583 0 0 0-.7.443A4.75 4.75 0 0 0 1 11.625v19a4.75 4.75 0 0 0 4.75 4.75h25.333a4.75 4.75 0 0 0 4.75-4.75v-19a4.75 4.75 0 0 0-4.75-4.75zm-6.761-2.438a1.583 1.583 0 0 1 2.011 1.583v.918H15.82zm8.344 18.272h-4.75a1.583 1.583 0 0 1 0-3.167h4.75zm0-6.333h-4.512a4.892 4.892 0 0 0-4.908 3.863 4.75 4.75 0 0 0 4.671 5.637h4.75v4.75a1.583 1.583 0 0 1-1.583 1.583H5.75a1.583 1.583 0 0 1-1.583-1.583v-19a1.583 1.583 0 0 1 1.583-1.584h25.333a1.583 1.583 0 0 1 1.583 1.583z" data-name="Path 474" transform="translate(-1 -1.216)"/>
    </g>
</svg>
